<svg xmlns="http://www.w3.org/2000/svg" width="149" height="148" viewBox="0 0 149 148" fill="none">
  <path d="M120.171 115.496C126.231 116.261 132.369 114.472 136.902 110.452C140.699 107.084 143.037 102.538 137.199 97.8245C123.226 86.5437 124.333 77.4294 130.778 70.9789C137.224 64.5284 153.608 51.4815 143.522 39.9091C133.436 28.3367 106.4 40.9818 102.327 27.5774C98.2534 14.173 90.9309 3.07874 77.9879 0.998914C67.3212 -0.714934 52.642 3.55549 49.7315 16.6283C46.8492 29.5748 63.3211 28.8524 47.7213 49.7407C38.5472 62.0251 53.7855 88.3417 67.5684 82.939C81.3514 77.5366 98.2073 85.8342 98.7986 101.087C99.1887 111.145 111.697 114.427 120.171 115.496Z" fill="#E5E5E5"/>
  <path d="M40.3411 40.4173C40.478 38.829 41.2589 37.3479 42.5396 36.3674C43.8386 35.3732 45.7295 34.7787 48.0969 36.3783C52.8319 39.5774 45.3733 48.8797 42.4278 47.1946C40.0089 45.8109 40.1175 43.0146 40.3411 40.4173Z" fill="#E5E5E5"/>
  <path d="M114.003 26.4784C112.586 25.6994 111.535 24.3894 111.155 22.8396C110.769 21.2681 110.999 19.3327 113.462 17.879C118.389 14.9712 123.68 24.802 121.954 27.6878C120.704 29.7792 116.321 27.7526 114.003 26.4784Z" fill="#E5E5E5"/>
  <path d="M148.668 71.4023C148.513 72.3835 147.962 73.2704 147.123 73.825C146.272 74.3876 145.07 74.6765 143.67 73.5817C140.869 71.3925 145.05 66.5475 147.142 66.9082C148.658 67.1701 148.922 69.7982 148.668 71.4023Z" fill="#E5E5E5"/>
  <path d="M115.673 121.107C117.674 116.818 109.382 108.887 97.151 103.391C84.9205 97.8962 73.3831 96.9186 71.3817 101.208C69.3803 105.497 77.6727 113.429 89.9032 118.924C102.134 124.419 113.671 125.397 115.673 121.107Z" fill="#E5E5E5"/>
  <path d="M78.2528 109.112L96.8489 119.647C97.6437 120.098 98.6237 120.098 99.4182 119.647L108.528 114.486C109.867 113.728 110.159 112.08 109.406 110.933C109.196 110.613 108.903 110.332 108.529 110.12L89.9683 99.5965C89.1756 99.1471 88.1989 99.1454 87.404 99.5923L78.2588 104.743C77.8816 104.955 77.5872 105.238 77.3761 105.56C76.6227 106.706 76.9142 108.353 78.2528 109.112Z" fill="#3A4059"/>
  <path d="M77.377 105.56C77.5867 105.881 77.8792 106.162 78.2533 106.373L96.8494 116.909C97.6442 117.359 98.6242 117.359 99.4187 116.909L108.529 111.748C108.903 111.536 109.195 111.254 109.406 110.933C109.197 110.613 108.904 110.332 108.53 110.12L89.9688 99.5965C89.1761 99.1471 88.1994 99.1454 87.4045 99.5923L78.2593 104.743C77.8824 104.954 77.5877 105.238 77.377 105.56Z" fill="#51557C"/>
  <path d="M89.752 88.9434V105.15L94.433 107.829L94.4669 111.948L95.5297 112.555L95.5304 112.554L99.2029 110.558V94.4148L89.752 88.9434Z" fill="#252B3D"/>
  <path d="M86.0801 90.9414V107.148L94.4675 111.948L95.5303 112.555L95.531 112.556V96.2926L89.7526 93.0205L86.0801 90.9414Z" fill="#3A4059"/>
  <path d="M58.6934 5.62401V68.5375C58.6934 69.6288 59.2867 70.638 60.2499 71.1835L139.422 116.037C141.497 117.212 144.092 115.743 144.092 113.391V50.5879C144.092 49.892 143.85 49.2298 143.425 48.6995C143.212 48.4327 142.953 48.2003 142.653 48.0127C142.616 47.9892 142.578 47.9661 142.538 47.9437L138.21 45.4852L63.3651 2.9798C61.2898 1.80124 58.6934 3.27111 58.6934 5.62401Z" fill="#252B3D"/>
  <path d="M142.48 116.067L136.984 118.741L138.253 115.375C138.253 115.375 140.748 116.142 142.48 116.067Z" fill="#252B3D"/>
  <path d="M52.7988 5.8439V9.05987L58.6387 12.3217L132.254 53.439L138.021 51.0353L143.37 48.7066C143.158 48.4398 142.898 48.2077 142.598 48.0198L138.155 45.4924L61.5917 1.94437C60.3825 1.25693 58.892 1.24677 57.6735 1.92018L54.1003 3.89063L53.722 4.09956C53.1754 4.47465 52.7988 5.09548 52.7988 5.8439Z" fill="#3A4059"/>
  <path d="M52.8555 5.8374V70.8847C52.8555 71.6458 53.2688 72.3497 53.9419 72.7311L134.995 118.65C136.444 119.471 138.254 118.446 138.254 116.805V51.8698C138.254 51.1094 137.841 50.4066 137.17 50.0252L137.054 49.9589L56.1171 3.99209C55.4716 3.62577 54.7542 3.62576 54.1569 3.88447C54.0251 3.94161 53.8976 4.01137 53.7786 4.09375C53.232 4.46814 52.8555 5.08897 52.8555 5.8374Z" fill="#51557C"/>
  <path d="M55.9395 9.00516V70.3384C55.9395 70.6111 56.0895 70.8656 56.3303 71.0027L132.757 114.3C132.88 114.371 133.011 114.406 133.145 114.406C133.522 114.406 133.929 114.112 133.929 113.636V52.4091C133.929 52.1363 133.779 51.8826 133.538 51.7458L57.1123 8.34192C56.9883 8.27111 56.8579 8.23535 56.7236 8.23535C56.3464 8.23535 55.9395 8.52947 55.9395 9.00516Z" fill="white"/>
  <path opacity="0.1" d="M55.9395 9.00516V11.9158L133.929 56.187V52.4091C133.929 52.1364 133.779 51.8826 133.538 51.7458L57.1123 8.34192C56.9883 8.27111 56.8579 8.23535 56.7236 8.23535C56.3464 8.23535 55.9395 8.52947 55.9395 9.00516Z" fill="#252B3D"/>
  <path d="M130.949 52.6988C130.977 53.2096 131.308 53.6232 131.688 53.6232C132.069 53.6232 132.355 53.2092 132.328 52.6988C132.3 52.1884 131.969 51.7744 131.589 51.7744C131.208 51.7741 130.922 52.1881 130.949 52.6988Z" fill="#FF7A8C"/>
  <path d="M128.752 51.6085C128.779 52.1192 129.111 52.5329 129.491 52.5329C129.871 52.5329 130.158 52.1189 130.13 51.6085C130.103 51.0977 129.771 50.6841 129.391 50.6841C129.01 50.6837 128.724 51.0977 128.752 51.6085Z" fill="#3A4059"/>
  <path d="M126.801 50.547C126.828 51.0574 127.159 51.4714 127.54 51.4714C127.92 51.4714 128.207 51.0574 128.179 50.547C128.151 50.0362 127.82 49.6226 127.44 49.6226C127.059 49.6226 126.773 50.0366 126.801 50.547Z" fill="#D5243A"/>
  <path d="M55.9395 63.1235V70.361C55.9395 70.6338 56.0895 70.8886 56.3303 71.0253L132.757 114.323C132.88 114.393 133.011 114.428 133.145 114.428C133.522 114.428 133.929 114.134 133.929 113.658V107.306L55.9395 63.1235Z" fill="#51557C"/>
  <path d="M88.3707 87.5581C88.4533 89.0865 89.4439 90.3257 90.5835 90.3257C91.7231 90.3257 92.5798 89.0865 92.4973 87.5581C92.4148 86.0297 91.4241 84.7905 90.2845 84.7905C89.1449 84.7905 88.2882 86.0297 88.3707 87.5581Z" fill="#6B749B"/>
  <path opacity="0.1" d="M118.869 57.1504C118.869 57.0207 118.838 56.8956 118.781 56.7831C118.708 56.6386 118.594 56.5152 118.447 56.4322L78.2339 33.5972C78.0092 33.47 77.7624 33.4559 77.5459 33.5271C77.5276 33.5327 77.5101 33.5387 77.4926 33.546L73.2085 35.0541C73.1257 35.0706 73.046 35.0972 72.972 35.1361C72.9706 35.1368 72.9692 35.1379 72.9674 35.1389L72.9635 35.1403L72.9642 35.1407C72.7095 35.2774 72.5248 35.5393 72.524 35.8649L72.5223 36.2919L72.4433 61.6817L72.4401 62.7119L72.4219 68.59C72.4212 68.888 72.5823 69.1638 72.8445 69.3125L113.194 92.1713C113.442 92.3118 113.717 92.3132 113.948 92.2168L118.281 90.7028L118.389 90.6646C118.682 90.5412 118.904 90.2579 118.903 89.9004L118.869 57.1504ZM114.462 88.8238V88.8221L114.462 88.8224L114.462 88.8238Z" fill="#252B3D"/>
  <path d="M72.9143 31.529L72.821 61.3763C72.8203 61.6743 72.9814 61.9495 73.2444 62.0978L108.447 82.0417L110.422 83.16L109.908 86.554L114.241 85.04L114.349 85.0018C114.642 84.8784 114.864 84.5951 114.863 84.2376L114.829 51.4883C114.828 51.3586 114.797 51.2335 114.741 51.1209C114.668 50.9765 114.553 50.8531 114.406 50.77L74.1936 27.9351C73.9689 27.8079 73.722 27.7938 73.5055 27.865C73.4873 27.8706 73.4698 27.8766 73.4523 27.8839L68.9238 29.4782L72.9143 31.529Z" fill="#D5243A"/>
  <path d="M110.425 83.1601L109.912 86.5542L114.244 85.0401L114.353 85.0019C114.646 84.8785 114.867 84.5953 114.866 84.2377L114.832 51.4885C114.832 51.3588 114.801 51.2336 114.744 51.1211L108.993 53.0491L108.451 82.0419L110.425 83.1601Z" fill="#B11118"/>
  <path d="M68.3848 62.9274C68.3841 63.2254 68.5452 63.5012 68.8074 63.6499L109.157 86.5087C109.722 86.8287 110.428 86.4287 110.427 85.7886L110.424 83.4508L110.422 81.5736L110.392 53.1659V53.0394C110.392 52.7432 110.231 52.4697 109.97 52.3218L109.911 52.2885L69.7573 29.4869C69.4844 29.3316 69.1775 29.3456 68.9346 29.4739C68.6759 29.6092 68.488 29.8739 68.4869 30.2027L68.4852 30.6297L68.4062 56.0194L68.403 57.0497L68.3848 62.9274Z" fill="#FF4A67"/>
  <path d="M94.4094 57.8046L110.423 83.4507L110.421 81.5735L95.2604 57.2928C95.1164 57.0618 94.8095 56.9893 94.5741 57.1312C94.3397 57.2725 94.2654 57.5736 94.4094 57.8046Z" fill="#D5243A"/>
  <path d="M68.4023 57.0503L82.5071 52.5786C82.769 52.4952 82.913 52.2193 82.8283 51.9624C82.7444 51.7044 82.4621 51.5631 82.2003 51.6465L68.4056 56.02L68.4023 57.0503Z" fill="#D5243A"/>
  <path d="M68.4844 30.6289L87.128 60.4886L110.392 53.1652V53.0386C110.391 52.7424 110.23 52.469 109.969 52.3211L109.91 52.2878L87.5688 59.3216L68.9338 29.4731C68.6751 29.6085 68.4872 29.8731 68.4862 30.2019L68.4844 30.6289Z" fill="#D5243A"/>
  <path d="M21.6686 98.494C26.9671 96.9038 30.6663 93.7023 29.931 91.3434C29.1957 88.9845 24.3044 88.3614 19.0059 89.9516C13.7074 91.5419 10.0082 94.7433 10.7435 97.1023C11.4788 99.4612 16.3701 100.084 21.6686 98.494Z" fill="#E5E5E5"/>
  <path d="M27.3008 34.3404C27.3044 34.3705 27.309 34.4007 27.3151 34.4315C27.3226 34.4823 27.3322 34.5346 27.3436 34.5868C27.9174 37.359 32.0464 41.9852 32.0464 41.9852L34.1656 40.7705C32.1536 38.1207 29.9273 32.6279 29.9273 32.6279L28.5311 33.5376L27.3008 34.3404Z" fill="#D5243A"/>
  <path d="M25.6591 31.0318C25.9178 32.3015 26.5669 33.432 27.2046 34.2958C27.2399 34.342 27.2735 34.3876 27.3082 34.4328C27.336 34.4689 27.3628 34.5043 27.39 34.5387C27.5761 34.7764 27.7576 34.9905 27.9248 35.1767C28.2159 34.8198 28.536 34.4886 28.834 34.1366C29.0726 33.8548 29.2623 33.5368 29.4717 33.235C29.6103 33.0341 29.7575 32.8241 29.9204 32.6292C28.5639 29.7098 26.6294 23.4546 26.6294 23.4546C26.6294 23.4546 25.0793 28.1891 25.6591 31.0318Z" fill="#D5243A"/>
  <path d="M27.209 34.2945C27.2444 34.3408 27.2779 34.3864 27.3126 34.4316C27.3201 34.4824 27.3297 34.5347 27.3412 34.5869C27.3583 34.5708 27.3758 34.5546 27.3944 34.5375C27.6623 34.2952 28.0582 34.0008 28.5458 33.8265C28.6044 33.8052 28.6419 33.7536 28.6462 33.6968C28.6483 33.6755 28.6455 33.6541 28.638 33.6334C28.6201 33.584 28.578 33.5496 28.5283 33.5377C28.5004 33.5317 28.4697 33.5331 28.4404 33.5436C27.9203 33.7305 27.4987 34.0362 27.209 34.2945Z" fill="#B11118"/>
  <path d="M13.2227 90.7837C12.8851 90.8927 12.6422 91.1917 12.5893 91.5433C12.5429 91.8508 12.5061 92.29 12.5243 92.873C12.565 94.1732 12.5814 94.7035 12.5814 94.7035C12.5814 94.7035 12.9812 95.3892 14.1308 95.5757L14.4691 95.6223C14.4691 95.6223 17.071 97.1571 18.286 97.2752C19.8714 97.4291 21.4915 96.714 20.1804 95.2003C18.9419 93.7707 17.121 93.1983 16.583 92.053C16.5201 91.9195 16.1139 91.6348 16.0107 91.5297C15.1315 90.6371 14.4559 90.3847 13.2227 90.7837Z" fill="#FF4A67"/>
  <path d="M15.8779 93.5304C15.9354 93.5304 15.9897 93.4974 16.0136 93.4424C16.0154 93.4382 16.2162 92.9923 16.5899 92.8703C16.9478 92.7532 17.3319 93.0589 17.3358 93.062C17.3987 93.1129 17.4919 93.1041 17.5437 93.0428C17.5959 92.9811 17.5873 92.8899 17.5248 92.8391C17.5041 92.8223 17.0118 92.4268 16.4966 92.5955C15.9961 92.7592 15.7525 93.3053 15.7425 93.3285C15.7103 93.4021 15.745 93.4873 15.82 93.5188C15.8389 93.5265 15.8586 93.5304 15.8779 93.5304Z" fill="white"/>
  <path d="M16.3994 93.8942C16.4569 93.8942 16.5112 93.8612 16.5351 93.8062C16.5369 93.802 16.7377 93.3561 17.1113 93.2341C17.4693 93.1166 17.8533 93.4227 17.8573 93.4258C17.9202 93.4766 18.0134 93.4679 18.0652 93.4065C18.117 93.3448 18.1088 93.2537 18.0463 93.2029C18.0255 93.186 17.5336 92.7906 17.0181 92.9592C16.5176 93.1229 16.274 93.6691 16.264 93.6922C16.2318 93.7659 16.2665 93.851 16.3415 93.8826C16.3604 93.8903 16.3801 93.8942 16.3994 93.8942Z" fill="white"/>
  <path d="M16.9911 94.2175C17.0487 94.2175 17.103 94.1846 17.1269 94.1295C17.1287 94.1253 17.3295 93.6794 17.7031 93.5574C18.0607 93.44 18.4451 93.746 18.4491 93.7492C18.5119 93.8 18.6052 93.7913 18.657 93.7299C18.7088 93.6682 18.7006 93.5771 18.6381 93.5262C18.6173 93.5094 18.1254 93.1136 17.6099 93.2826C17.1094 93.4463 16.8658 93.9925 16.8558 94.0156C16.8236 94.0892 16.8583 94.1744 16.9333 94.206C16.9519 94.2137 16.9715 94.2175 16.9911 94.2175Z" fill="white"/>
  <path d="M13.3921 88.2554L13.2578 91.4682C13.2578 91.4682 14.0831 92.2934 15.3659 91.7473L15.6839 88.2779C15.6839 88.2779 14.2985 87.7934 13.3921 88.2554Z" fill="#FCB38F"/>
  <path d="M12.6368 70.5071C13.6714 65.2131 12.8519 56.8416 12.7733 52.9858L21.4565 54.2962L21.7137 59.5569C21.7098 59.538 21.0678 59.6004 21.0639 59.5815C21.0639 59.5815 20.6888 59.4192 20.2483 59.436C19.6302 59.4595 19.4427 60.4645 19.3605 60.7527C19.0565 64.553 19.0401 69.2073 18.6918 72.1088C18.0023 77.8498 15.8149 90.5951 15.8149 90.5951C14.7585 90.8219 14.1419 90.7652 13.0805 90.3774C13.0805 90.3774 11.9848 73.8433 12.6368 70.5071Z" fill="#51557C"/>
  <path d="M13.6092 90.2037C13.6099 90.2037 13.6106 90.2037 13.6113 90.2037C13.7042 90.2026 13.7785 90.1276 13.7775 90.0365C13.7696 89.4486 13.5828 75.627 13.472 74.5859C13.3588 73.5234 13.7103 69.7076 14.0554 67.6348C14.3001 66.1663 14.1261 59.2605 14.1186 58.9671C14.1165 58.8773 14.0415 58.8062 13.9507 58.8062C13.9493 58.8062 13.9479 58.8062 13.9464 58.8062C13.8536 58.8086 13.7803 58.8843 13.7825 58.9751C13.7843 59.0466 13.9632 66.1432 13.7235 67.5812C13.3752 69.6726 13.0219 73.5353 13.1376 74.6199C13.2473 75.6463 13.4395 89.8969 13.4413 90.0407C13.4424 90.1315 13.5174 90.2037 13.6092 90.2037Z" fill="#252B3D"/>
  <path d="M16.0774 89.5541C16.0774 89.5541 14.2257 89.7476 12.8239 89.3848C12.7157 89.9253 12.775 90.4929 12.9039 90.801C12.9039 90.801 14.5766 91.2273 15.9219 90.9051C16.0777 90.5016 16.196 90.0263 16.0774 89.5541Z" fill="#6B749B"/>
  <path d="M20.795 88.4758C20.4574 88.5849 20.2144 88.8842 20.1616 89.2355C20.1151 89.5429 20.0783 89.9821 20.0966 90.5651C20.1373 91.8653 20.1537 92.3957 20.1537 92.3957C20.1537 92.3957 20.5535 93.0814 21.7031 93.2679L22.0414 93.3145C22.0414 93.3145 24.6432 94.8492 25.8582 94.9674C27.4437 95.1212 29.0638 94.4061 27.7527 92.8924C26.5141 91.4632 24.6932 90.8904 24.1552 89.7452C24.0924 89.6116 23.6862 89.327 23.5829 89.2218C22.7041 88.3297 22.0285 88.0773 20.795 88.4758Z" fill="#FF4A67"/>
  <path d="M23.4501 91.2233C23.5077 91.2233 23.562 91.1903 23.5859 91.1353C23.5877 91.1311 23.7884 90.6852 24.1621 90.5632C24.5201 90.4461 24.9041 90.7518 24.9081 90.7549C24.9709 90.8057 25.0642 90.797 25.116 90.7356C25.1681 90.6739 25.1596 90.5828 25.097 90.532C25.0763 90.5151 24.584 90.1197 24.0689 90.2883C23.5684 90.452 23.3247 90.9982 23.3147 91.0213C23.2826 91.095 23.3172 91.1801 23.3923 91.2117C23.4108 91.2194 23.4308 91.2233 23.4501 91.2233Z" fill="white"/>
  <path d="M23.9638 91.5851C24.0213 91.5851 24.0756 91.5521 24.0996 91.4971C24.1013 91.4929 24.3021 91.047 24.6758 90.925C25.0338 90.8075 25.4178 91.1136 25.4217 91.1167C25.4846 91.1676 25.5778 91.1588 25.6296 91.0975C25.6814 91.0361 25.6732 90.945 25.6107 90.8938C25.59 90.877 25.0981 90.4815 24.5826 90.6502C24.0821 90.8139 23.8384 91.36 23.8284 91.3832C23.7963 91.4568 23.8309 91.542 23.9059 91.5735C23.9245 91.5812 23.9445 91.5851 23.9638 91.5851Z" fill="white"/>
  <path d="M24.5552 91.9094C24.6128 91.9094 24.6671 91.8765 24.6914 91.8214C24.6931 91.8172 24.8939 91.3713 25.2676 91.2493C25.6256 91.1319 26.0096 91.4379 26.0135 91.4411C26.0764 91.4919 26.1696 91.4831 26.2214 91.4218C26.2732 91.3601 26.265 91.269 26.2025 91.2181C26.1818 91.2013 25.6899 90.8055 25.1744 90.9745C24.6739 91.1382 24.4302 91.6844 24.4202 91.7075C24.3881 91.7811 24.4227 91.8663 24.4977 91.8979C24.5159 91.9056 24.536 91.9094 24.5552 91.9094Z" fill="white"/>
  <path d="M20.9585 85.9465L20.8242 89.1593C20.8242 89.1593 21.6495 89.9845 22.9323 89.4383L23.2503 85.9689C23.2503 85.9689 21.8652 85.4841 20.9585 85.9465Z" fill="#FCB38F"/>
  <path d="M26.9434 58.7853C26.6405 62.5671 26.0156 66.8424 25.6691 69.7306C24.9796 75.4716 23.382 88.2857 23.382 88.2857C22.3256 88.5125 21.709 88.4557 20.6477 88.068C20.6477 88.068 19.4952 71.4778 19.876 68.1012C20.5008 62.5594 20.5026 56.9786 20.424 53.1232L27.355 52.1543L26.9434 58.7853Z" fill="#51557C"/>
  <path d="M21.5581 58.6719C21.4641 58.6719 21.388 58.7469 21.3894 58.8391C21.423 61.0711 21.4423 64.3442 21.288 65.2703C20.9397 67.3617 20.5863 71.2244 20.7021 72.309C20.8118 73.3355 21.004 87.5861 21.0058 87.7298C21.0072 87.8203 21.0822 87.8925 21.1737 87.8925H21.1758C21.2687 87.8914 21.343 87.8164 21.3419 87.7253C21.3341 87.1374 21.1472 73.3158 21.0365 72.2747C20.9232 71.2122 21.2748 67.3964 21.6199 65.3236C21.7799 64.3627 21.761 61.0749 21.7263 58.8338C21.7253 58.7437 21.6502 58.6719 21.5581 58.6719Z" fill="#252B3D"/>
  <path d="M23.6438 87.244C23.6438 87.244 21.7921 87.4372 20.3903 87.0747C20.2821 87.6153 20.3414 88.1828 20.4703 88.4909C20.4703 88.4909 22.143 88.9172 23.4884 88.5951C23.6445 88.1916 23.7627 87.7162 23.6438 87.244Z" fill="#6B749B"/>
  <path d="M26.6378 23.4545C24.4957 23.017 20.88 22.7481 18.9534 23.4065C16.2387 24.3344 14.9361 25.2206 13.0885 26.5127C13.0242 27.5605 12.7126 32.5825 12.698 33.6917C12.6948 33.9591 12.6937 34.2238 12.6951 34.4822C12.6951 34.5912 12.6962 34.6981 12.6984 34.8047C12.7494 38.1952 12.32 45.7478 12.2429 47.5718C12.1039 50.8526 11.9824 52.5598 12.0628 52.7652C12.5258 53.9486 15.5567 55.0413 20.0555 54.7854C24.5539 54.5288 26.756 54.4314 27.2458 52.8083C27.7352 51.1859 27.4805 49.9453 26.9678 45.1221C26.5349 41.055 26.5509 26.9856 26.6378 23.4545Z" fill="#FF4A67"/>
  <path d="M24.6096 44.7631C24.6932 44.7863 24.7833 44.7453 24.8176 44.6646C24.8547 44.5773 24.8129 44.4771 24.7243 44.4406C24.6486 44.4094 17.1207 41.2657 16.6956 37.3847C16.6852 37.2908 16.5991 37.2228 16.5034 37.2329C16.4076 37.2431 16.3383 37.3276 16.3487 37.4215C16.5377 39.1445 17.9874 40.905 20.6581 42.6535C22.628 43.9432 24.57 44.7484 24.5893 44.7561C24.5961 44.7589 24.6029 44.761 24.6096 44.7631Z" fill="#D5243A"/>
  <path d="M23.494 45.4224C23.5855 45.4476 23.6808 45.3964 23.7084 45.307C23.7362 45.2166 23.6837 45.1212 23.5915 45.0939C23.5672 45.0869 21.143 44.3613 18.9727 42.8528C18.8941 42.7981 18.7851 42.8164 18.7294 42.8935C18.6737 42.9706 18.6923 43.0775 18.7709 43.1322C20.9894 44.6743 23.4661 45.4147 23.4911 45.4217C23.4922 45.4217 23.4929 45.422 23.494 45.4224Z" fill="#D5243A"/>
  <path d="M24.9031 14.6257C24.9031 14.6257 25.9184 12.4429 23.8492 11.1917C21.7801 9.94097 19.7148 10.7553 19.7691 11.5409C19.8234 12.3261 19.3108 11.7828 17.7292 12.7962C16.1477 13.8097 15.8601 15.392 16.4782 16.5934C16.4782 16.5934 19.7852 12.7657 24.9031 14.6257Z" fill="#252B3D"/>
  <path d="M21.6538 22.3838L21.4913 23.9059L21.4359 24.4201C19.7086 24.846 18.3768 23.6924 18.3768 23.6924L18.2207 21.3412C18.2518 21.3198 18.285 21.302 18.3211 21.2883C19.2528 20.888 21.6538 22.3838 21.6538 22.3838Z" fill="#FCB38F"/>
  <path d="M21.6531 22.384L21.4905 23.9061C19.7221 23.2965 18.7526 22.0212 18.3203 21.2882C19.252 20.8882 21.6531 22.384 21.6531 22.384Z" fill="#FD8471"/>
  <path d="M24.4035 17.4022C24.4035 17.4022 25.172 16.5031 25.6617 17.3065C26.1515 18.11 25.2716 20.3595 23.998 19.7313L24.4035 17.4022Z" fill="#FD8471"/>
  <path d="M24.3197 19.0383C24.3679 19.0407 24.414 19.012 24.4301 18.965C24.6712 18.2688 25.4336 18.022 25.4411 18.0196C25.499 18.0014 25.5311 17.9404 25.5125 17.8836C25.4943 17.8268 25.4322 17.7952 25.3739 17.8131C25.3382 17.8243 24.4987 18.0935 24.2207 18.8953C24.2011 18.9521 24.2322 19.0134 24.2897 19.0327C24.3001 19.0358 24.3101 19.0379 24.3197 19.0383Z" fill="#D6615D"/>
  <path d="M25.0971 18.7238C25.1174 18.7248 25.1385 18.7203 25.1578 18.7097C25.2107 18.6803 25.2293 18.614 25.1989 18.5618C25.1939 18.5534 25.0728 18.3487 24.8034 18.2127C24.7495 18.1853 24.6827 18.2064 24.6548 18.2596C24.6269 18.3129 24.6484 18.3781 24.7023 18.4055C24.9106 18.5106 25.0063 18.668 25.007 18.6694C25.0267 18.7024 25.061 18.7217 25.0971 18.7238Z" fill="#D6615D"/>
  <path d="M24.9321 18.5687C24.916 18.7945 24.8924 19.0059 24.8613 19.1973C24.5748 20.922 23.039 24.4257 19.9438 22.6495C19.2015 22.2229 18.6492 21.8015 18.218 21.3409C17.8925 20.9942 17.6349 20.6254 17.4149 20.217C17.3299 20.0593 17.2909 19.8819 17.2352 19.7126C17.2252 19.6828 17.2159 19.6523 17.2066 19.6225C17.2013 19.6053 17.1959 19.5892 17.1905 19.572C17.0355 19.0777 16.918 18.5782 16.8261 18.1021C16.7118 17.5083 16.6389 16.9544 16.5936 16.4987C16.51 15.6609 16.8847 14.8434 17.5771 14.3463C19.4515 12.9995 21.6193 13.1716 23.0772 13.538C24.089 13.7921 24.8202 14.6534 24.891 15.6746C24.9256 16.159 24.9535 16.7112 24.9628 17.2598C24.9696 17.7116 24.9624 18.1628 24.9321 18.5687Z" fill="#FCB38F"/>
  <path d="M18.466 19.5703C18.466 19.5703 18.1462 20.181 17.416 20.2174C17.3514 20.0509 17.2921 19.8823 17.2363 19.713C17.5893 19.7743 18.1294 19.8125 18.466 19.5703Z" fill="#FD8471"/>
  <path d="M18.2184 21.341C17.8929 20.9943 17.6354 20.6255 17.4153 20.2171C17.3303 20.0593 17.2913 19.882 17.2356 19.7127C17.2256 19.6829 17.2163 19.6524 17.207 19.6226C17.2817 19.6257 17.4042 19.6489 17.6046 19.712C17.6046 19.712 18.4349 20.6399 18.2184 21.341Z" fill="#252B3D"/>
  <path d="M23.0733 20.6545C22.9222 21.092 22.5088 21.8801 21.4896 21.7486C20.4679 21.6168 20.2825 20.8246 20.2539 20.291L23.0733 20.6545Z" fill="white"/>
  <path d="M20.8271 18.066C20.8135 18.3089 20.6753 18.4993 20.5177 18.4909C20.3602 18.4824 20.2434 18.2788 20.2569 18.0355C20.2705 17.7926 20.4091 17.6022 20.5663 17.6106C20.7239 17.619 20.8407 17.8231 20.8271 18.066Z" fill="#252B3D"/>
  <path d="M23.9384 18.1636C23.9249 18.4066 23.7866 18.5969 23.6291 18.5885C23.4715 18.5801 23.3547 18.3764 23.3683 18.1331C23.3818 17.8902 23.5201 17.6999 23.6776 17.7083C23.8352 17.7167 23.952 17.9207 23.9384 18.1636Z" fill="#252B3D"/>
  <path d="M19.034 16.7937C19.034 16.7937 20.0586 16.2261 20.9428 16.4666L20.9235 16.9332C20.9235 16.9332 19.6845 16.998 19.1019 17.3272C19.0219 17.1597 18.989 16.9837 19.034 16.7937Z" fill="#252B3D"/>
  <path d="M24.7929 17.0108C24.7929 17.0108 23.8283 16.35 22.9249 16.5064L22.8984 16.9726C22.8984 16.9726 24.1256 17.1531 24.6732 17.5352C24.7693 17.3761 24.8194 17.204 24.7929 17.0108Z" fill="#252B3D"/>
  <path d="M22.1089 19.9519C21.9228 19.9446 21.7413 19.8664 21.7131 19.8538C21.6577 19.8289 21.6331 19.7647 21.6584 19.7104C21.6834 19.6561 21.7492 19.6319 21.8045 19.6568C21.9024 19.7002 22.1393 19.7721 22.2454 19.7153C22.2657 19.7044 22.294 19.6823 22.3036 19.6168C22.359 19.2403 22.3054 17.9692 22.305 17.9562C22.3025 17.8963 22.3497 17.8462 22.4108 17.8434C22.4719 17.8409 22.523 17.8872 22.5258 17.9471C22.528 18.0001 22.5808 19.2515 22.5226 19.6476C22.5008 19.7966 22.4176 19.8702 22.3515 19.9056C22.2786 19.9439 22.1932 19.9551 22.1089 19.9519Z" fill="#FD8471"/>
  <path d="M17.4372 17.3867C17.4372 17.3867 16.6002 16.5485 16.1751 17.3867C15.75 18.2252 16.6099 20.3306 18.0928 19.7235L17.4372 17.3867Z" fill="#FCB38F"/>
  <path d="M17.6473 19.0118C17.5994 19.0181 17.5512 18.9925 17.5312 18.947C17.2358 18.2711 16.4563 18.0832 16.4484 18.0811C16.3891 18.0674 16.3523 18.0089 16.3662 17.9507C16.3802 17.8925 16.4395 17.8564 16.4988 17.8701C16.5352 17.8785 17.3937 18.0832 17.7338 18.8614C17.7577 18.9165 17.732 18.9803 17.6759 19.0038C17.667 19.008 17.6573 19.0104 17.6473 19.0118Z" fill="#FD8471"/>
  <path d="M16.8534 18.7565C16.833 18.7593 16.812 18.7562 16.792 18.7471C16.7369 18.7215 16.713 18.657 16.7391 18.603C16.7434 18.5942 16.848 18.3807 17.106 18.2247C17.1578 18.1932 17.226 18.209 17.2578 18.2601C17.29 18.311 17.2735 18.3776 17.2217 18.4091C17.0224 18.5297 16.9395 18.6938 16.9388 18.6955C16.9223 18.7299 16.8895 18.752 16.8534 18.7565Z" fill="#FD8471"/>
  <path d="M16.6503 17.0165C16.6503 17.0165 17.2941 16.9043 17.6063 17.3649C17.9961 17.9402 18.03 18.3556 18.03 18.3556L18.533 18.3661C18.533 18.3661 18.1361 17.4557 18.2512 16.9085C18.3662 16.3613 18.7938 16.2291 18.6834 15.6476C18.573 15.066 18.8621 14.3288 19.4765 14.2289C20.091 14.129 22.7571 13.9481 23.696 14.3652C24.6348 14.7824 24.4569 15.7482 24.6966 16.1008C24.9363 16.4535 24.9635 17.2804 24.9635 17.2804C25.1107 17.0785 25.191 16.838 25.1957 16.5902C25.2014 16.2908 25.191 15.8316 25.1199 15.2385C24.9863 14.1248 23.3455 12.7976 20.8416 12.7969C18.3376 12.7962 16.8436 13.9562 16.5221 15.1564C16.2006 16.3567 16.6503 17.0165 16.6503 17.0165Z" fill="#252B3D"/>
  <path d="M21.499 18.1614C21.4644 18.7844 20.9196 19.2636 20.2844 19.2296C19.6496 19.1956 19.1612 18.661 19.1959 18.0377C19.2305 17.4148 19.7757 16.9356 20.4105 16.9696C21.0453 17.0039 21.5337 17.5385 21.499 18.1614ZM17.7762 17.6531C17.8065 17.6521 17.8419 17.6496 17.849 17.6507C18.0162 17.6584 18.172 17.6752 18.3045 17.6952C18.4256 17.7117 18.5278 17.7317 18.6025 17.7474C18.6025 17.7422 18.8872 17.8014 19.0062 17.8522C18.9954 17.909 18.9865 17.9676 18.9829 18.0258C18.9419 18.764 19.5202 19.3975 20.2726 19.4378C21.025 19.4788 21.6705 18.9106 21.7116 18.1733C21.7527 17.4351 21.1743 16.8016 20.4219 16.7613C19.8253 16.7291 19.2959 17.0807 19.0826 17.5963C18.9083 17.5606 18.5178 17.4828 18.252 17.441C18.1738 17.4288 18.1063 17.4193 18.0573 17.4148C17.9559 17.406 17.7672 17.3779 17.6172 17.3808C17.6208 17.3885 17.6233 17.3965 17.6268 17.4035L17.7762 17.6531Z" fill="white"/>
  <path d="M24.0004 19.6382C23.2484 19.5979 22.6696 18.9644 22.7111 18.2262C22.7522 17.4879 23.3977 16.9204 24.1501 16.961C24.9021 17.0014 25.4805 17.6348 25.4394 18.3731C25.3983 19.111 24.7527 19.6785 24.0004 19.6382ZM24.1383 17.1696C23.5035 17.1356 22.9587 17.6145 22.9236 18.2378C22.889 18.8607 23.377 19.3953 24.0122 19.4296C24.647 19.4636 25.1918 18.9848 25.2268 18.3615C25.2615 17.7386 24.7731 17.2036 24.1383 17.1696Z" fill="white"/>
  <path d="M22.8026 17.9288C22.8005 17.9256 22.5665 17.5765 22.2342 17.5586C21.9056 17.5411 21.6584 17.8632 21.6559 17.8664L21.4844 17.7426C21.4972 17.7255 21.8009 17.3258 22.246 17.3497C22.6879 17.3735 22.9702 17.7977 22.982 17.8155L22.8026 17.9288Z" fill="white"/>
  <path d="M35.0093 34.6946L23.9893 40.9379L16.6426 36.7758L27.5954 30.4946L35.0093 34.6946Z" fill="#6B749B"/>
  <mask id="mask0_7947_17741" style="mask-type:luminance" maskUnits="userSpaceOnUse" x="18" y="25" width="16" height="15">
    <path d="M18.5573 36.7704L23.9942 39.8503L33.0954 34.6941L32.8968 27.1299L28.0468 25.4458L18.3047 30.4706L18.5573 36.7704Z" fill="white"/>
  </mask>
  <g mask="url(#mask0_7947_17741)">
    <path d="M33.0948 34.694L27.6025 31.5825L18.5566 36.7703L23.9936 39.8503L33.0948 34.694Z" fill="#252B3D"/>
  </g>
  <mask id="mask1_7947_17741" style="mask-type:luminance" maskUnits="userSpaceOnUse" x="18" y="25" width="16" height="15">
    <path d="M18.5573 36.7704L23.9942 39.8503L33.0954 34.6941L32.8968 27.1299L28.0468 25.4458L18.3047 30.4706L18.5573 36.7704Z" fill="white"/>
  </mask>
  <g mask="url(#mask1_7947_17741)">
    <path d="M27.8082 31.6901L27.8246 36.9551C27.8246 37.0077 27.7964 37.056 27.75 37.0823L21.5403 40.6001L21.192 40.7975L21.2824 41.3962L20.5182 41.1291L20.4989 41.1224C20.4471 41.1007 20.4082 41.0506 20.4082 40.9875L20.4143 35.2107C20.4143 35.188 20.42 35.1659 20.43 35.1459C20.4429 35.1203 20.4629 35.0986 20.4889 35.0838L27.5821 31.056C27.6217 31.0336 27.6653 31.0311 27.7035 31.0437C27.7067 31.0448 27.71 31.0458 27.7128 31.0469L28.5116 31.328L27.8082 31.6901Z" fill="#E5E5E5"/>
    <path d="M21.192 40.7981L21.2824 41.3968L20.5182 41.1297L20.4989 41.123C20.4471 41.1013 20.4082 41.0512 20.4082 40.9881L20.4143 35.2113C20.4143 35.1886 20.42 35.1665 20.43 35.1465L21.4442 35.4865L21.54 40.6007L21.192 40.7981Z" fill="#C6C6C6"/>
    <path d="M28.6075 37.2284C28.6075 37.281 28.5793 37.3297 28.5328 37.3557L21.4154 41.3877C21.3157 41.4441 21.1914 41.3737 21.1914 41.2608L21.1918 40.8486L21.1921 40.5173L21.1975 35.5061V35.4837C21.1975 35.4315 21.2261 35.3831 21.2721 35.3572L21.2825 35.3512L28.3653 31.329C28.4135 31.3016 28.4674 31.3041 28.5103 31.3265C28.556 31.3504 28.5889 31.397 28.5893 31.4552L28.5896 31.5305L28.6036 36.0092L28.6043 36.1908L28.6075 37.2284Z" fill="white"/>
    <path d="M24.0201 36.3256L21.1953 40.8495L21.1957 40.5182L23.87 36.2352C23.8954 36.1945 23.9497 36.1815 23.9911 36.2068C24.0322 36.2316 24.0454 36.2846 24.0201 36.3256Z" fill="#E5E5E5"/>
    <path d="M28.6078 36.1927L26.1195 35.404C26.0735 35.3893 26.0481 35.3405 26.0627 35.2953C26.0777 35.2498 26.1274 35.2249 26.1735 35.2396L28.6067 36.0112L28.6078 36.1927Z" fill="#E5E5E5"/>
    <path d="M28.5878 31.5315L25.299 36.7986L21.1953 35.5068V35.4843C21.1953 35.4321 21.2239 35.3837 21.27 35.3578L21.2803 35.3518L25.2211 36.5924L28.5081 31.3271C28.5539 31.351 28.5867 31.3976 28.5871 31.4558L28.5878 31.5315Z" fill="#E5E5E5"/>
  </g>
  <mask id="mask2_7947_17741" style="mask-type:luminance" maskUnits="userSpaceOnUse" x="18" y="25" width="16" height="15">
    <path d="M18.5573 36.7704L23.9942 39.8503L33.0954 34.6941L32.8968 27.1299L28.0468 25.4458L18.3047 30.4706L18.5573 36.7704Z" fill="white"/>
  </mask>
  <g mask="url(#mask2_7947_17741)">
    <path d="M31.0305 32.7752L31.0469 38.0402C31.0469 38.0928 31.0187 38.1411 30.9723 38.1674L24.7626 41.6852L24.4143 41.8826L24.5047 42.4813L23.7405 42.2142L23.7212 42.2075C23.6694 42.1858 23.6305 42.1357 23.6309 42.0729L23.6369 36.2962C23.6369 36.2734 23.6427 36.2513 23.6523 36.2313C23.6652 36.2057 23.6852 36.184 23.7112 36.1693L30.8047 32.1414C30.8444 32.119 30.888 32.1166 30.9262 32.1292C30.9294 32.1302 30.9326 32.1313 30.9355 32.1323L31.7343 32.4135L31.0305 32.7752Z" fill="#E5E5E5"/>
    <path d="M24.4143 41.8832L24.5047 42.4819L23.7405 42.2148L23.7212 42.2081C23.6694 42.1864 23.6305 42.1363 23.6309 42.0735L23.6369 36.2968C23.6369 36.274 23.6427 36.2519 23.6523 36.2319L24.6669 36.572L24.7626 41.6862L24.4143 41.8832Z" fill="#C6C6C6"/>
    <path d="M31.8301 38.3139C31.8301 38.3664 31.8019 38.4152 31.7555 38.4411L24.6381 42.4732C24.5384 42.5296 24.4141 42.4591 24.4141 42.3463L24.4144 41.934L24.4148 41.6027L24.4201 36.5916V36.5692C24.4201 36.5169 24.4487 36.4686 24.4948 36.4426L24.5052 36.4367L31.5879 32.4144C31.6362 32.3871 31.6901 32.3895 31.733 32.412C31.7787 32.4358 31.8119 32.4824 31.8119 32.5406L31.8123 32.616L31.8262 37.0946L31.8269 37.2762L31.8301 38.3139Z" fill="white"/>
    <path d="M27.2369 37.4101L24.4121 41.9339L24.4125 41.6027L27.0868 37.3196C27.1122 37.279 27.1665 37.266 27.2079 37.2912C27.249 37.3161 27.2622 37.3691 27.2369 37.4101Z" fill="#E5E5E5"/>
    <path d="M31.8247 37.2762L29.3365 36.4875C29.2904 36.4728 29.2647 36.424 29.2797 36.3788C29.2943 36.3332 29.3443 36.3084 29.3904 36.3231L31.8236 37.0946L31.8247 37.2762Z" fill="#E5E5E5"/>
    <path d="M31.8105 32.617L28.5217 37.884L24.418 36.5922V36.5698C24.418 36.5176 24.4465 36.4692 24.4926 36.4432L24.503 36.4373L28.4438 37.6779L31.7308 32.4126C31.7765 32.4364 31.8098 32.4831 31.8098 32.5412L31.8105 32.617Z" fill="#E5E5E5"/>
  </g>
  <path d="M35.0083 34.6948V47.1811L23.9883 53.4245V40.9381L35.0083 34.6948Z" fill="#3A4059"/>
  <path d="M32.0439 44.0744L32.0782 45.6312L28.1706 47.7713L28.1435 46.5377L29.8619 43.5818C30.1877 43.016 30.2316 42.7594 30.227 42.5554C30.2205 42.2662 30.0566 42.1754 29.7429 42.3472C29.4503 42.5074 29.1759 42.8555 29.0377 43.293L27.7812 43.2148C28.1185 42.2035 28.8098 41.2566 29.8615 40.6807C31.0179 40.0472 31.8489 40.3326 31.8735 41.4642C31.8864 42.0513 31.7728 42.6473 31.0793 43.8192L30.3999 44.9749L32.0439 44.0744Z" fill="#51557C"/>
  <path d="M23.9893 53.4243L16.6426 49.1763V36.7759L23.9893 40.938V53.4243Z" fill="#252B3D"/>
  <path d="M12.4047 40.0294C13.4325 39.886 14.5889 39.4716 15.6045 39.2543C15.5803 39.1319 15.556 39.0005 15.5327 38.8613C15.5242 38.8129 15.5163 38.7628 15.5077 38.712C15.4981 38.6482 15.4877 38.5837 15.4784 38.5174C14.884 34.5955 14.5107 25.5474 14.5107 25.5474C14.5107 25.5474 11.7098 26.7883 11.2858 30.1056C11.0039 32.319 11.9063 37.5566 12.4047 40.0294Z" fill="#D5243A"/>
  <path d="M12.3984 40.0308C12.666 42.5547 19.2133 49.2902 21.5318 50.8281L22.1966 48.0738C17.5188 41.9679 15.9316 39.4348 15.5822 38.8508C15.5261 38.7565 15.5018 38.7134 15.5018 38.7134L14.0268 39.3398L12.3984 40.0308Z" fill="#D5243A"/>
  <path d="M14.0029 39.3136C14.009 39.3231 14.0158 39.3315 14.0229 39.3392C14.0333 39.3494 14.0447 39.3588 14.0569 39.3665C14.1129 39.4012 14.1876 39.4037 14.248 39.3658C14.6752 39.0959 15.14 38.9455 15.523 38.8624C15.5419 38.8582 15.5601 38.854 15.5784 38.8505C15.5223 38.7562 15.498 38.7131 15.498 38.7131C15.4883 38.6493 15.478 38.5848 15.4687 38.5186C15.0493 38.6069 14.5363 38.7717 14.0569 39.0738C13.9743 39.1261 13.9493 39.2333 14.0029 39.3136Z" fill="#B11118"/>
  <path d="M22.1989 48.0737C22.1989 48.0737 23.7511 48.2469 23.8604 48.8201V49.7963V52.0753C23.8604 52.0753 22.8101 52.5058 21.5337 50.8284C21.3133 49.8013 21.5783 48.8937 22.1989 48.0737Z" fill="#FCB38F"/>
  <path d="M23.8486 48.1657C23.8486 48.1657 25.9331 48.4338 25.7095 48.9688C25.6323 49.1532 24.0268 49.1444 24.0268 49.1444L24.0543 49.3993C24.0543 49.3993 25.7898 49.5405 26.0067 50.0075C26.2235 50.4744 24.1411 50.202 24.1411 50.202L24.1762 50.5249C24.1762 50.5249 25.5551 50.6167 25.7827 51.01C26.0099 51.4034 24.02 51.2845 24.02 51.2845L24.0472 51.5355C24.0472 51.5355 24.8514 51.6919 25.1318 52.0613C25.4122 52.4312 24.0318 52.2619 23.4727 52.0484C22.9136 51.8349 23.0298 51.4244 23.1016 51.2355C23.1016 51.2355 22.8326 50.5561 23.1702 50.1764C23.1702 50.1764 22.834 49.6313 23.2091 49.2566C23.2091 49.2566 22.824 48.1155 23.8486 48.1657Z" fill="#FCB38F"/>
  <path d="M22.1948 48.0739C22.1948 48.0739 22.4309 47.6887 22.5756 47.2852C22.7203 46.8817 23.0754 46.352 23.2093 46.6416C23.3758 47.0016 23.2544 47.3848 23.2204 47.7325C23.1425 48.5283 23.428 48.3922 23.3672 48.6488C23.3062 48.9047 22.1476 48.5573 22.1948 48.0739Z" fill="#FCB38F"/>
  <path d="M35.1827 40.3262C35.1827 40.3262 33.1014 40.6178 33.3314 41.1503C33.4107 41.334 35.0162 41.3067 35.0162 41.3067L34.9916 41.5619C34.9916 41.5619 33.2578 41.7228 33.0464 42.1921C32.8349 42.6615 34.914 42.3657 34.914 42.3657L34.883 42.6889C34.883 42.6889 33.5051 42.7962 33.2821 43.1923C33.0596 43.5881 35.0477 43.4468 35.0477 43.4468L35.0234 43.6981C35.0234 43.6981 34.221 43.8636 33.9452 44.2362C33.6694 44.6089 35.0476 44.4245 35.6039 44.2043C36.1605 43.9845 36.0394 43.5754 35.9654 43.3872C35.9654 43.3872 36.2266 42.705 35.8843 42.3292C35.8843 42.3292 36.2141 41.7803 35.8347 41.4101C35.8347 41.4101 36.2066 40.2641 35.1827 40.3262Z" fill="#FCB38F"/>
  <path d="M35.636 40.5579C35.6199 40.7987 35.3141 40.9586 35.0098 41.0266V38.9243C35.1655 38.9853 35.3316 39.3972 35.3902 39.7183C35.466 40.14 35.636 40.5579 35.636 40.5579Z" fill="#FCB38F"/>
  <path d="M124.734 147.827C131.571 147.827 137.114 146.623 137.114 145.137C137.114 143.651 131.571 142.446 124.734 142.446C117.896 142.446 112.354 143.651 112.354 145.137C112.354 146.623 117.896 147.827 124.734 147.827Z" fill="#E3E3E3"/>
  <path d="M121.274 83.8513C122.145 83.9544 123.661 84.2439 124.538 84.2485C127.452 84.2632 128.083 84.7 130.962 84.2485C131.797 84.1177 132.597 84.4967 133.531 83.7984C133.102 82.6966 132.137 75.6354 131.832 74.5589C131.298 72.6799 130.616 70.2338 130.616 70.2338C130.616 70.2338 121.782 69.3735 121.351 71.0849C120.919 72.7963 121.147 75.6453 121.441 77.5477C121.506 77.9659 121.38 83.5425 121.274 83.8513Z" fill="#252B3D"/>
  <path d="M131.922 140.531C132.263 140.641 132.508 140.943 132.561 141.297C132.608 141.607 132.645 142.051 132.627 142.639C132.586 143.95 132.569 144.485 132.569 144.485C132.569 144.485 132.166 145.177 131.006 145.365L130.665 145.412C130.665 145.412 128.04 146.961 126.814 147.079C125.215 147.235 123.58 146.513 124.903 144.986C126.152 143.544 127.989 142.966 128.532 141.811C128.595 141.677 129.005 141.389 129.11 141.283C129.996 140.384 130.678 140.129 131.922 140.531Z" fill="#FF4A67"/>
  <path d="M129.248 143.303C129.19 143.303 129.135 143.27 129.111 143.215C129.109 143.21 128.907 142.76 128.53 142.637C128.169 142.519 127.781 142.828 127.777 142.83C127.714 142.882 127.62 142.873 127.568 142.811C127.515 142.749 127.524 142.657 127.587 142.605C127.608 142.588 128.104 142.189 128.624 142.36C129.129 142.525 129.375 143.076 129.385 143.099C129.418 143.174 129.383 143.259 129.307 143.291C129.288 143.3 129.268 143.303 129.248 143.303Z" fill="white"/>
  <path d="M128.723 143.668C128.665 143.668 128.61 143.635 128.586 143.58C128.584 143.575 128.381 143.125 128.004 143.002C127.643 142.884 127.256 143.193 127.252 143.196C127.188 143.247 127.095 143.238 127.042 143.177C126.99 143.115 126.998 143.023 127.061 142.971C127.082 142.954 127.579 142.555 128.099 142.725C128.604 142.89 128.85 143.441 128.86 143.464C128.892 143.539 128.857 143.625 128.782 143.656C128.762 143.665 128.742 143.668 128.723 143.668Z" fill="white"/>
  <path d="M128.129 143.997C128.071 143.997 128.016 143.964 127.992 143.908C127.99 143.904 127.787 143.454 127.411 143.331C127.05 143.212 126.662 143.521 126.658 143.524C126.595 143.576 126.501 143.567 126.448 143.505C126.396 143.443 126.405 143.351 126.468 143.299C126.488 143.282 126.985 142.883 127.505 143.053C128.01 143.218 128.256 143.769 128.266 143.793C128.299 143.867 128.264 143.953 128.188 143.985C128.169 143.993 128.149 143.997 128.129 143.997Z" fill="white"/>
  <path d="M122.693 140.574C123.034 140.684 123.279 140.986 123.332 141.341C123.379 141.65 123.416 142.094 123.398 142.682C123.357 143.994 123.34 144.546 123.34 144.546C123.34 144.546 122.937 145.221 121.777 145.409L121.333 145.479C121.333 145.479 118.811 147.004 117.585 147.123C115.986 147.278 114.351 146.557 115.674 145.03C116.923 143.588 118.761 143.01 119.303 141.855C119.367 141.72 119.776 141.433 119.881 141.327C120.767 140.427 121.449 140.172 122.693 140.574Z" fill="#FF4A67"/>
  <path d="M119.961 143.376C119.903 143.376 119.848 143.343 119.824 143.288C119.822 143.283 119.619 142.833 119.243 142.71C118.882 142.592 118.494 142.901 118.49 142.904C118.427 142.955 118.333 142.946 118.28 142.884C118.228 142.822 118.237 142.73 118.3 142.678C118.32 142.661 118.817 142.262 119.337 142.432C119.842 142.597 120.088 143.148 120.098 143.172C120.131 143.246 120.096 143.332 120.02 143.364C120 143.372 119.981 143.376 119.961 143.376Z" fill="white"/>
  <path d="M119.434 143.743C119.376 143.743 119.321 143.709 119.296 143.654C119.295 143.65 119.092 143.2 118.715 143.077C118.354 142.958 117.967 143.267 117.963 143.27C117.899 143.321 117.806 143.312 117.753 143.25C117.701 143.188 117.709 143.097 117.772 143.045C117.793 143.028 118.29 142.629 118.81 142.799C119.315 142.964 119.561 143.515 119.571 143.539C119.603 143.613 119.568 143.699 119.493 143.731C119.473 143.739 119.453 143.743 119.434 143.743Z" fill="white"/>
  <path d="M118.842 144.07C118.784 144.07 118.729 144.036 118.705 143.981C118.703 143.977 118.5 143.527 118.123 143.404C117.763 143.285 117.375 143.594 117.371 143.597C117.307 143.648 117.213 143.639 117.161 143.577C117.109 143.515 117.117 143.423 117.181 143.372C117.201 143.354 117.698 142.956 118.218 143.126C118.723 143.291 118.969 143.842 118.979 143.865C119.012 143.94 118.977 144.025 118.901 144.057C118.881 144.065 118.861 144.07 118.842 144.07Z" fill="white"/>
  <path d="M132.368 102.952L119.842 102.586C119.055 106.918 117.226 116.598 117.828 120.731C118.798 127.389 120.356 141.372 120.356 141.372C121.421 141.6 121.676 141.624 122.747 141.232C122.747 141.232 123.726 126.026 122.607 121.343C121.933 118.521 124.028 113.252 124.869 109.083C124.869 109.083 125.129 108.217 125.574 108.217C125.863 108.217 126.032 108.632 126.114 108.922C126.421 112.757 126.817 117.355 127.169 120.283C127.865 126.074 129.827 141.602 129.827 141.602C130.892 141.831 130.935 141.923 132.006 141.532C132.006 141.532 132.816 123.803 132.158 120.437C131.114 115.096 132.289 106.842 132.368 102.952Z" fill="#FCB38F"/>
  <path d="M117.717 118.137C119.001 118.547 120.425 118.569 121.936 118.341C122.033 118.327 122.132 118.31 122.229 118.294C122.493 118.249 122.76 118.196 123.027 118.138C123.283 115.436 124.266 112.079 124.869 109.084C124.869 109.084 125.13 108.217 125.573 108.217C125.863 108.217 126.031 108.632 126.113 108.922C126.355 111.917 126.647 115.371 126.932 118.137C128.568 118.511 130.035 118.586 131.333 118.352C131.426 118.335 131.52 118.318 131.611 118.299C131.822 118.251 132.026 118.199 132.228 118.137C131.651 112.968 132.299 106.396 132.367 102.953L119.842 102.587C119.192 106.167 117.83 113.4 117.717 118.137Z" fill="#252B3D"/>
  <path d="M121.938 118.341C122.034 118.327 122.134 118.31 122.23 118.294C122.699 114.672 124.08 108.819 124.094 108.752C124.114 108.677 124.066 108.602 123.989 108.585C123.915 108.568 123.839 108.613 123.822 108.688C123.753 108.97 122.392 114.741 121.938 118.341Z" fill="#6B749B"/>
  <path d="M131.115 117.17C131.16 117.443 131.205 117.744 131.333 118.352C131.427 118.335 131.521 118.319 131.612 118.299C131.487 117.711 131.438 117.401 131.393 117.125C131.151 115.673 131.353 107.604 131.353 107.523C131.356 107.447 131.294 107.383 131.217 107.38C131.137 107.378 131.075 107.439 131.072 107.517C131.064 107.849 130.867 115.692 131.115 117.17Z" fill="#6B749B"/>
  <path d="M132.161 117.138C132.553 117.371 132.551 118.254 132.473 118.713C132.473 118.713 129.048 119.578 126.894 118.811C126.671 118.637 126.545 117.868 126.799 117.266C126.799 117.266 130.078 117.676 132.161 117.138Z" fill="#6B749B"/>
  <path d="M123.139 117.211C123.347 117.527 123.3 118.486 123.017 118.763C123.017 118.763 119.811 119.578 117.656 118.812C117.433 118.637 117.325 117.74 117.757 117.139C117.757 117.138 121.055 117.749 123.139 117.211Z" fill="#6B749B"/>
  <path d="M121.817 87.6384C121.196 90.6802 118.486 92.9812 118.486 92.9812L116.162 90.9526C116.308 90.8607 116.472 90.677 116.651 90.4218C116.71 90.3387 116.77 90.2479 116.832 90.1498C118.455 87.5525 120.997 80.0308 120.997 80.0308C120.997 80.0308 122.438 84.5967 121.817 87.6384Z" fill="#D5243A"/>
  <path d="M118.766 92.5197C118.766 92.5197 118.242 93.9598 116.294 93.7348C114.347 93.5097 109.57 87.9966 109.57 87.9966C110.219 87.9959 110.763 87.8374 111.638 87.5317C111.638 87.5317 113.823 89.6351 115.957 90.1479C118.092 90.6611 118.766 92.5197 118.766 92.5197Z" fill="#D5243A"/>
  <path d="M117.909 91.789C117.887 91.7985 117.864 91.8034 117.841 91.8034C117.779 91.8034 117.72 91.7687 117.692 91.7091C117.412 91.1114 116.952 90.6669 116.65 90.4205C116.709 90.3374 116.769 90.2466 116.831 90.1484C117.158 90.4103 117.673 90.899 117.99 91.5748C118.028 91.6562 117.992 91.7522 117.909 91.789Z" fill="#B11118"/>
  <path d="M106.77 82.4046L107.144 82.2446L107.059 82.4832L106.77 82.4046Z" fill="#252B3D"/>
  <path d="M110.12 82.6469L112.657 86.7999C112.821 87.0663 112.687 87.3696 112.416 87.3415L111.478 87.242L109.863 87.0719C109.741 87.0583 109.621 86.9766 109.547 86.8567L107.036 82.7707C106.875 82.5078 107.002 82.2056 107.268 82.2266L109.795 82.4306C109.921 82.4401 110.044 82.5232 110.12 82.6469Z" fill="#252B3D"/>
  <path d="M112.572 87.3189L112.273 87.4973L112.139 87.3543L112.525 87.1387L112.572 87.3189Z" fill="#252B3D"/>
  <path d="M106.696 82.9192L109.224 87.034C109.299 87.1553 109.419 87.2377 109.541 87.251L112.101 87.5304C112.371 87.5598 112.505 87.2552 112.34 86.9863L109.785 82.805C109.709 82.6802 109.584 82.5967 109.46 82.5862L106.926 82.3738C106.66 82.351 106.532 82.6539 106.696 82.9192Z" fill="#51557C"/>
  <path d="M109.673 85.0003C109.858 85.3021 109.887 85.619 109.737 85.7077C109.587 85.7964 109.314 85.624 109.129 85.3221C108.944 85.0203 108.915 84.7034 109.065 84.6147C109.215 84.5257 109.487 84.6985 109.673 85.0003Z" fill="#252B3D"/>
  <path d="M107.364 84.343C107.364 84.344 107.365 84.3447 107.364 84.343C107.347 84.3002 107.11 83.6822 107.334 83.5675C107.419 83.5244 107.539 83.638 107.659 83.7996C107.659 83.7996 107.659 83.7996 107.66 83.8003C107.837 84.038 108.01 84.3791 108.063 84.486L108.064 84.4884C108.066 84.4923 108.068 84.4962 108.07 84.499C108.065 84.4874 108.059 84.472 108.051 84.4527C108.05 84.4502 108.049 84.4471 108.048 84.445C108.039 84.4225 108.028 84.3948 108.016 84.3636C108.015 84.3598 108.014 84.3559 108.012 84.3521C107.89 84.0373 107.665 83.3761 107.85 83.2117C107.982 83.0936 108.282 83.5241 108.529 83.9423C108.724 84.2711 108.884 84.5919 108.904 84.6322C108.9 84.6189 108.886 84.5768 108.868 84.5161C108.866 84.513 108.865 84.5102 108.864 84.5077C108.784 84.2364 108.628 83.6163 108.86 83.468C109.039 83.3548 109.313 83.9251 109.505 84.404V84.4047C109.635 84.7289 109.727 85.0111 109.727 85.0111C109.727 85.0111 109.64 84.1477 109.909 84.173C110.179 84.1982 110.351 85.6554 110.685 86.074C111.02 86.4922 111.673 87.0236 111.644 87.4765C111.629 87.7125 111.204 88.2884 110.092 88.2358C109.693 88.2169 109.322 88.0315 109.066 87.7307C108.287 86.8154 107.462 85.1636 107.365 84.3444" fill="#FCB38F"/>
  <path d="M108.514 85.441C108.49 85.4161 108.098 85.0046 107.98 84.6982C107.857 84.381 107.656 83.7983 107.656 83.7983C107.656 83.7983 107.656 83.7983 107.657 83.799C107.833 84.0367 108.007 84.3778 108.06 84.4847L108.061 84.4872C108.091 84.566 108.344 85.2034 108.514 85.441Z" fill="#FD8471"/>
  <path d="M109.202 85.4347C109.18 85.4014 108.826 84.856 108.681 84.5342C108.583 84.3144 108.543 84.0771 108.527 83.9414C108.722 84.2702 108.882 84.591 108.902 84.6313C108.902 84.6313 109.134 85.2728 109.202 85.4347Z" fill="#FD8471"/>
  <path d="M109.819 85.5852C109.819 85.5852 109.436 84.7926 109.502 84.4038C109.632 84.7281 109.724 85.0103 109.724 85.0103" fill="#FD8471"/>
  <path d="M132.101 105.455C129.458 107.448 119.013 105.091 119.783 102.439C120.266 100.773 121.96 93.5867 121.71 91.3572C121.456 89.1316 119.727 87.7728 120.844 85.2688C121.508 83.7804 121.453 82.3151 121.061 80.9504C120.74 79.8356 121.145 79.3407 122.287 79.1805C122.792 79.1096 123.66 79.0805 124.421 79.1917C126.034 79.4216 127.869 79.7193 129.435 80.0565C130.612 80.3103 131.642 80.5883 132.3 80.874C135.071 82.076 131.274 87.7974 130.687 91.1378C130.1 94.4824 133.508 104.395 132.101 105.455Z" fill="#FF4A67"/>
  <path d="M126.372 91.4852C123.428 91.4852 121.851 90.6579 121.773 90.6158C121.693 90.5731 121.664 90.4753 121.708 90.3971C121.751 90.3193 121.851 90.2905 121.93 90.3333C121.952 90.3452 124.178 91.5059 128.218 91.0579C128.308 91.0477 128.39 91.1115 128.4 91.1999C128.41 91.2882 128.345 91.3681 128.255 91.378C127.576 91.4533 126.948 91.4852 126.372 91.4852Z" fill="#D5243A"/>
  <path d="M125.674 85.6437C125.659 85.6437 125.643 85.6416 125.626 85.6367C123.786 85.0874 123.37 83.8489 123.353 83.7963C123.326 83.7115 123.374 83.621 123.461 83.5944C123.547 83.5677 123.639 83.6147 123.667 83.6992C123.682 83.7462 124.057 84.8315 125.722 85.3286C125.809 85.3545 125.858 85.4446 125.831 85.5294C125.81 85.5988 125.745 85.6437 125.674 85.6437Z" fill="#D5243A"/>
  <path d="M127.771 102.6C123.726 102.6 121.439 100.416 121.343 100.323C121.279 100.261 121.279 100.159 121.342 100.096C121.406 100.033 121.51 100.032 121.575 100.095C121.597 100.117 123.868 102.278 127.771 102.278C127.861 102.276 127.936 102.35 127.936 102.439C127.936 102.528 127.862 102.6 127.772 102.6H127.771Z" fill="#D5243A"/>
  <path d="M127.299 101.856C127.297 101.856 127.296 101.856 127.295 101.856C125.787 101.82 123.887 100.625 123.807 100.574C123.731 100.526 123.71 100.427 123.759 100.352C123.808 100.277 123.91 100.256 123.986 100.304C124.005 100.316 125.888 101.501 127.303 101.534C127.393 101.536 127.465 101.61 127.463 101.699C127.461 101.787 127.388 101.856 127.299 101.856Z" fill="#D5243A"/>
  <path d="M128.179 77.122C128.179 77.122 130.346 76.3395 130.778 74.1584C131.21 71.9772 131.084 68.7732 128.05 67.8313C125.015 66.8893 122.211 67.7931 121.535 70.5403C121.535 70.5403 123.863 76.0118 128.179 77.122Z" fill="#252B3D"/>
  <path d="M124.783 78.166L124.948 79.6758L125.04 80.5585C126.795 81.2999 128.592 80.1894 128.573 80.033C128.381 79.3635 128.235 78.2151 128.187 77.1238C128.156 77.1028 128.123 77.0852 128.087 77.0716C127.162 76.6765 124.783 78.166 124.783 78.166Z" fill="#FCB38F"/>
  <path d="M124.783 78.166L124.948 79.6758C126.701 79.0673 127.66 77.7997 128.087 77.0716C127.162 76.6765 124.783 78.166 124.783 78.166Z" fill="#FD8471"/>
  <path d="M122.38 73.4059C122.38 73.4059 121.696 72.6098 121.263 73.3235C120.83 74.0373 121.616 76.0312 122.744 75.471L122.38 73.4059Z" fill="#FD8471"/>
  <path d="M122.045 75.1444C122.032 75.2233 121.956 75.2766 121.875 75.2636C121.795 75.2503 121.741 75.1756 121.754 75.0967C121.768 75.0178 121.844 74.9646 121.924 74.9775C122.005 74.9909 122.059 75.0655 122.045 75.1444Z" fill="white"/>
  <path d="M122.45 74.8585C122.407 74.861 122.366 74.8354 122.352 74.7937C122.136 74.1767 121.46 73.9594 121.453 73.9573C121.402 73.9411 121.373 73.8872 121.389 73.8367C121.405 73.7862 121.46 73.7581 121.512 73.7739C121.543 73.7837 122.289 74.0211 122.537 74.7316C122.555 74.7818 122.528 74.8364 122.477 74.8536C122.468 74.8564 122.459 74.8582 122.45 74.8585Z" fill="#D6615D"/>
  <path d="M121.773 74.5791C121.755 74.5801 121.736 74.5763 121.72 74.5668C121.672 74.5405 121.656 74.482 121.683 74.4357C121.687 74.428 121.794 74.2464 122.033 74.1251C122.081 74.1005 122.14 74.1191 122.165 74.1665C122.19 74.2134 122.171 74.2716 122.123 74.2958C121.938 74.3894 121.854 74.5293 121.853 74.5307C121.836 74.5601 121.805 74.5773 121.773 74.5791Z" fill="#D6615D"/>
  <path d="M121.518 74.3881C121.534 74.6121 121.558 74.8217 121.59 75.0114C121.878 76.7217 123.41 80.1943 126.476 78.425C127.212 78.0002 127.758 77.5806 128.185 77.1231C128.507 76.7785 128.762 76.4118 128.979 76.0062C129.063 75.8495 129.101 75.6736 129.156 75.5053C129.166 75.4759 129.175 75.4454 129.184 75.4159C129.19 75.3991 129.195 75.383 129.2 75.3658C129.353 74.875 129.468 74.3793 129.558 73.9068C129.67 73.3172 129.741 72.7678 129.785 72.3156C129.866 71.4845 129.492 70.6743 128.804 70.1825C126.941 68.8504 124.791 69.0264 123.346 69.3931C122.343 69.6472 121.619 70.5036 121.551 71.5167C121.518 71.9973 121.492 72.5452 121.484 73.0893C121.479 73.538 121.487 73.9857 121.518 74.3881Z" fill="#FCB38F"/>
  <path d="M122.804 72.7477C122.801 72.6594 122.725 72.5907 122.635 72.5939C122.395 72.6019 122.094 72.6331 121.82 72.725C121.249 72.9164 121.172 73.0759 121.172 73.0759C121.172 73.0759 121.243 73.1421 121.99 72.9928C122.182 72.9546 122.437 72.9391 122.657 72.9185C122.743 72.9104 122.807 72.8364 122.804 72.7512C122.804 72.7498 122.804 72.7488 122.804 72.7477Z" fill="#252B3D"/>
  <path d="M124.889 72.6349C124.872 72.5304 124.946 72.4326 125.052 72.4158C125.336 72.3709 125.697 72.3401 126.039 72.386C126.754 72.482 126.882 72.6517 126.882 72.6517C126.882 72.6517 126.814 72.7453 125.902 72.739C125.668 72.7372 125.365 72.7765 125.102 72.8017C124.999 72.8115 124.906 72.7393 124.89 72.6387C124.89 72.637 124.89 72.6359 124.889 72.6349Z" fill="#252B3D"/>
  <path d="M124.395 75.7073C124.386 75.7059 124.378 75.7035 124.369 75.7003L123.729 75.456L123.989 73.9286C124.001 73.8585 124.069 73.8112 124.14 73.8231C124.212 73.8347 124.26 73.9013 124.248 73.9714L124.023 75.2923L124.464 75.4606C124.532 75.4861 124.565 75.5608 124.539 75.6271C124.516 75.6849 124.455 75.7172 124.395 75.7073Z" fill="#FD8471"/>
  <path d="M127.939 75.3672C127.939 75.3672 128.258 75.9722 128.983 76.0066C129.047 75.8415 129.105 75.6739 129.16 75.5057C128.81 75.5674 128.274 75.607 127.939 75.3672Z" fill="#FD8471"/>
  <path d="M128.187 77.1227C128.509 76.7781 128.763 76.4114 128.981 76.0059C129.065 75.8492 129.103 75.6732 129.158 75.5049C129.168 75.4755 129.177 75.445 129.186 75.4155C129.112 75.4187 128.99 75.4422 128.792 75.5049C128.792 75.5049 127.97 76.4276 128.187 77.1227Z" fill="#252B3D"/>
  <path d="M123.369 76.453C123.52 76.8869 123.932 77.6673 124.943 77.5348C125.956 77.4019 126.138 76.6153 126.165 76.0859L123.369 76.453Z" fill="white"/>
  <path d="M125.37 73.9608C125.384 74.202 125.522 74.3902 125.678 74.3815C125.835 74.3727 125.95 74.1704 125.936 73.9293C125.922 73.6881 125.784 73.4998 125.628 73.5086C125.472 73.5174 125.356 73.7196 125.37 73.9608Z" fill="#252B3D"/>
  <path d="M122.193 74.1405C122.207 74.3816 122.344 74.5699 122.501 74.5615C122.657 74.5527 122.772 74.3505 122.758 74.1093C122.744 73.8681 122.606 73.6798 122.45 73.6883C122.294 73.697 122.178 73.8993 122.193 74.1405Z" fill="#252B3D"/>
  <path d="M128.845 73.5672C128.845 73.5672 129.545 72.8629 129.903 73.5647C130.261 74.2669 129.549 76.0077 128.305 75.5018L128.845 73.5672Z" fill="#FCB38F"/>
  <path d="M129.112 75.3749C129.098 75.4537 129.022 75.507 128.942 75.494C128.861 75.4807 128.807 75.4061 128.82 75.3272C128.834 75.2483 128.91 75.195 128.99 75.208C129.071 75.221 129.125 75.2956 129.112 75.3749Z" fill="white"/>
  <path d="M128.67 74.9295C128.71 74.9348 128.751 74.9134 128.767 74.8752C129.014 74.3083 129.667 74.1488 129.673 74.1474C129.723 74.1358 129.754 74.0868 129.742 74.038C129.73 73.9893 129.68 73.9592 129.631 73.9707C129.6 73.9777 128.881 74.1513 128.597 74.804C128.577 74.8503 128.599 74.9035 128.646 74.9232C128.654 74.9263 128.662 74.9284 128.67 74.9295Z" fill="#FD8471"/>
  <path d="M129.338 74.7134C129.355 74.7155 129.373 74.7131 129.39 74.7054C129.436 74.684 129.455 74.6296 129.434 74.5844C129.43 74.5771 129.342 74.3983 129.125 74.2679C129.082 74.2416 129.025 74.2549 128.998 74.298C128.971 74.3408 128.985 74.3965 129.028 74.4228C129.196 74.5234 129.266 74.6608 129.266 74.6622C129.28 74.6913 129.308 74.7096 129.338 74.7134Z" fill="#FD8471"/>
  <path d="M129.662 73.2774C129.358 73.227 129.142 73.2462 128.973 73.3223C128.856 73.3752 128.762 73.4548 128.677 73.5568C128.66 73.5775 128.642 73.5996 128.625 73.6227C128.543 73.8201 128.433 73.9323 128.408 73.967C128.274 74.1573 128.074 74.5426 128.014 74.4479C127.854 74.1973 127.96 72.8925 127.902 72.6591C127.812 72.3033 127.417 71.9783 127.417 71.9783C124.326 72.922 121.881 70.3083 121.881 70.3083C122.837 67.4208 128.034 68.7963 129.375 69.495C130.715 70.1936 131.181 73.527 129.662 73.2774Z" fill="#252B3D"/>
  <path d="M122.574 70.5119C122.574 70.5119 122.838 72.5188 121.432 73.2255C121.432 73.2255 120.826 69.1546 122.574 70.5119Z" fill="#252B3D"/>
  <path d="M129.08 101.325C129.08 101.325 127.673 101.593 127.201 101.991C126.729 102.389 125.763 103.106 126.349 103.069C126.425 103.064 126.731 102.946 127.038 102.776C127.345 102.605 127.515 102.549 127.605 102.633C127.787 102.804 126.913 103.647 126.615 104.086C126.317 104.526 125.593 105.325 125.743 105.682C125.892 106.04 126.554 105.078 126.891 104.713C127.228 104.348 127.384 104.089 127.445 104.159C127.505 104.228 125.929 105.801 126.032 106.317C126.136 106.833 127.802 104.683 128.002 104.655C128.203 104.626 126.714 106.07 126.645 106.39C126.577 106.71 127.544 105.974 128.345 105.178C128.345 105.178 128.501 105.177 128.351 105.334C128.201 105.49 127.583 106.045 127.515 106.357C127.447 106.67 128.885 105.46 129.597 104.618C130.309 103.775 130.416 102.616 130.416 102.616C130.416 102.616 129.422 102.057 129.08 101.325Z" fill="#FCB38F"/>
  <path d="M136.893 92.9809C136.893 92.9809 136.34 93.2669 135.58 93.3823C135.122 93.4503 134.588 93.4573 134.053 93.3009L133.992 93.1379L131.213 85.7143C131.213 85.7143 131.327 82.4268 133.02 81.48C133.02 81.48 136.05 87.8604 136.893 92.9809Z" fill="#FF4A67"/>
  <path d="M136.521 96.0961C135.632 98.0161 130.471 102.899 130.471 102.899C129.828 102.646 129.401 102.048 129.051 101.326C129.051 101.326 131.496 98.1461 132.335 96.6198C133.022 95.3694 133.738 93.9399 133.973 93.4652C134.024 93.3604 134.053 93.3019 134.053 93.3019L135.14 93.1788L136.892 92.9814C136.892 92.9814 137.41 94.1761 136.521 96.0961Z" fill="#FF4A67"/>
  <path d="M135.577 93.4502C135.57 93.473 135.559 93.4937 135.544 93.5112C135.503 93.5575 135.438 93.5792 135.374 93.561C134.865 93.4204 134.357 93.4239 133.975 93.4649C134.026 93.3601 134.055 93.3016 134.055 93.3016L133.993 93.1386C134.319 93.107 134.721 93.1028 135.142 93.1789C135.248 93.1981 135.355 93.2216 135.463 93.2514C135.528 93.2697 135.573 93.3229 135.581 93.3832C135.585 93.405 135.584 93.4274 135.577 93.4502Z" fill="#D5243A"/>
  <path d="M109.033 44.939L110.356 47.7795V45.6884L109.033 44.939Z" fill="#FF4A67"/>
  <path d="M110.355 47.7795L111.011 47.4079V46.0594L110.357 45.6885L110.355 47.7795Z" fill="#B11118"/>
  <path d="M116.506 37.8569V47.3008L114.842 48.2434L114.986 38.7246L116.506 37.8569Z" fill="#B11118"/>
  <path d="M106.365 33.8418V43.4427L114.839 48.2432L114.983 38.7243L106.365 33.8418Z" fill="#FF4A67"/>
  <path d="M110.968 42.3707L109.653 41.6286L109.46 37.2656L111.434 38.3786L110.968 42.3707ZM110.222 44.6879C109.652 44.3664 109.275 43.6215 109.296 42.9835C109.317 42.3353 109.728 42.065 110.298 42.3865C110.868 42.7079 111.246 43.4238 111.225 44.0719C111.204 44.7099 110.792 45.0093 110.222 44.6879Z" fill="white"/>
  <path d="M116.503 37.8566L107.885 32.9741L106.365 33.8417L114.983 38.7242L116.503 37.8566Z" fill="#D5243A"/>
  <path d="M135.34 32.792L136.614 35.5288V33.5141L135.34 32.792Z" fill="#FF4A67"/>
  <path d="M136.611 35.5288L137.243 35.1709V33.8717L136.612 33.5142L136.611 35.5288Z" fill="#B11118"/>
  <path d="M139.676 24.3472V33.4457L138.072 34.354L138.211 25.1829L139.676 24.3472Z" fill="#B11118"/>
  <path d="M126.471 18.5327V27.7824L138.071 34.3542L138.21 25.183L126.471 18.5327Z" fill="#FF4A67"/>
  <path d="M134.039 26.1856C133.606 26.1933 133.334 26.7472 133.432 27.4234C133.53 28.0993 133.96 28.6412 134.393 28.6339C134.826 28.6265 135.098 28.0723 135 27.3961C134.902 26.7199 134.472 26.1779 134.039 26.1856Z" fill="white"/>
  <path d="M131.77 24.9991C131.337 25.0065 131.065 25.5607 131.162 26.2369C131.26 26.9131 131.69 27.4547 132.123 27.4474C132.556 27.44 132.828 26.8858 132.731 26.2096C132.633 25.5337 132.203 24.9917 131.77 24.9991Z" fill="white"/>
  <path d="M129.481 23.8111C129.048 23.8188 128.776 24.3727 128.873 25.0489C128.971 25.7248 129.401 26.2667 129.834 26.2594C130.267 26.2517 130.539 25.6978 130.442 25.0216C130.344 24.3457 129.914 23.8037 129.481 23.8111Z" fill="white"/>
  <path d="M139.673 24.3471L127.939 17.6992L126.475 18.5349L138.209 25.1828L139.673 24.3471Z" fill="#D5243A"/>
  <path d="M40.3242 9.25201V28.7434C40.3242 28.83 40.3717 28.911 40.4485 28.9544L64.7366 42.7143C64.7756 42.7364 64.8174 42.7479 64.8599 42.7479C64.9799 42.7479 65.1093 42.6543 65.1093 42.5032V23.0455C65.1093 22.9589 65.0617 22.8783 64.9853 22.8348L40.6968 9.04133C40.6575 9.01889 40.6161 9.00732 40.5732 9.00732C40.4535 9.00732 40.3242 9.10092 40.3242 9.25201Z" fill="#E5E5E5"/>
  <path d="M49.1992 30.2144L50.5246 33.0601V30.9652L49.1992 30.2144Z" fill="#FF4A67"/>
  <path d="M50.5215 33.0597L51.1788 32.6875V31.3364L50.5229 30.9648L50.5215 33.0597Z" fill="#B11118"/>
  <path d="M56.6786 23.1201V32.5805L55.0117 33.5252L55.1564 23.9891L56.6786 23.1201Z" fill="#B11118"/>
  <path d="M46.5234 19.0977V28.7154L55.012 33.5246L55.1567 23.9886L46.5234 19.0977Z" fill="#FF4A67"/>
  <path d="M56.6789 23.1204L48.0457 18.2295L46.5234 19.0985L55.1567 23.9894L56.6789 23.1204Z" fill="#D5243A"/>
  <path d="M48.0335 24.6623C48.011 26.1297 49.2528 28.0637 50.8022 28.9737C52.3512 29.8837 53.6301 29.4301 53.6526 27.9627C53.6751 26.4953 52.4333 24.5613 50.8843 23.6516C49.3346 22.7416 48.056 23.1949 48.0335 24.6623ZM49.5947 26.571C49.5071 26.2278 49.4618 25.8846 49.4589 25.5506L50.7289 26.2965L50.7146 27.229L49.5947 26.571ZM50.2356 28.3641C49.5243 27.7923 48.9241 27.0075 48.5715 26.1858L49.4271 26.6885C49.54 27.0723 49.7001 27.4541 49.9023 27.8232C50.0048 28.0097 50.1166 28.1913 50.2356 28.3641ZM50.7114 27.4428L50.6921 28.6908C50.6078 28.5933 50.341 28.2694 50.0766 27.7853C49.9073 27.4751 49.7701 27.154 49.6683 26.8301L50.7114 27.4428ZM49.7686 24.3594C50.078 23.9065 50.5246 23.7785 50.6671 23.7484C50.7007 23.7656 50.7343 23.7831 50.7679 23.8013L50.7504 24.9357L49.7686 24.3594ZM48.6823 23.7214C49.0506 23.3971 49.6236 23.3456 50.2724 23.577C50.1434 23.6295 50.0219 23.6986 49.9105 23.7831C49.7569 23.8995 49.6261 24.0446 49.5218 24.2146L48.6823 23.7214ZM49.4636 25.3371C49.4818 25.0265 49.5522 24.7513 49.6729 24.5192L50.7464 25.1499L50.7321 26.0824L49.4636 25.3371ZM48.2675 24.6346C48.2954 24.3212 48.3904 24.0607 48.5501 23.8599L49.4332 24.3783C49.3203 24.617 49.2546 24.8947 49.2374 25.2042L48.2675 24.6346ZM49.2331 25.4177C49.2356 25.7497 49.2778 26.0908 49.3596 26.4326L48.4622 25.9053C48.3297 25.5299 48.2614 25.1737 48.2596 24.8456L49.2331 25.4177ZM52.4248 27.2925L53.4247 27.88C53.4129 28.2 53.335 28.4707 53.1936 28.6848L52.2697 28.1422C52.3605 27.901 52.4123 27.6153 52.4248 27.2925ZM50.9761 25.0686L50.9936 23.9342C51.0176 23.9492 51.0415 23.9643 51.0651 23.9801C51.1612 24.1151 51.3948 24.4579 51.626 24.9192C51.7449 25.1565 51.8478 25.3956 51.9321 25.6305L50.9761 25.0686ZM52.0204 25.898C52.1318 26.2674 52.1922 26.6194 52.2008 26.9447L50.9583 26.2149L50.9726 25.2824L52.0204 25.898ZM52.1783 25.7746C52.0811 25.4864 51.9571 25.1916 51.81 24.8985C51.701 24.6819 51.5813 24.4688 51.4534 24.2633C52.1118 24.7937 52.6856 25.5218 53.0439 26.2832L52.1783 25.7746ZM52.199 27.1596C52.1861 27.4856 52.1308 27.7696 52.035 28.0041L50.9408 27.3615L50.9551 26.429L52.199 27.1596ZM52.4269 27.0776C52.4194 26.7537 52.3633 26.4045 52.2601 26.0389L53.1693 26.5728C53.3204 26.9566 53.4058 27.323 53.4233 27.6626L52.4269 27.0776ZM53.0775 28.8324C52.7045 29.23 52.0643 29.299 51.3423 29.0214C51.4674 28.9902 51.5856 28.9414 51.6942 28.8759C51.9043 28.749 52.0729 28.5604 52.1954 28.3147L53.0775 28.8324ZM51.9539 28.1727C51.6303 28.7564 51.0908 28.8075 50.9183 28.8082L50.9372 27.5753L51.9539 28.1727Z" fill="white"/>
  <g opacity="0.1">
    <path d="M61.6511 25.0373C61.5982 25.0373 61.5446 25.024 61.4957 24.9963L43.2669 14.6484C43.1179 14.5639 43.0672 14.3771 43.1532 14.2312C43.2393 14.085 43.4298 14.0353 43.5784 14.1197L61.8072 24.4677C61.9562 24.5522 62.0069 24.739 61.9208 24.8848C61.8633 24.9826 61.7586 25.0373 61.6511 25.0373Z" fill="#252B3D"/>
  </g>
  <g opacity="0.1">
    <path d="M61.6511 39.0974C61.5982 39.0974 61.5446 39.0841 61.4957 39.0564L43.2669 28.7084C43.1179 28.624 43.0672 28.4371 43.1532 28.2913C43.2393 28.1451 43.4298 28.0953 43.5784 28.1798L61.8072 38.5277C61.9562 38.6122 62.0069 38.7991 61.9208 38.9453C61.8633 39.0427 61.7586 39.0974 61.6511 39.0974Z" fill="#252B3D"/>
  </g>
  <path opacity="0.1" d="M40.3242 9.25201V10.1771L65.1089 24.2462V23.0455C65.1089 22.9589 65.0614 22.8783 64.9849 22.8348L40.6968 9.04133C40.6575 9.01889 40.6161 9.00732 40.5732 9.00732C40.4535 9.00732 40.3242 9.10092 40.3242 9.25201Z" fill="#252B3D"/>
  <path d="M63.9263 22.9695C63.9353 23.1318 64.0403 23.2633 64.1614 23.2633C64.2825 23.2633 64.3733 23.1318 64.3647 22.9695C64.3558 22.8072 64.2507 22.6758 64.1296 22.6758C64.0085 22.6758 63.9178 22.8072 63.9263 22.9695Z" fill="#FF7A8C"/>
  <path d="M63.2271 22.6224C63.2361 22.7847 63.3411 22.9161 63.4622 22.9161C63.5833 22.9161 63.674 22.7847 63.6655 22.6224C63.6565 22.4601 63.5515 22.3286 63.4304 22.3286C63.3093 22.3286 63.2185 22.4601 63.2271 22.6224Z" fill="#3A4059"/>
  <path d="M62.608 22.2855C62.6166 22.4478 62.722 22.5792 62.8427 22.5792C62.9638 22.5792 63.0546 22.4478 63.046 22.2855C63.0371 22.1232 62.932 21.9917 62.8109 21.9917C62.6898 21.9917 62.5991 22.1232 62.608 22.2855Z" fill="#D5243A"/>
  <path d="M38.1014 88.7216C37.373 90.2686 40.2391 93.0898 44.5029 95.0231C48.767 96.9564 52.8139 97.2698 53.5423 95.7228C54.2707 94.1758 51.4045 91.3546 47.1408 89.4213C42.8771 87.488 38.8298 87.1746 38.1014 88.7216Z" fill="#E5E5E5"/>
  <path d="M47.543 95.4385L51.1662 93.4481C51.5559 93.2339 51.7974 92.8297 51.7974 92.3915V74.5811L47.6716 76.9185L47.543 95.4385Z" fill="#B11118"/>
  <path d="M47.6701 76.9179L39.4688 72.3442V90.1018C39.4688 90.5491 39.711 90.9627 40.105 91.1881L47.5414 95.4382L47.6701 76.9179Z" fill="#FF4A67"/>
  <path d="M46.6001 84.7295L45.6287 84.0967L45.6055 87.6401C45.6026 88.1025 45.2651 88.2588 44.8514 87.9896C44.438 87.7204 44.1054 87.1272 44.1083 86.6649L44.1315 83.1215L43.1602 82.4887L44.0268 82.1073L44.8928 81.7256L45.7466 83.2277L46.6001 84.7295Z" fill="#D5243A"/>
  <path d="M43.5473 86.1078L42.576 85.475L42.5992 81.9316C42.6021 81.4693 42.2695 80.8761 41.8561 80.6069C41.4428 80.3377 41.1052 80.494 41.102 80.9564L41.0788 84.4998L40.1074 83.867L40.9616 85.3691L41.8154 86.8709L42.6814 86.4892L43.5473 86.1078Z" fill="#D5243A"/>
  <path d="M51.7963 74.5806L44.1087 70.2825C43.775 70.096 43.3656 70.0988 43.0344 70.2895L39.4688 72.3444L47.6701 76.9181L51.7963 74.5806Z" fill="#D5243A"/>
  <path d="M47.0371 75.6354L49.3821 74.3471V69.5947L47.0875 68.312L47.07 70.8619L47.0371 75.6354Z" fill="#A0A0A0"/>
  <path d="M42.5859 68.3614V73.0921L47.0344 75.635L47.0672 70.8615L47.0847 68.3116L44.8455 67.0591L42.5859 68.3614Z" fill="#C6C6C6"/>
  <path d="M42.5859 68.3625L47.0672 70.8626L47.1044 70.8826L47.1055 70.8837L49.3793 69.5954L47.0847 68.3127L44.8455 67.0605L43.9935 67.551L42.5859 68.3625Z" fill="#E5E5E5"/>
  <path d="M42.5859 68.3618L42.6002 68.3695L47.0672 70.862L47.1044 70.8819L48.1893 70.2678L48.5194 70.0809L46.2248 68.7979L43.9935 67.5503L42.5859 68.3618Z" fill="#A0A0A0"/>
  <path d="M42.5859 68.3622L47.0672 70.8627L47.1044 70.8827L48.1893 70.2685L45.9119 68.9949L43.667 67.7393L42.5859 68.3622Z" fill="#878787"/>
  <path d="M43.3555 72.0218L44.3025 72.5581V71.1436L43.3555 70.6069V72.0218Z" fill="#A0A0A0"/>
  <path d="M44.8379 72.7831L45.7846 73.3198V71.9053L44.8379 71.3687V72.7831Z" fill="#A0A0A0"/>
  <path d="M95.1827 126.779L99.7883 129.311C100.425 129.725 100.396 130.652 99.734 131.027L74.4495 145.349C73.5068 145.883 72.345 145.881 71.4044 145.344L21.7864 117.001C21.3202 116.736 21.3088 116.08 21.765 115.799L26.531 112.904L72.0163 138.675L95.1827 126.779Z" fill="#E5E5E5"/>
  <path d="M73.6797 141.84C74.0112 141.848 74.3756 141.797 74.7443 141.636L74.7453 141.635L75.2119 141.369C75.2126 141.369 75.2137 141.368 75.2144 141.368L75.407 141.258L96.9743 128.959C97.3633 128.736 97.602 128.329 97.602 127.887V125.544C97.5952 125.305 97.4705 125.07 97.2301 124.934L94.9676 123.652L73.8247 135.633L73.7433 139.111L73.6797 141.84Z" fill="#252B3D"/>
  <path d="M24.9004 111.424V113.671C24.9004 114.249 25.2137 114.783 25.7238 115.072L72.2359 141.425L72.3409 141.484C72.3441 141.486 72.3473 141.488 72.3502 141.489C72.567 141.601 73.0679 141.823 73.6799 141.84L73.7438 139.111L73.8253 135.634L27.5776 109.616H27.5769L25.263 110.917C25.0561 111.033 24.9358 111.222 24.9004 111.424Z" fill="#3A4059"/>
  <path d="M88.7819 124.364L68.2309 136.081L28.2715 113.44L48.96 101.804L88.7819 124.364Z" fill="white"/>
  <path d="M88.7819 124.364L68.2309 136.081L28.2715 113.44L48.96 101.804L88.7819 124.364Z" fill="white"/>
  <path d="M89.6931 131.614V132.213C89.6931 132.261 89.6674 132.305 89.6249 132.329L83.7528 135.655C83.6621 135.706 83.5488 135.642 83.5488 135.539V134.939C83.5488 134.892 83.5746 134.847 83.6171 134.824L89.4891 131.497C89.5799 131.446 89.6931 131.51 89.6931 131.614Z" fill="#6B749B"/>
  <path d="M89.6931 131.612V131.952C89.6931 132 89.6674 132.044 89.6249 132.068L83.7528 135.394C83.6621 135.446 83.5488 135.381 83.5488 135.278V134.938C83.5488 134.89 83.5746 134.846 83.6171 134.822L89.4891 131.496C89.5799 131.445 89.6931 131.509 89.6931 131.612Z" fill="#51557C"/>
  <path d="M81.6837 136.469C81.6658 136.822 81.5015 137.1 81.3171 137.091C81.295 137.09 81.2739 137.085 81.2535 137.076C81.1031 137.012 80.9995 136.747 81.0152 136.436C81.0306 136.137 81.151 135.89 81.3 135.829C81.3264 135.817 81.3539 135.812 81.3818 135.814C81.5661 135.822 81.7015 136.116 81.6837 136.469Z" fill="#6B749B"/>
  <path d="M81.5383 136.468C81.5233 136.767 81.4025 137.013 81.2535 137.075C81.1031 137.011 80.9995 136.746 81.0152 136.436C81.0306 136.136 81.151 135.89 81.3 135.828C81.4504 135.893 81.554 136.157 81.5383 136.468Z" fill="#51557C"/>
  <path d="M24.8962 111.676C24.9309 111.878 25.0509 112.066 25.2567 112.183L72.0167 138.676C72.5493 138.978 73.1456 139.123 73.7397 139.11C74.2906 139.1 74.8396 138.953 75.333 138.672L97.2286 126.198C97.4676 126.061 97.5912 125.827 97.5987 125.589V125.543C97.5916 125.305 97.4676 125.069 97.2265 124.933L94.964 123.651L86.1911 118.681L62.7168 105.38L49.334 97.7969C49.1047 97.6672 48.8217 97.6665 48.592 97.7958L27.5742 109.614H27.5734L25.2592 110.916C25.0524 111.032 24.9313 111.222 24.8966 111.424C24.8809 111.507 24.8809 111.593 24.8962 111.676Z" fill="#51557C"/>
  <path d="M85.6764 129.849C85.7325 130.927 84.4282 131.477 82.8881 131.477C81.3484 131.477 80.0323 130.994 80.1002 129.819C80.1448 129.045 81.3484 128.668 82.8885 128.668C84.4282 128.669 85.6364 129.074 85.6764 129.849Z" fill="#3A4059"/>
  <path d="M82.8856 131.224C84.4254 131.224 85.6736 130.595 85.6736 129.819C85.6736 129.044 84.4254 128.415 82.8856 128.415C81.3459 128.415 80.0977 129.044 80.0977 129.819C80.0977 130.595 81.3459 131.224 82.8856 131.224Z" fill="#6B749B"/>
  <path opacity="0.3" d="M85.0683 129.728C85.0683 130.336 84.0902 130.829 82.8838 130.829C81.677 130.829 80.6992 130.336 80.6992 129.728C80.6992 129.12 81.6774 128.627 82.8841 128.627C84.0902 128.628 85.0683 129.12 85.0683 129.728Z" fill="#6B749B"/>
  <path d="M29.8818 111.93L30.9897 112.558L34.6679 114.642L42.9124 119.315L51.8653 124.386L55.4582 126.422L61.999 130.13L67.7046 133.36C68.264 133.677 68.9531 133.676 69.5115 133.359L70.2435 132.942L77.6367 128.722L81.2306 126.679L88.1977 122.704C88.626 122.46 88.6246 121.853 88.1959 121.61L81.2314 117.665L77.6378 115.629L70.245 111.441L62.0004 106.769L55.4596 103.06L51.8664 101.025L51.6003 100.874L50.2384 100.105C49.6808 99.7892 48.9942 99.7888 48.4358 100.103L42.9131 103.209L34.6682 107.847L29.8847 110.536C29.3367 110.845 29.3349 111.62 29.8818 111.93Z" fill="white"/>
  <path d="M69.7006 128.972C69.7838 128.972 69.8685 128.951 69.9457 128.907L82.644 121.667C82.8776 121.534 82.9569 121.24 82.8212 121.011C82.6854 120.782 82.386 120.704 82.1528 120.838L69.4544 128.077C69.2208 128.21 69.1415 128.504 69.2773 128.733C69.368 128.887 69.532 128.972 69.7006 128.972Z" fill="#E5E5E5"/>
  <path d="M66.2705 127.117C66.3541 127.117 66.4385 127.096 66.516 127.052L79.2143 119.812C79.4479 119.679 79.5272 119.385 79.3915 119.156C79.2557 118.927 78.9564 118.849 78.7231 118.982L66.0248 126.222C65.7911 126.355 65.7118 126.649 65.8476 126.878C65.9383 127.031 66.1023 127.117 66.2705 127.117Z" fill="#E5E5E5"/>
  <path d="M62.8377 125.261C62.9213 125.261 63.0056 125.24 63.0827 125.195L75.7811 117.956C76.0147 117.823 76.094 117.529 75.9583 117.3C75.8225 117.071 75.5231 116.993 75.2895 117.126L62.5912 124.366C62.3575 124.499 62.2782 124.793 62.414 125.022C62.5051 125.175 62.6694 125.261 62.8377 125.261Z" fill="#E5E5E5"/>
  <path d="M59.406 123.404C59.4893 123.404 59.5739 123.383 59.6511 123.339L72.3494 116.099C72.5831 115.966 72.6624 115.672 72.5266 115.444C72.3909 115.214 72.0915 115.136 71.8579 115.27L59.1595 122.509C58.9259 122.642 58.8466 122.936 58.9823 123.165C59.0734 123.318 59.2374 123.404 59.406 123.404Z" fill="#E5E5E5"/>
  <path d="M55.976 121.549C56.0596 121.549 56.1439 121.528 56.2214 121.483L68.9197 114.244C69.1534 114.111 69.2327 113.817 69.0969 113.588C68.9612 113.358 68.6618 113.28 68.4282 113.414L55.7298 120.653C55.4962 120.787 55.4169 121.08 55.5526 121.309C55.6434 121.463 55.8074 121.549 55.976 121.549Z" fill="#E5E5E5"/>
  <path d="M52.5385 119.692C52.6217 119.692 52.7064 119.671 52.7836 119.627L65.4819 112.387C65.7155 112.254 65.7948 111.96 65.6591 111.731C65.5233 111.502 65.2239 111.424 64.9903 111.557L52.2923 118.797C52.0587 118.93 51.9794 119.224 52.1151 119.453C52.2059 119.606 52.3699 119.692 52.5385 119.692Z" fill="#E5E5E5"/>
  <path d="M49.1045 117.836C49.1881 117.836 49.2724 117.815 49.35 117.771L62.0483 110.531C62.2819 110.398 62.3612 110.104 62.2255 109.875C62.0897 109.646 61.7903 109.568 61.5571 109.701L48.8587 116.941C48.6251 117.074 48.5458 117.368 48.6816 117.597C48.7719 117.751 48.9359 117.836 49.1045 117.836Z" fill="#E5E5E5"/>
  <path d="M45.6752 115.98C45.7588 115.98 45.8431 115.959 45.9206 115.915L58.6189 108.675C58.8526 108.542 58.9319 108.248 58.7961 108.019C58.6604 107.789 58.361 107.712 58.1274 107.845L45.4291 115.084C45.1954 115.218 45.1161 115.511 45.2519 115.74C45.3426 115.894 45.5066 115.98 45.6752 115.98Z" fill="#E5E5E5"/>
  <path d="M42.2413 114.123C42.3248 114.123 42.4092 114.102 42.4867 114.058L55.185 106.818C55.4186 106.685 55.4979 106.391 55.3622 106.162C55.2264 105.933 54.9271 105.855 54.6938 105.988L41.9955 113.228C41.7618 113.361 41.6825 113.655 41.8183 113.884C41.9087 114.037 42.0726 114.123 42.2413 114.123Z" fill="#E5E5E5"/>
  <path d="M38.81 112.267C38.8936 112.267 38.9779 112.246 39.0554 112.202L51.7537 104.962C51.9874 104.829 52.0667 104.535 51.9309 104.306C51.7952 104.077 51.4958 103.999 51.2621 104.132L38.5638 111.372C38.3302 111.505 38.2509 111.799 38.3866 112.028C38.4774 112.181 38.6413 112.267 38.81 112.267Z" fill="#E5E5E5"/>
  <path d="M29.8819 111.93L30.9897 112.558L51.5996 100.874L50.2378 100.105C49.6802 99.7892 48.9935 99.7888 48.4352 100.103L42.9125 103.209L34.6676 107.847L29.8841 110.536C29.3368 110.845 29.335 111.62 29.8819 111.93Z" fill="#51557C"/>
  <path d="M37.466 107.639C37.536 107.628 37.6025 107.607 37.6589 107.575L45.2125 103.333C45.3819 103.238 45.3919 103.085 45.235 102.99C45.0782 102.896 44.8135 102.896 44.6445 102.991L37.0909 107.233C36.9216 107.328 36.9116 107.482 37.0684 107.576C37.1731 107.639 37.3256 107.66 37.466 107.639Z" fill="#6B749B"/>
  <path d="M70.3108 115.343L70.3058 115.34C70.3237 115.435 70.284 115.539 70.1869 115.595L57.0059 123.062C56.9773 123.079 56.9455 123.089 56.9137 123.093C56.8591 123.1 56.8016 123.088 56.753 123.059L48.382 118.03C48.3005 117.981 48.2619 117.897 48.2637 117.815V115.625L50.0092 116.693L61.3147 110.288C61.3911 110.245 61.4854 110.245 61.5619 110.288L68.2188 114.06L68.4649 114.199L70.3108 113.178V115.343Z" fill="#D5243A"/>
  <path d="M70.3131 115.342L70.3081 115.339C70.326 115.434 70.2863 115.539 70.1891 115.594L57.0082 123.061C56.9796 123.078 56.9478 123.089 56.916 123.093V120.554L68.2214 114.059L68.4676 114.198L70.3135 113.177V115.342H70.3131Z" fill="#B11118"/>
  <path d="M70.2269 113.399C70.2152 113.41 70.2012 113.42 70.1862 113.429L57.0053 120.896C56.9874 120.906 56.9685 120.914 56.9488 120.92C56.8834 120.937 56.812 120.929 56.7523 120.893L56.5508 120.772L48.3813 115.863C48.3456 115.842 48.3177 115.813 48.2999 115.781C48.2306 115.671 48.2613 115.516 48.3874 115.446L48.5582 115.349L61.2104 108.181L61.3147 108.122C61.3912 108.079 61.4855 108.079 61.5619 108.122L61.6352 108.164L70.1719 113L70.1741 113.001L70.1869 113.009C70.3363 113.093 70.3502 113.293 70.2269 113.399Z" fill="#FF4A67"/>
  <path d="M61.6371 108.162L60.4153 111.688L60.2853 112.062L59.6312 113.951C59.6065 114.02 59.5458 114.069 59.4733 114.081L56.7918 114.489L56.396 114.549L48.3018 115.779C48.2325 115.669 48.2633 115.514 48.3894 115.444L48.5601 115.347L59.2939 113.714L59.9588 111.795C59.9588 111.794 59.9599 111.794 59.9599 111.794L59.9649 111.779C59.9649 111.778 59.9649 111.777 59.9659 111.776L61.2124 108.179L61.3167 108.119C61.3931 108.077 61.4874 108.077 61.5639 108.119L61.6371 108.162Z" fill="#D5243A"/>
  <path d="M56.9556 120.888C56.9556 120.898 56.9556 120.909 56.9535 120.92C56.8881 120.937 56.8167 120.929 56.757 120.893L56.5555 120.772L56.3987 114.55L56.3966 114.464C56.3937 114.356 56.4809 114.268 56.5902 114.265H56.5952C56.7024 114.265 56.7906 114.348 56.7938 114.455L56.7949 114.491L56.9556 120.888Z" fill="#D5243A"/>
  <path d="M70.2316 113.399L60.2876 112.064L60.1247 112.042C60.0165 112.028 59.94 111.93 59.955 111.823C59.9561 111.813 59.9579 111.805 59.9611 111.796C59.9611 111.795 59.9622 111.795 59.9622 111.795L59.9672 111.78C59.9672 111.779 59.9672 111.778 59.9682 111.777C60 111.696 60.0865 111.644 60.1797 111.657L60.418 111.689L70.1762 112.999L70.1783 113L70.1912 113.007C70.3409 113.092 70.3548 113.293 70.2316 113.399Z" fill="#D5243A"/>
  <path d="M12.1818 143.656C16.4664 143.656 19.9397 142.688 19.9397 141.494C19.9397 140.3 16.4664 139.332 12.1818 139.332C7.89718 139.332 4.42383 140.3 4.42383 141.494C4.42383 142.688 7.89718 143.656 12.1818 143.656Z" fill="#E5E5E5"/>
  <path d="M19.8631 129.681L16.6108 140.356C16.4764 140.888 16.1078 141.331 15.6083 141.576C13.1451 142.783 10.683 142.784 8.22155 141.576C7.72247 141.331 7.3538 140.888 7.21983 140.357L3.91602 129.785L11.9155 128.578L19.8631 129.681Z" fill="#51557C"/>
  <path d="M11.9218 133.286C16.3508 133.286 19.9413 131.422 19.9413 129.123C19.9413 126.824 16.3508 124.96 11.9218 124.96C7.49278 124.96 3.90234 126.824 3.90234 129.123C3.90234 131.422 7.49278 133.286 11.9218 133.286Z" fill="#3A4059"/>
  <path d="M17.4629 129.122C17.4629 130.465 14.98 131.552 11.917 131.552C8.85396 131.552 6.37109 130.464 6.37109 129.122C6.37109 127.78 8.85396 126.692 11.917 126.692C14.98 126.692 17.4629 127.78 17.4629 129.122Z" fill="#252B3D"/>
  <path d="M8.71245 129.345H12.988C14.8767 128.759 20.6152 125.202 19.6088 122.175C17.4904 115.8 20.7527 118.143 21.6566 115.73C23.8008 110.011 17.5907 111.201 21.6873 106.149C25.7838 101.098 21.9088 98.0944 18.809 100.791C15.7084 103.487 16.2625 107.507 13.2731 109.681C10.2836 111.853 14.7117 114.786 12.9405 118.046C11.1692 121.306 9.61843 120.436 8.73282 124.13C8.19873 126.359 8.00082 128.297 8.71245 129.345Z" fill="#D5243A"/>
  <path d="M11.3809 129.346H11.6988C11.9775 125.743 13.649 121.667 15.0348 120.601C16.8367 119.215 17.4998 116.56 16.9046 113.125C16.3569 109.968 18.4818 106.716 18.5044 106.684C18.5519 106.612 18.5308 106.516 18.4576 106.468C18.3843 106.421 18.2861 106.442 18.2371 106.513C18.1471 106.65 16.0222 109.898 16.5909 113.176C17.1661 116.494 16.5445 119.043 14.839 120.355C13.3997 121.461 11.6656 125.658 11.3809 129.346Z" fill="#B11118"/>
  <path d="M12.8183 129.345H9.10182C7.45992 128.836 2.4724 125.744 3.34694 123.113C5.18855 117.572 2.35237 119.608 1.56714 117.511C-0.296613 112.54 5.10102 113.574 1.54035 109.183C-2.02033 104.792 1.34779 102.182 4.04214 104.526C6.73721 106.87 6.25564 110.363 8.85389 112.253C11.4521 114.141 7.60353 116.691 9.14291 119.524C10.6823 122.358 12.0305 121.601 12.8 124.813C13.2648 126.749 13.437 128.433 12.8183 129.345Z" fill="#FF4A67"/>
  <path d="M10.4984 129.345H10.2222C9.98001 126.213 8.52709 122.671 7.32281 121.744C5.75664 120.539 5.18005 118.232 5.6977 115.245C6.17391 112.501 4.32659 109.675 4.30729 109.647C4.26585 109.585 4.28443 109.501 4.34766 109.459C4.41125 109.419 4.49699 109.437 4.53915 109.499C4.61738 109.618 6.46435 112.441 5.96992 115.29C5.46977 118.174 6.01029 120.39 7.49286 121.53C8.74322 122.492 10.2504 126.139 10.4984 129.345Z" fill="#D5243A"/>
</svg>