<svg width="29" height="30" viewBox="0 0 29 30" fill="none" xmlns="http://www.w3.org/2000/svg">
<g clip-path="url(#clip0_4480_70484)">
<path fill-rule="evenodd" clip-rule="evenodd" d="M28.6939 13.259C29.0922 16.5285 28.3576 19.8356 26.6128 22.6291C24.8679 25.4226 22.2182 27.5335 19.1054 28.6098C15.9926 29.6861 12.6049 29.6629 9.50715 28.5439C6.40943 27.4249 3.78893 25.2778 2.0826 22.4606C1.8969 22.1544 1.84046 21.7869 1.92569 21.439C2.01093 21.0912 2.23086 20.7914 2.53711 20.6057C2.84335 20.42 3.21083 20.3636 3.55869 20.4488C3.90655 20.534 4.2063 20.754 4.39201 21.0602C5.31117 22.578 6.56351 23.8669 8.05428 24.8292C9.54505 25.7916 11.2352 26.4023 12.9968 26.6151C14.7584 26.8279 16.5454 26.6373 18.2224 26.0575C19.8995 25.4778 21.4227 24.5243 22.6768 23.269C23.931 22.0137 24.8832 20.4897 25.4614 18.8121C26.0396 17.1345 26.2287 15.3474 26.0143 13.586C25.7999 11.8246 25.1877 10.135 24.224 8.64509C23.2602 7.15519 21.9703 5.904 20.4516 4.98621C20.1452 4.80098 19.9248 4.50159 19.8391 4.1539C19.7533 3.80621 19.8092 3.43869 19.9944 3.13221C20.1797 2.82573 20.4791 2.60537 20.8268 2.51963C21.1744 2.43389 21.542 2.48978 21.8484 2.67501C23.7173 3.80467 25.3048 5.34458 26.4907 7.17823C27.6767 9.01188 28.4301 11.0913 28.6939 13.259ZM16.2 2.39961C16.2 2.877 16.0104 3.33484 15.6728 3.6724C15.3353 4.00997 14.8774 4.19961 14.4 4.19961C13.9226 4.19961 13.4648 4.00997 13.1272 3.6724C12.7897 3.33484 12.6 2.877 12.6 2.39961C12.6 1.92222 12.7897 1.46438 13.1272 1.12682C13.4648 0.789252 13.9226 0.599609 14.4 0.599609C14.8774 0.599609 15.3353 0.789252 15.6728 1.12682C16.0104 1.46438 16.2 1.92222 16.2 2.39961ZM5.04721 9.59961C5.16727 9.39482 5.24563 9.16831 5.27779 8.93311C5.30995 8.69792 5.29527 8.45868 5.23459 8.22919C5.17391 7.99969 5.06844 7.78446 4.92425 7.59589C4.78005 7.40732 4.59998 7.24913 4.3944 7.13043C4.18882 7.01174 3.96179 6.93488 3.72639 6.90428C3.49098 6.87369 3.25185 6.88995 3.02276 6.95215C2.79367 7.01435 2.57914 7.12124 2.39153 7.26669C2.20392 7.41213 2.04693 7.59325 1.9296 7.79961C1.69467 8.21281 1.63272 8.70217 1.75726 9.16088C1.88179 9.6196 2.18272 10.0104 2.59436 10.2481C3.00599 10.4858 3.49493 10.551 3.95446 10.4295C4.41399 10.308 4.80682 10.0097 5.04721 9.59961ZM1.8 13.1996C2.27739 13.1996 2.73523 13.3893 3.0728 13.7268C3.41037 14.0644 3.60001 14.5222 3.60001 14.9996C3.60001 15.477 3.41037 15.9348 3.0728 16.2724C2.73523 16.61 2.27739 16.7996 1.8 16.7996C1.32261 16.7996 0.864775 16.61 0.527209 16.2724C0.189643 15.9348 0 15.477 0 14.9996C0 14.5222 0.189643 14.0644 0.527209 13.7268C0.864775 13.3893 1.32261 13.1996 1.8 13.1996ZM9.00002 5.64681C9.20638 5.52948 9.3875 5.37249 9.53294 5.18488C9.67838 4.99727 9.78528 4.78275 9.84748 4.55365C9.90968 4.32456 9.92594 4.08543 9.89535 3.85003C9.86475 3.61463 9.78789 3.3876 9.6692 3.18202C9.5505 2.97644 9.39231 2.79637 9.20374 2.65217C9.01517 2.50798 8.79994 2.40251 8.57044 2.34183C8.34094 2.28116 8.10171 2.26647 7.86651 2.29863C7.63132 2.33079 7.4048 2.40915 7.20002 2.52921C6.78996 2.7696 6.49164 3.16242 6.37015 3.62196C6.24865 4.08149 6.31385 4.57042 6.55152 4.98206C6.78919 5.3937 7.18002 5.69462 7.63874 5.81916C8.09746 5.9437 8.58681 5.88174 9.00002 5.64681Z" fill="#BF0C0C"/>
</g>
<defs>
<clipPath id="clip0_4480_70484">
<rect width="28.7996" height="28.8008" fill="white" transform="translate(0 0.599609)"/>
</clipPath>
</defs>
</svg>
