<svg width="24" height="24" viewBox="0 0 24 24" fill="none" xmlns="http://www.w3.org/2000/svg">
<path d="M13.2586 2.99958C8.16857 2.85958 3.99857 6.94958 3.99857 11.9996H2.20857C1.75857 11.9996 1.53857 12.5396 1.85857 12.8496L4.64857 15.6496C4.84857 15.8496 5.15857 15.8496 5.35857 15.6496L8.14857 12.8496C8.21767 12.7791 8.26436 12.6897 8.28275 12.5927C8.30114 12.4957 8.29041 12.3955 8.25191 12.3046C8.21341 12.2137 8.14887 12.1362 8.06641 12.0819C7.98396 12.0277 7.88728 11.999 7.78857 11.9996H5.99857C5.99857 8.09958 9.17857 4.94958 13.0986 4.99958C16.8186 5.04958 19.9486 8.17958 19.9986 11.8996C20.0486 15.8096 16.8986 18.9996 12.9986 18.9996C11.3886 18.9996 9.89857 18.4496 8.71857 17.5196C8.52703 17.3687 8.28671 17.2935 8.04333 17.3082C7.79995 17.323 7.57048 17.4267 7.39857 17.5996C6.97857 18.0196 7.00857 18.7296 7.47857 19.0896C9.04969 20.3321 10.9955 21.0053 12.9986 20.9996C18.0486 20.9996 22.1386 16.8296 21.9986 11.7396C21.8686 7.04958 17.9486 3.12958 13.2586 2.99958ZM12.7486 7.99958C12.3386 7.99958 11.9986 8.33958 11.9986 8.74958V12.4296C11.9986 12.7796 12.1886 13.1096 12.4886 13.2896L15.6086 15.1396C15.9686 15.3496 16.4286 15.2296 16.6386 14.8796C16.8486 14.5196 16.7286 14.0596 16.3786 13.8496L13.4986 12.1396V8.73958C13.4986 8.33958 13.1586 7.99958 12.7486 7.99958Z" fill="#BF0C0C"/>
</svg>
