<svg width="30" height="30" viewBox="0 0 30 30" fill="none" xmlns="http://www.w3.org/2000/svg">
<g clip-path="url(#clip0_4480_68575)">
<path d="M15 15.9375C17.0375 15.9375 18.8375 16.425 20.3 17.0625C21.65 17.6625 22.5 19.0125 22.5 20.475V22.5H7.5V20.4875C7.5 19.0125 8.35 17.6625 9.7 17.075C11.1625 16.425 12.9625 15.9375 15 15.9375ZM5 16.25C6.375 16.25 7.5 15.125 7.5 13.75C7.5 12.375 6.375 11.25 5 11.25C3.625 11.25 2.5 12.375 2.5 13.75C2.5 15.125 3.625 16.25 5 16.25ZM6.4125 17.625C5.95 17.55 5.4875 17.5 5 17.5C3.7625 17.5 2.5875 17.7625 1.525 18.225C0.6 18.625 0 19.525 0 20.5375V22.5H5.625V20.4875C5.625 19.45 5.9125 18.475 6.4125 17.625ZM25 16.25C26.375 16.25 27.5 15.125 27.5 13.75C27.5 12.375 26.375 11.25 25 11.25C23.625 11.25 22.5 12.375 22.5 13.75C22.5 15.125 23.625 16.25 25 16.25ZM30 20.5375C30 19.525 29.4 18.625 28.475 18.225C27.4125 17.7625 26.2375 17.5 25 17.5C24.5125 17.5 24.05 17.55 23.5875 17.625C24.0875 18.475 24.375 19.45 24.375 20.4875V22.5H30V20.5375ZM15 7.5C17.075 7.5 18.75 9.175 18.75 11.25C18.75 13.325 17.075 15 15 15C12.925 15 11.25 13.325 11.25 11.25C11.25 9.175 12.925 7.5 15 7.5Z" fill="#FCFCFC"/>
</g>
<defs>
<clipPath id="clip0_4480_68575">
<rect width="30" height="30" fill="white"/>
</clipPath>
</defs>
</svg>
