<svg width="24" height="24" viewBox="0 0 24 24" fill="none" xmlns="http://www.w3.org/2000/svg">
<g clip-path="url(#clip0_4480_68947)">
<path d="M17.7078 0.750211C20.6055 0.777961 23.2208 3.28996 23.2493 6.29171C23.2615 10.1095 23.285 13.9272 23.2488 17.7445C23.2033 20.615 20.7095 23.2217 17.7078 23.2502C13.89 23.2625 10.0723 23.286 6.25501 23.2497C3.38501 23.2042 0.778012 20.7105 0.749262 17.7087C0.737262 13.891 0.713512 10.0732 0.749762 6.25596C0.795263 3.38546 3.28901 0.778961 6.29076 0.750211C10.0965 0.738211 13.902 0.738211 17.7078 0.750211ZM6.32801 2.25021C4.21301 2.25696 2.27051 4.07171 2.24926 6.30121C2.23726 10.1095 2.21326 13.9177 2.24951 17.7255C2.28276 19.8212 4.10326 21.7292 6.30026 21.7502C10.1085 21.7625 13.9168 21.786 17.7245 21.75C19.8215 21.7165 21.7283 19.8962 21.7493 17.6992C21.7615 13.891 21.785 10.0827 21.749 6.27496C21.7155 4.17821 19.898 2.27121 17.6983 2.25021C13.9083 2.23821 10.118 2.25021 6.32801 2.25021Z" fill="#BF0C0C"/>
<path d="M12.0615 3.85389C14.7937 3.90564 17.167 6.57139 16.7775 9.35214C16.4587 11.6261 14.3095 13.5034 11.9992 13.5034C9.21947 13.5034 6.73547 10.7001 7.24972 7.82539C7.63872 5.64989 9.64872 3.89739 11.937 3.85389C11.9992 3.85339 11.9992 3.85339 12.0615 3.85389ZM11.9562 5.35364C9.75897 5.39539 7.97347 7.98564 9.00197 10.1186C9.90322 11.9884 12.7372 12.5679 14.2925 11.0849C16.1105 9.35164 15.1492 5.41289 12.0422 5.35364C11.9992 5.35339 11.9992 5.35339 11.9562 5.35364ZM12.0737 14.5036C15.031 14.5444 17.8805 16.3031 19.1977 19.0116C19.475 19.5816 18.914 20.3484 18.2735 20.0939C17.7982 19.9049 17.6692 19.2796 17.3645 18.8351C15.5247 16.1511 11.5387 15.2081 8.67521 16.9176C7.57371 17.5751 6.68046 18.5639 6.12372 19.7219C6.12372 19.7219 5.86822 20.1276 5.48372 20.1461C4.89572 20.1741 4.52247 19.5256 4.92772 18.7619C6.28672 16.1994 9.09347 14.4901 12.0737 14.5036Z" fill="#BF0C0C"/>
</g>
<defs>
<clipPath id="clip0_4480_68947">
<rect width="24" height="24" fill="white"/>
</clipPath>
</defs>
</svg>
