<svg width="24" height="24" viewBox="0 0 24 24" fill="none" xmlns="http://www.w3.org/2000/svg">
<g clip-path="url(#clip0_4480_68579)">
<path fill-rule="evenodd" clip-rule="evenodd" d="M23.9115 10.549C24.2434 13.2736 23.6313 16.0295 22.1773 18.3574C20.7232 20.6853 18.5151 22.4444 15.9211 23.3413C13.3271 24.2383 10.504 24.2189 7.92261 23.2864C5.34118 22.3539 3.15744 20.5646 1.7355 18.217C1.58075 17.9618 1.53371 17.6556 1.60474 17.3657C1.67577 17.0758 1.85905 16.826 2.11425 16.6713C2.36945 16.5165 2.67568 16.4695 2.96557 16.5405C3.25545 16.6115 3.50525 16.7948 3.66 17.05C4.42596 18.3148 5.46958 19.3889 6.71188 20.1909C7.95419 20.9929 9.36263 21.5018 10.8306 21.6791C12.2986 21.8564 13.7878 21.6975 15.1853 21.2145C16.5828 20.7314 17.8522 19.9367 18.8973 18.8907C19.9424 17.8446 20.7359 16.5746 21.2178 15.1766C21.6996 13.7786 21.8572 12.2894 21.6785 10.8215C21.4999 9.35365 20.9897 7.94566 20.1866 6.70408C19.3835 5.4625 18.3085 4.41984 17.043 3.65501C16.7876 3.50066 16.604 3.25116 16.5325 2.96142C16.4611 2.67168 16.5076 2.36542 16.662 2.11001C16.8164 1.85461 17.0658 1.67098 17.3556 1.59953C17.6453 1.52808 17.9516 1.57466 18.207 1.72901C19.7644 2.67039 21.0873 3.95365 22.0756 5.4817C23.0638 7.00974 23.6917 8.74255 23.9115 10.549ZM13.5 1.49951C13.5 1.89734 13.342 2.27887 13.0607 2.56017C12.7794 2.84148 12.3978 2.99951 12 2.99951C11.6022 2.99951 11.2206 2.84148 10.9393 2.56017C10.658 2.27887 10.5 1.89734 10.5 1.49951C10.5 1.10169 10.658 0.720156 10.9393 0.438852C11.2206 0.157547 11.6022 -0.000488281 12 -0.000488281C12.3978 -0.000488281 12.7794 0.157547 13.0607 0.438852C13.342 0.720156 13.5 1.10169 13.5 1.49951ZM4.206 7.49951C4.30605 7.32886 4.37135 7.1401 4.39815 6.9441C4.42495 6.7481 4.41271 6.54874 4.36215 6.35749C4.31158 6.16624 4.22369 5.98688 4.10353 5.82974C3.98337 5.6726 3.83331 5.54078 3.66199 5.44187C3.49068 5.34295 3.30149 5.27891 3.10532 5.25341C2.90915 5.22791 2.70987 5.24147 2.51896 5.2933C2.32805 5.34513 2.14928 5.43421 1.99294 5.55541C1.8366 5.67661 1.70577 5.82754 1.608 5.99951C1.41222 6.34385 1.36059 6.75165 1.46438 7.13391C1.56816 7.51617 1.81893 7.84187 2.16196 8.03992C2.50499 8.23798 2.91243 8.29231 3.29538 8.19107C3.67832 8.08982 4.00567 7.84122 4.206 7.49951ZM1.5 10.4995C1.89782 10.4995 2.27936 10.6575 2.56066 10.9389C2.84196 11.2202 3 11.6017 3 11.9995C3 12.3973 2.84196 12.7789 2.56066 13.0602C2.27936 13.3415 1.89782 13.4995 1.5 13.4995C1.10218 13.4995 0.720644 13.3415 0.43934 13.0602C0.158035 12.7789 0 12.3973 0 11.9995C0 11.6017 0.158035 11.2202 0.43934 10.9389C0.720644 10.6575 1.10218 10.4995 1.5 10.4995ZM7.5 4.20551C7.67197 4.10774 7.8229 3.97691 7.9441 3.82057C8.0653 3.66423 8.15438 3.48546 8.20621 3.29455C8.25805 3.10364 8.2716 2.90436 8.2461 2.70819C8.22061 2.51203 8.15656 2.32284 8.05764 2.15152C7.95873 1.9802 7.82691 1.83015 7.66977 1.70998C7.51263 1.58982 7.33327 1.50193 7.14202 1.45136C6.95077 1.4008 6.75141 1.38857 6.55541 1.41536C6.35942 1.44216 6.17066 1.50747 6 1.60751C5.65829 1.80784 5.40969 2.13519 5.30844 2.51813C5.2072 2.90108 5.26153 3.30852 5.45959 3.65155C5.65764 3.99458 5.98334 4.24535 6.3656 4.34913C6.74787 4.45292 7.15566 4.40129 7.5 4.20551Z" fill="#FCFCFC"/>
</g>
<defs>
<clipPath id="clip0_4480_68579">
<rect width="23.9996" height="24.0007" fill="white" transform="translate(0 -0.000488281)"/>
</clipPath>
</defs>
</svg>
