<svg width="22" height="22" viewBox="0 0 22 22" fill="none" xmlns="http://www.w3.org/2000/svg">
<path d="M21.5429 3.07351C21.9334 2.68299 21.9334 2.04982 21.5429 1.6593L20.3407 0.457107C19.9502 0.0665826 19.317 0.0665826 18.9265 0.457107L11.7071 7.67649C11.3166 8.06701 10.6834 8.06701 10.2929 7.67649L3.07351 0.457107C2.68299 0.0665825 2.04982 0.0665825 1.6593 0.457107L0.457107 1.6593C0.0665826 2.04982 0.0665825 2.68299 0.457107 3.07351L7.67649 10.2929C8.06701 10.6834 8.06701 11.3166 7.67649 11.7071L0.457107 18.9265C0.0665825 19.317 0.0665827 19.9502 0.457107 20.3407L1.6593 21.5429C2.04982 21.9334 2.68299 21.9334 3.07351 21.5429L10.2929 14.3235C10.6834 13.933 11.3166 13.933 11.7071 14.3235L18.9265 21.5429C19.317 21.9334 19.9502 21.9334 20.3407 21.5429L21.5429 20.3407C21.9334 19.9502 21.9334 19.317 21.5429 18.9265L14.3235 11.7071C13.933 11.3166 13.933 10.6834 14.3235 10.2929L21.5429 3.07351Z" fill="#BF0C0C"/>
</svg>
