<svg width="24" height="24" viewBox="0 0 24 24" fill="none" xmlns="http://www.w3.org/2000/svg">
<mask id="mask0_4480_70155" style="mask-type:alpha" maskUnits="userSpaceOnUse" x="0" y="0" width="24" height="24">
<rect width="24" height="24" fill="#D9D9D9"/>
</mask>
<g mask="url(#mask0_4480_70155)">
<path d="M3 21V7.0752H7.0752V3H16.9248V11.175H21V21H13.2252V16.9248H10.7748V21H3ZM4.6752 19.3248H7.0752V16.9248H4.6752V19.3248ZM4.6752 15.2502H7.0752V12.825H4.6752V15.2502ZM4.6752 11.175H7.0752V8.7498H4.6752V11.175ZM8.7498 15.2502H11.175V12.825H8.7498V15.2502ZM8.7498 11.175H11.175V8.7498H8.7498V11.175ZM8.7498 7.0752H11.175V4.6752H8.7498V7.0752ZM12.825 15.2502H15.2502V12.825H12.825V15.2502ZM12.825 11.175H15.2502V8.7498H12.825V11.175ZM12.825 7.0752H15.2502V4.6752H12.825V7.0752ZM16.9248 19.3248H19.3248V16.9248H16.9248V19.3248ZM16.9248 15.2502H19.3248V12.825H16.9248V15.2502Z" fill="#FCFCFC"/>
</g>
</svg>
