<svg width="24" height="24" viewBox="0 0 24 24" fill="none" xmlns="http://www.w3.org/2000/svg">
<path d="M7 7.00011H6C5.46957 7.00011 4.96086 7.21083 4.58579 7.5859C4.21071 7.96097 4 8.46968 4 9.00011V18.0001C4 18.5305 4.21071 19.0393 4.58579 19.4143C4.96086 19.7894 5.46957 20.0001 6 20.0001H15C15.5304 20.0001 16.0391 19.7894 16.4142 19.4143C16.7893 19.0393 17 18.5305 17 18.0001V17.0001M15.9999 5.00011L18.9999 8.00011M20.3849 6.58511C20.7787 6.19126 21 5.65709 21 5.10011C21 4.54312 20.7787 4.00895 20.3849 3.61511C19.991 3.22126 19.4569 3 18.8999 3C18.3429 3 17.8087 3.22126 17.4149 3.61511L8.99989 12.0001V15.0001H11.9999L20.3849 6.58511Z" stroke="#BF0C0C" stroke-width="1.8" stroke-linecap="round" stroke-linejoin="round"/>
</svg>
