<svg width="420" height="430" viewBox="0 0 420 430" fill="none" xmlns="http://www.w3.org/2000/svg">
<path d="M398.766 109.656C386.256 116.134 376.671 127.279 369.777 139.546C362.883 151.814 358.438 165.292 354.042 178.654L350.169 247.604C364.693 222.865 376.39 193.778 379.546 165.302L369.864 164.44C376.361 163.472 381.812 158.747 385.278 153.17C388.745 147.593 390.526 141.173 392.269 134.841L380.515 136.564C389.824 130.268 396.359 120.635 398.766 109.656Z" fill="#E0E0E0"/>
<path d="M348.039 263.754C348.039 263.754 316.454 225.992 316.822 189.915H329.574C329.574 189.915 315.719 180.813 316.822 175.71C317.926 170.608 318.275 151.301 318.275 151.301L329.894 154.205C329.894 154.205 321.18 149.839 320.056 142.916C318.933 135.993 322.603 103.934 322.603 103.934C322.603 103.934 336.817 118.874 341.193 134.172C345.57 149.471 357.044 167.325 353.674 213.947C350.305 260.568 348.039 263.754 348.039 263.754Z" fill="#EBEBEB"/>
<path d="M364.054 267.326C364.054 267.326 398.263 244.543 405.864 215.466L395.61 212.678C395.61 212.678 408.739 208.388 408.982 204.051C409.224 199.713 413.145 184.105 413.145 184.105L403.133 183.901C403.133 183.901 411.121 182.294 413.513 176.969C415.905 171.643 420 145.074 420 145.074C420 145.074 405.292 153.972 398.428 165.291C391.563 176.61 378.423 188.53 370.929 226.727C363.435 264.925 364.054 267.326 364.054 267.326Z" fill="#EBEBEB"/>
<path d="M331.28 136.881C331.328 137.009 331.364 137.142 331.386 137.278L331.657 138.44C331.89 139.485 332.229 140.996 332.626 142.923C333.023 144.85 333.594 147.261 334.117 150.039C334.64 152.818 335.327 155.975 335.966 159.48C337.312 166.49 338.735 174.866 340.207 184.18C341.679 193.495 343.044 203.778 344.313 214.583C345.581 225.389 346.51 235.73 347.217 245.132C347.924 254.534 348.437 263.016 348.728 270.142C348.912 273.705 348.989 276.92 349.086 279.766C349.183 282.613 349.231 285.034 349.251 287.028C349.27 289.023 349.299 290.543 349.309 291.618V292.818C349.309 293.08 349.309 293.225 349.309 293.225C349.293 293.09 349.293 292.954 349.309 292.818C349.309 292.518 349.309 292.131 349.26 291.618C349.26 290.543 349.173 289.004 349.105 287.028C349.038 285.053 348.97 282.603 348.844 279.776C348.718 276.949 348.621 273.715 348.418 270.161C348.089 263.035 347.527 254.563 346.801 245.171C346.075 235.779 345.058 225.447 343.819 214.641C342.579 203.836 341.156 193.572 339.752 184.248C338.348 174.924 336.925 166.558 335.627 159.548C335.008 156.033 334.378 152.876 333.846 150.088C333.313 147.299 332.877 144.917 332.442 142.962C332.006 141.006 331.754 139.515 331.541 138.459C331.444 137.965 331.377 137.578 331.319 137.288C331.293 137.153 331.28 137.017 331.28 136.881Z" fill="#E0E0E0"/>
<path d="M343.654 286.883C343.654 286.883 314.761 254.117 305.785 234.306L312.563 231.401C307.644 232.215 302.619 230.104 298.814 226.899C295.009 223.694 292.21 219.511 289.499 215.338L298.417 213.837C290.221 211.497 283.242 206.092 278.926 198.742C289.451 200.475 298.978 206.256 306.831 213.479C313.183 219.289 318.566 226.124 323.737 233.057C326.264 236.44 328.466 240.055 330.311 243.853C335.133 253.884 343.721 274.847 343.654 286.883Z" fill="#EBEBEB"/>
<path d="M406.309 164.145C406.276 164.262 406.231 164.376 406.173 164.483C406.057 164.716 405.912 165.035 405.728 165.452C405.312 166.304 404.711 167.524 403.956 169.083C403.201 170.642 402.242 172.578 401.167 174.834C400.093 177.09 398.853 179.627 397.546 182.474C394.874 188.148 391.814 194.954 388.512 202.565C385.211 210.175 381.735 218.609 378.307 227.527C374.879 236.444 371.762 245.023 369.06 252.866C366.359 260.709 364.064 267.806 362.224 273.8C361.256 276.782 360.481 279.512 359.755 281.894C359.029 284.276 358.429 286.338 357.945 288.023C357.46 289.708 357.073 290.986 356.812 291.896L356.502 292.865C356.469 292.98 356.426 293.094 356.376 293.203C356.39 293.082 356.416 292.962 356.453 292.845C356.512 292.593 356.599 292.254 356.715 291.828C356.957 290.909 357.305 289.601 357.761 287.955C358.216 286.309 358.787 284.199 359.484 281.807C360.181 279.415 360.946 276.675 361.876 273.683C363.677 267.68 365.962 260.563 368.653 252.701C371.345 244.839 374.463 236.241 377.871 227.333C381.28 218.425 384.833 209.982 388.125 202.371C391.417 194.761 394.554 187.973 397.265 182.319C398.592 179.472 399.86 176.935 400.954 174.699C402.049 172.462 403.017 170.545 403.859 168.986L405.709 165.394C405.922 165.006 406.086 164.684 406.202 164.425C406.233 164.33 406.268 164.236 406.309 164.145Z" fill="#E0E0E0"/>
<path d="M346.102 300.937C346.045 300.737 346.003 300.533 345.976 300.327C345.908 299.882 345.812 299.301 345.705 298.594C345.599 297.887 345.453 296.909 345.26 295.844C345.066 294.779 344.882 293.55 344.592 292.213C344.078 289.531 343.333 286.355 342.394 282.87C341.454 279.384 340.215 275.608 338.753 271.706C337.291 267.804 335.664 264.173 334.096 260.919C332.527 257.666 330.959 254.81 329.574 252.457C328.906 251.266 328.238 250.23 327.637 249.3C327.037 248.371 326.572 247.577 326.146 246.938L325.178 245.456C325.056 245.289 324.955 245.107 324.878 244.914C325.022 245.063 325.152 245.225 325.265 245.398L326.282 246.831C326.727 247.451 327.25 248.225 327.841 249.145C328.431 250.065 329.119 251.082 329.777 252.273C331.21 254.616 332.789 257.472 334.415 260.716C336.042 263.96 337.64 267.62 339.131 271.531C340.622 275.443 341.784 279.277 342.742 282.753C343.701 286.23 344.369 289.444 344.843 292.146C345.114 293.491 345.269 294.721 345.434 295.796C345.599 296.871 345.724 297.8 345.802 298.565C345.879 299.33 345.937 299.863 345.976 300.318C346.044 300.518 346.087 300.726 346.102 300.937Z" fill="#E0E0E0"/>
<path d="M384.233 293.227H320.986V306.124H384.233V293.227Z" fill="#E0E0E0"/>
<path d="M327.018 306.113L333.854 349.491H372.071L378.452 306.113H327.018Z" fill="#E0E0E0"/>
<path d="M380.36 306.113C380.36 306.258 368.392 306.365 353.636 306.365C338.88 306.365 326.912 306.258 326.912 306.113C326.912 305.968 338.88 305.861 353.636 305.861C368.392 305.861 380.36 305.978 380.36 306.113Z" fill="#EBEBEB"/>
<path d="M281.132 57.968C280.28 61.2057 278.85 64.2629 276.911 66.9921L281.064 70.8652L298.784 86.8607L298.367 87.0544C298.367 87.0544 313.704 76.3455 317.945 72.8501C321.441 69.9453 330.794 64.0196 331.559 58.2488C331.687 57.2232 331.491 56.1834 330.997 55.2752C330.504 54.3669 329.739 53.636 328.809 53.1848C328.172 52.8603 327.458 52.7183 326.745 52.7747C326.033 52.8311 325.349 53.0836 324.772 53.5043C324.772 53.5043 328.896 48.663 325.633 45.4872C322.37 42.3113 319.824 44.7997 319.824 44.7997C319.824 44.7997 323.861 38.6513 320.114 35.243C319.338 34.6478 318.4 34.3014 317.424 34.2495C316.447 34.1977 315.478 34.4428 314.644 34.9525L316.164 33.3259L323.997 24.8924C324.931 23.9142 325.452 22.6138 325.452 21.2614C325.452 19.909 324.931 18.6086 323.997 17.6304C323.517 17.1444 322.944 16.7595 322.312 16.4986C321.681 16.2377 321.003 16.1061 320.32 16.1115C319.637 16.1169 318.961 16.2593 318.334 16.5301C317.706 16.801 317.14 17.1949 316.667 17.6885L294.63 40.7524L295.753 28.1651C296.034 24.902 291.628 22.5395 289.672 23.7401C289.672 23.7401 286.661 24.9117 285.799 30.0144C285.228 33.8681 281.132 57.968 281.132 57.968Z" fill="#F5F5F5"/>
<path d="M281.132 57.9706C281.132 57.9706 281.132 57.7575 281.21 57.3412C281.287 56.9248 281.365 56.3052 281.491 55.5112C281.752 53.8845 282.13 51.522 282.624 48.472L284.463 37.3177C284.825 35.1423 285.209 32.8153 285.615 30.3365C285.786 29.037 286.168 27.7743 286.748 26.5991C287.351 25.3164 288.353 24.2634 289.605 23.5975C290.388 23.2103 291.291 23.1443 292.122 23.4135C292.942 23.6714 293.698 24.1004 294.339 24.6722C295.032 25.2533 295.546 26.0188 295.821 26.8799C295.889 27.1026 295.908 27.3349 295.956 27.5576C296.005 27.7803 295.956 28.0321 295.956 28.2548L295.84 29.5813C295.53 33.1445 295.208 36.8755 294.872 40.7743L294.465 40.5904L314.537 19.6179C314.992 19.1532 315.438 18.6497 315.893 18.2043C316.336 17.6978 316.829 17.2372 317.365 16.8294C318.533 16.0373 319.963 15.7285 321.354 15.9676C322.058 16.089 322.73 16.351 323.331 16.738C323.931 17.1251 324.448 17.6292 324.849 18.2203C325.25 18.8114 325.528 19.4773 325.666 20.1783C325.804 20.8792 325.8 21.6009 325.653 22.3C325.511 23.0091 325.239 23.6855 324.849 24.2946C324.439 24.8573 323.978 25.3823 323.474 25.8632L320.628 28.9132L314.818 35.1004L314.479 34.6646C315.622 33.9991 316.971 33.7817 318.265 34.0546C318.808 34.1739 319.328 34.3799 319.805 34.6646C320.055 34.8007 320.278 34.9811 320.463 35.1972C320.662 35.3941 320.843 35.6079 321.005 35.8362C321.646 36.7413 321.985 37.8257 321.973 38.9346C321.865 41.0618 321.197 43.1227 320.037 44.9088L319.611 44.5602C320.14 44.0924 320.783 43.774 321.476 43.6378C322.169 43.5017 322.885 43.5527 323.552 43.7856C324.203 44.0293 324.803 44.3903 325.324 44.8507C325.586 45.0577 325.826 45.2914 326.04 45.5478L326.379 45.9351L326.64 46.3805C326.935 46.9786 327.105 47.6304 327.14 48.2962C327.175 48.962 327.074 49.6279 326.844 50.2536C326.425 51.4815 325.793 52.6256 324.975 53.6328L324.617 53.2358C325.185 52.8284 325.846 52.5705 326.54 52.4859C327.234 52.4013 327.938 52.4927 328.587 52.7517C329.536 53.1286 330.352 53.777 330.934 54.6158C331.516 55.4545 331.838 56.4463 331.859 57.4671C331.845 58.1236 331.74 58.7751 331.55 59.4036C331.116 60.6093 330.503 61.7422 329.729 62.7634C326.621 66.743 322.584 69.5412 318.953 72.3008C315.322 75.0603 311.729 77.7714 308.302 80.2405L298.474 87.1635L298.271 86.8149L298.687 86.6213L298.639 86.9602L280.978 70.9742H281.162L281.065 71.0711L280.968 70.9839L276.833 67.1109L276.766 67.0431L276.824 66.9657C278.263 64.9538 279.435 62.7633 280.309 60.4493C280.61 59.665 280.803 59.0453 280.929 58.629C281.055 58.2126 281.132 58.0093 281.132 58.0093C280.955 58.852 280.715 59.6804 280.416 60.488C279.582 62.8373 278.432 65.0621 276.998 67.1012V66.956C278.199 68.0695 279.535 69.2992 281.162 70.829H280.978L281.065 70.7322L281.171 70.8193L298.929 86.7568L299.161 86.9602L298.881 87.086L298.464 87.2797L298.212 86.8633L308.011 79.9016C311.419 77.4228 315.031 74.8569 318.614 71.9522C322.196 69.0474 326.263 66.375 329.264 62.4826C330.003 61.5092 330.587 60.4283 330.998 59.2777C331.17 58.6987 331.268 58.1 331.288 57.4961C331.269 56.8929 331.138 56.2985 330.901 55.7436C330.409 54.6126 329.49 53.7217 328.345 53.2648C327.775 53.0402 327.158 52.9623 326.551 53.0385C325.943 53.1146 325.365 53.3423 324.869 53.7006L323.387 54.7947L324.568 53.3229C325.34 52.3719 325.934 51.2895 326.321 50.1277C326.538 49.5656 326.635 48.9645 326.607 48.3627C326.578 47.7608 326.425 47.1715 326.156 46.6323C325.515 45.5818 324.54 44.777 323.387 44.3472C322.818 44.1466 322.205 44.1 321.612 44.2122C321.018 44.3245 320.465 44.5915 320.008 44.9862L318.672 46.1966L319.592 44.657C320.695 42.9614 321.33 41.0037 321.431 38.9831C321.488 37.9897 321.192 37.0082 320.595 36.2125C319.998 35.4167 319.138 34.8581 318.168 34.6356C317.008 34.3948 315.8 34.595 314.779 35.1972L313.24 36.0492L314.44 34.7711L320.25 28.584C321.212 27.5641 322.161 26.5474 323.097 25.534C323.563 25.0612 323.985 24.5458 324.355 23.9945C324.706 23.444 324.953 22.8334 325.082 22.1935C325.213 21.5612 325.216 20.9091 325.091 20.2756C324.967 19.642 324.716 19.0398 324.355 18.5044C323.992 17.9809 323.528 17.5344 322.992 17.1904C322.455 16.8465 321.856 16.6119 321.228 16.5002C319.977 16.2787 318.688 16.553 317.636 17.2651C317.129 17.6541 316.662 18.0919 316.241 18.5722L314.886 19.9859L294.795 40.9099L294.339 41.3553L294.407 40.6969C294.756 36.8238 295.095 33.067 295.424 29.5135C295.584 28.669 295.584 27.8019 295.424 26.9573C295.173 26.1732 294.706 25.4754 294.078 24.9433C293.474 24.4078 292.76 24.0112 291.987 23.7814C291.262 23.538 290.471 23.583 289.779 23.9073C288.616 24.5367 287.683 25.5202 287.116 26.7153C286.547 27.8522 286.17 29.076 286.003 30.3365C285.577 32.8056 285.17 35.1778 284.802 37.3177C284.047 41.6554 283.398 45.3929 282.866 48.4526C282.333 51.5123 281.897 53.8555 281.626 55.4725C281.481 56.2664 281.375 56.8667 281.287 57.2928C281.2 57.7188 281.132 57.9706 281.132 57.9706Z" fill="#E0E0E0"/>
<path d="M271.144 67.1572L271.342 66.945C272.088 66.1477 273.119 65.6791 274.21 65.6424C275.301 65.6056 276.361 66.0037 277.159 66.749L298.987 87.154C299.782 87.8976 300.25 88.9266 300.286 90.0149C300.323 91.1031 299.926 92.1612 299.182 92.9566L298.984 93.1689C298.239 93.9661 297.207 94.4347 296.116 94.4714C295.026 94.5082 293.965 94.1102 293.168 93.3649L271.346 72.9664C270.551 72.2229 270.084 71.1938 270.047 70.1056C270.01 69.0174 270.407 67.9592 271.151 67.1638L271.144 67.1572Z" fill="#F5F5F5"/>
<path d="M293.159 93.3382C293.159 93.3382 293.391 93.5319 293.885 93.8127C294.5 94.1624 295.196 94.3462 295.904 94.3462C296.612 94.3462 297.307 94.1624 297.923 93.8127C298.516 93.4391 299.027 92.9482 299.423 92.37C299.895 91.6691 300.128 90.8354 300.09 89.9916C300.052 89.1479 299.743 88.3388 299.21 87.6836L276.94 66.9339C276.431 66.4577 275.802 66.128 275.12 65.9797C274.438 65.8314 273.729 65.8701 273.067 66.0915C272.439 66.3228 271.872 66.6941 271.409 67.1773C270.946 67.6605 270.599 68.2428 270.395 68.8801C270.217 69.5013 270.197 70.1572 270.338 70.7881C270.478 71.4189 270.774 72.0045 271.199 72.4917C272.119 73.4115 273.135 74.3217 274.055 75.1931L284.018 84.5949L290.699 90.9563L292.5 92.7089C292.718 92.9044 292.919 93.1182 293.101 93.3479C292.861 93.1781 292.634 92.9904 292.423 92.7863L290.554 91.1112L283.776 84.8757L273.736 75.5707C272.767 74.6799 271.799 73.8279 270.831 72.8402C270.337 72.2925 269.99 71.6291 269.821 70.9116C269.652 70.194 269.666 69.4454 269.862 68.7348C270.093 68.0111 270.486 67.3497 271.011 66.8009C271.537 66.2522 272.18 65.8307 272.893 65.5686C273.641 65.3276 274.44 65.2902 275.208 65.4604C275.975 65.6306 276.684 66.0021 277.26 66.5369C285.974 74.6799 293.817 82.029 299.443 87.4512C300.015 88.1712 300.34 89.0563 300.369 89.9754C300.399 90.8944 300.132 91.7986 299.607 92.5539C299.18 93.1633 298.625 93.6721 297.981 94.0451C297.433 94.3475 296.824 94.5229 296.199 94.5582C295.34 94.6094 294.486 94.3893 293.759 93.9289C293.53 93.7641 293.327 93.5649 293.159 93.3382Z" fill="#E0E0E0"/>
<path d="M306.462 43.2899C307.663 41.6109 309.008 40.0396 310.481 38.5938C311.821 37.0259 313.299 35.5807 314.896 34.2754C313.698 35.954 312.357 37.5253 310.887 38.9714C309.545 40.5409 308.064 41.9862 306.462 43.2899Z" fill="#E0E0E0"/>
<path d="M314.81 49.9634C315.429 48.8857 316.205 47.9067 317.114 47.0586C317.891 46.1019 318.801 45.2608 319.815 44.5605C319.2 45.6407 318.423 46.6203 317.511 47.4653C316.739 48.4273 315.829 49.2692 314.81 49.9634Z" fill="#E0E0E0"/>
<path d="M319.775 58.8405C320.395 57.763 321.172 56.784 322.08 55.9357C322.852 54.9731 323.766 54.1339 324.791 53.4473C324.17 54.524 323.394 55.5028 322.487 56.352C321.712 57.3125 320.799 58.1513 319.775 58.8405Z" fill="#E0E0E0"/>
<path d="M318.885 12.1897C317.9 10.2896 317.084 8.30672 316.445 6.26399C315.626 4.2867 314.978 2.2426 314.509 0.154297C315.491 2.0557 316.307 4.03829 316.949 6.08002C317.768 8.05732 318.416 10.1014 318.885 12.1897Z" fill="#E0E0E0"/>
<path d="M324.646 13.5943C325.953 11.1824 327.418 8.85996 329.033 6.64224C330.496 4.32262 332.114 2.10358 333.874 0C332.564 2.41175 331.095 4.73418 329.478 6.95208C328.019 9.27271 326.405 11.4919 324.646 13.5943Z" fill="#E0E0E0"/>
<path d="M328.839 18.5232C330.948 17.8032 333.111 17.2528 335.307 16.8772C337.465 16.3278 339.664 15.9554 341.882 15.7637C339.78 16.4976 337.619 17.0515 335.423 17.4194C333.263 17.9691 331.061 18.3383 328.839 18.5232Z" fill="#E0E0E0"/>
<path d="M51.2396 223.775L20.1489 349.484H28.3307L60.1863 223.775H51.2396Z" fill="#F5F5F5"/>
<path d="M109.8 223.775L138.887 349.484H130.705L100.844 223.775H109.8Z" fill="#F5F5F5"/>
<path d="M85.4974 347.633H75.9697L74.5464 203.354H84.074L85.4974 347.633Z" fill="#F5F5F5"/>
<path d="M146.526 118.621H12.103V204.738H146.526V118.621Z" fill="#EBEBEB"/>
<path d="M113.083 222.459H45.6147V230.776H113.083V222.459Z" fill="#F5F5F5"/>
<path d="M21.0299 193.51C21.1129 194.032 21.1453 194.561 21.1267 195.089H20.9427C20.8072 190.877 20.7007 176.924 20.7007 160.386C20.7007 150.413 20.7781 141.379 20.7975 134.737C20.7975 131.523 20.875 128.928 20.904 126.991C20.904 126.129 20.904 125.432 20.9621 124.871C20.9619 124.624 20.9846 124.377 21.0299 124.135C21.0876 124.376 21.1104 124.623 21.0977 124.871C21.0977 125.432 21.0977 126.129 21.1654 126.991C21.1654 128.928 21.2235 131.552 21.272 134.737C21.272 141.379 21.3301 150.413 21.3688 160.386C21.3688 176.924 21.2623 190.877 21.1267 195.089H20.9427C20.9318 194.561 20.961 194.033 21.0299 193.51Z" fill="#F5F5F5"/>
<path d="M31.0423 193.51C31.1112 194.033 31.1403 194.561 31.1294 195.089H30.9745C30.8389 190.877 30.7324 176.924 30.7324 160.386C30.7324 150.413 30.8099 141.379 30.8292 134.737C30.8777 131.523 30.9164 128.928 30.9358 126.991C30.9358 126.129 30.9358 125.432 31.0035 124.871C30.9908 124.623 31.0136 124.376 31.0713 124.135C31.1156 124.377 31.1351 124.624 31.1294 124.871C31.1294 125.432 31.1294 126.129 31.1972 126.991C31.1972 128.928 31.2553 131.552 31.3037 134.737C31.3037 141.379 31.3618 150.413 31.4005 160.386C31.4005 176.924 31.294 190.877 31.1585 195.089H30.9745C30.9463 194.562 30.969 194.033 31.0423 193.51Z" fill="#F5F5F5"/>
<path d="M41.0441 193.51C41.113 194.033 41.1421 194.561 41.1312 195.089H40.9472C40.8117 190.877 40.7148 176.924 40.7148 160.386C40.7148 150.413 40.7826 141.379 40.8117 134.737C40.8117 131.523 40.8891 128.928 40.9182 126.991C40.9182 126.129 40.9182 125.432 40.9763 124.871C40.9697 124.624 40.9925 124.377 41.0441 124.135C41.0956 124.377 41.1184 124.624 41.1118 124.871C41.1118 125.432 41.1118 126.129 41.1699 126.991C41.1699 128.928 41.2377 131.552 41.2764 134.737C41.2764 141.379 41.3345 150.413 41.3733 160.386C41.3733 176.924 41.2764 190.877 41.1312 195.089H40.9472C40.9351 194.561 40.9675 194.033 41.0441 193.51Z" fill="#F5F5F5"/>
<path d="M51.046 193.51C51.1225 194.033 51.1549 194.561 51.1428 195.089H50.9589C50.8136 190.877 50.7168 176.924 50.7168 160.386C50.7168 150.413 50.7846 141.379 50.8136 134.737C50.8136 131.523 50.8911 128.928 50.9201 126.991C50.9201 126.129 50.9685 125.432 50.9782 124.871C50.9717 124.624 50.9944 124.377 51.046 124.135C51.0976 124.377 51.1204 124.624 51.1138 124.871C51.1138 125.432 51.1138 126.129 51.1719 126.991C51.1719 128.928 51.2397 131.552 51.2784 134.737C51.2784 141.379 51.3365 150.413 51.3752 160.386C51.3752 176.924 51.2784 190.877 51.1428 195.089H50.9589C50.9479 194.561 50.9771 194.033 51.046 193.51Z" fill="#F5F5F5"/>
<path d="M61.0482 193.51C61.1312 194.032 61.1636 194.561 61.145 195.089H60.9901C60.8546 190.877 60.748 176.924 60.748 160.386C60.748 150.413 60.8255 141.379 60.8449 134.737C60.8933 131.523 60.9223 128.928 60.9514 126.991C60.9514 126.129 60.9514 125.432 61.0095 124.871C61.0092 124.624 61.0319 124.377 61.0773 124.135C61.135 124.376 61.1578 124.623 61.145 124.871C61.145 125.432 61.145 126.129 61.2128 126.991C61.2128 128.928 61.2709 131.552 61.3193 134.737C61.3193 141.379 61.3774 150.413 61.4161 160.386C61.4161 176.924 61.3096 190.877 61.1741 195.089H60.9901C60.9696 194.562 60.989 194.034 61.0482 193.51Z" fill="#F5F5F5"/>
<path d="M71.0601 193.51C71.129 194.033 71.1581 194.561 71.1472 195.089H70.9633C70.8277 190.877 70.7212 176.924 70.7212 160.386C70.7212 150.413 70.7987 141.379 70.818 134.737C70.818 131.523 70.9052 128.928 70.9245 126.991C70.9245 126.129 70.9245 125.432 70.9923 124.871C70.9795 124.623 71.0024 124.376 71.0601 124.135C71.1044 124.377 71.1239 124.624 71.1182 124.871C71.1182 125.432 71.1182 126.129 71.186 126.991C71.186 128.928 71.244 131.552 71.2925 134.737C71.2925 141.379 71.3506 150.413 71.3893 160.386C71.3893 176.924 71.2828 190.877 71.1472 195.089H70.9633C70.9447 194.561 70.9771 194.032 71.0601 193.51Z" fill="#F5F5F5"/>
<path d="M81.0616 193.51C81.1306 194.033 81.1597 194.561 81.1488 195.089H80.9648C80.8292 190.877 80.7324 176.924 80.7324 160.386C80.7324 150.413 80.8002 141.379 80.8292 134.737C80.8292 131.523 80.9067 128.928 80.9358 126.991C80.9358 126.129 80.9358 125.432 80.9939 124.871C80.9873 124.624 81.01 124.377 81.0616 124.135C81.1132 124.377 81.136 124.624 81.1294 124.871C81.1294 125.432 81.1294 126.129 81.1875 126.991C81.1875 128.928 81.2553 131.552 81.294 134.737C81.294 141.379 81.3521 150.413 81.3908 160.386C81.3908 176.924 81.294 190.877 81.1488 195.089H80.9648C80.9527 194.561 80.9851 194.033 81.0616 193.51Z" fill="#F5F5F5"/>
<path d="M91.0648 193.51C91.1413 194.033 91.1737 194.561 91.1616 195.089H91.0067C90.8615 190.877 90.7646 176.924 90.7646 160.386C90.7646 150.413 90.8324 141.379 90.8615 134.737C90.8615 131.523 90.9389 128.928 90.968 126.991C90.968 126.129 90.968 125.432 91.0261 124.871C91.0195 124.624 91.0423 124.377 91.0939 124.135C91.1454 124.377 91.1682 124.624 91.1616 124.871C91.1616 125.432 91.1616 126.129 91.2197 126.991C91.2197 128.928 91.2875 131.552 91.3262 134.737C91.3262 141.379 91.3843 150.413 91.4231 160.386C91.4231 176.924 91.3262 190.877 91.1907 195.089H91.0067C90.9862 194.562 91.0056 194.034 91.0648 193.51Z" fill="#F5F5F5"/>
<path d="M101.067 193.51C101.149 194.032 101.182 194.561 101.163 195.089H100.979C100.844 190.877 100.737 176.924 100.737 160.386C100.737 150.413 100.815 141.379 100.834 134.737C100.834 131.523 100.912 128.928 100.941 126.991C100.941 126.129 100.989 125.432 100.999 124.871C100.999 124.624 101.021 124.377 101.067 124.135C101.124 124.376 101.147 124.623 101.134 124.871C101.134 125.432 101.134 126.129 101.202 126.991C101.202 128.928 101.26 131.552 101.309 134.737C101.309 141.379 101.367 150.413 101.405 160.386C101.405 176.924 101.299 190.877 101.163 195.089H100.979C100.968 194.561 100.998 194.033 101.067 193.51Z" fill="#F5F5F5"/>
<path d="M111.078 193.51C111.147 194.033 111.176 194.561 111.165 195.089H110.981C110.846 190.877 110.739 176.924 110.739 160.386C110.739 150.413 110.817 141.379 110.836 134.737C110.884 131.523 110.923 128.928 110.943 126.991C110.943 126.129 110.943 125.432 111.01 124.871C110.998 124.623 111.02 124.376 111.078 124.135C111.123 124.377 111.146 124.624 111.146 124.871C111.146 125.432 111.146 126.129 111.204 126.991C111.204 128.928 111.262 131.552 111.311 134.737C111.311 141.379 111.369 150.413 111.407 160.386C111.407 176.924 111.301 190.877 111.165 195.089H110.981C110.963 194.561 110.995 194.032 111.078 193.51Z" fill="#F5F5F5"/>
<path d="M121.081 193.51C121.15 194.033 121.179 194.561 121.168 195.089H121.023C120.887 190.877 120.791 176.924 120.791 160.386C120.791 150.413 120.858 141.379 120.887 134.737C120.887 131.523 120.965 128.928 120.994 126.991C120.994 126.129 120.994 125.432 121.052 124.871C121.045 124.624 121.068 124.377 121.12 124.135C121.171 124.377 121.194 124.624 121.188 124.871C121.188 125.432 121.188 126.129 121.246 126.991C121.246 128.928 121.313 131.552 121.352 134.737C121.352 141.379 121.41 150.413 121.449 160.386C121.449 176.924 121.352 190.877 121.207 195.089H121.023C120.998 194.562 121.017 194.034 121.081 193.51Z" fill="#F5F5F5"/>
<path d="M131.083 193.51C131.159 194.033 131.192 194.561 131.179 195.089H130.995C130.85 190.877 130.753 176.924 130.753 160.386C130.753 150.413 130.821 141.379 130.85 134.737C130.85 131.523 130.928 128.928 130.957 126.991C130.957 126.129 131.005 125.432 131.015 124.871C131.008 124.624 131.031 124.377 131.083 124.135C131.134 124.377 131.157 124.624 131.15 124.871C131.15 125.432 131.15 126.129 131.208 126.991C131.208 128.928 131.276 131.552 131.315 134.737C131.315 141.379 131.373 150.413 131.412 160.386C131.412 176.924 131.315 190.877 131.179 195.089H130.995C130.985 194.561 131.014 194.033 131.083 193.51Z" fill="#F5F5F5"/>
<path d="M141.085 193.51C141.168 194.032 141.2 194.561 141.181 195.089H140.997C140.862 190.877 140.755 176.924 140.755 160.386C140.755 150.413 140.833 141.379 140.852 134.737C140.901 131.523 140.93 128.928 140.959 126.991C140.959 126.129 140.959 125.432 141.017 124.871C141.017 124.624 141.039 124.377 141.085 124.135C141.142 124.376 141.165 124.623 141.152 124.871C141.152 125.432 141.152 126.129 141.22 126.991C141.22 128.928 141.278 131.552 141.327 134.737C141.327 141.379 141.385 150.413 141.423 160.386C141.423 176.924 141.317 190.877 141.181 195.089H140.997C140.987 194.561 141.016 194.033 141.085 193.51Z" fill="#F5F5F5"/>
<path d="M242.722 57.1101L235.179 125.072C233.891 136.633 229.641 153.345 211.467 150.489C195.878 146.809 193.535 131.337 194.745 120.55C195.316 115.438 195.781 111.168 195.81 110.645C195.81 110.645 178.691 107.092 179.35 89.8275C179.669 81.4908 181.712 64.3527 183.745 48.88C184.801 40.8645 188.836 33.5405 195.048 28.3659C201.26 23.1912 209.192 20.5455 217.266 20.9555L218.932 21.0329C236.825 22.9598 245.162 39.2749 242.722 57.1101Z" fill="#E8B5AD"/>
<path d="M195.81 110.646C203.779 111.024 211.689 109.108 218.603 105.127C218.603 105.127 212.493 117.453 195.365 115.032L195.81 110.646Z" fill="#80605B"/>
<path d="M212.038 59.492C212.338 59.8793 214.507 58.5238 217.373 58.8143C220.239 59.1047 222.214 60.7508 222.553 60.4312C222.727 60.2763 222.446 59.6082 221.585 58.8336C220.432 57.8388 218.996 57.2323 217.479 57.1004C215.983 56.952 214.478 57.2917 213.19 58.0687C212.289 58.6981 211.931 59.3177 212.038 59.492Z" fill="#263E4A"/>
<path d="M211.428 65.4172C211.393 66.0248 211.596 66.6223 211.993 67.0831C212.391 67.5439 212.952 67.832 213.558 67.8863C213.854 67.924 214.154 67.9023 214.441 67.8225C214.728 67.7427 214.996 67.6063 215.23 67.4214C215.463 67.2365 215.658 67.0068 215.801 66.7458C215.945 66.4847 216.035 66.1976 216.066 65.9014C216.101 65.2948 215.898 64.6985 215.5 64.2392C215.103 63.7799 214.541 63.4939 213.936 63.442C213.641 63.4042 213.342 63.4255 213.055 63.5048C212.769 63.584 212.501 63.7195 212.268 63.9034C212.034 64.0873 211.84 64.3159 211.696 64.5758C211.551 64.8357 211.461 65.1218 211.428 65.4172Z" fill="#263E4A"/>
<path d="M202.443 78.5185C202.443 78.3636 200.835 77.9956 198.182 77.5503C197.504 77.4437 196.875 77.2791 196.778 76.8144C196.765 76.1283 196.957 75.4538 197.33 74.8779L199.596 69.8236C202.743 62.6197 205.057 56.6843 204.766 56.5681C204.476 56.452 201.687 62.1744 198.54 69.3782C197.772 71.1469 197.046 72.8413 196.362 74.4615C195.89 75.2566 195.718 76.1942 195.878 77.1049C195.962 77.3496 196.103 77.5715 196.287 77.7529C196.472 77.9343 196.697 78.0705 196.943 78.1506C197.312 78.2745 197.696 78.3462 198.085 78.3636C200.758 78.5669 202.423 78.6637 202.443 78.5185Z" fill="#263E4A"/>
<path d="M214.623 48.8764C214.826 49.5445 217.17 49.3509 219.9 49.8447C222.631 50.3385 224.809 51.2099 225.196 50.6387C225.38 50.3579 225.022 49.6704 224.16 49.0411C223.021 48.1911 221.692 47.6327 220.287 47.4144C218.893 47.1644 217.458 47.2676 216.114 47.7145C215.078 48.0728 214.546 48.5569 214.623 48.8764Z" fill="#263E4A"/>
<path d="M187.715 48.8811C187.957 49.433 190.262 49.1328 192.973 49.3846C195.684 49.6363 197.901 50.2657 198.25 49.7525C198.405 49.5104 198.017 48.9972 197.127 48.4647C195.932 47.8092 194.612 47.4164 193.253 47.3125C191.866 47.1827 190.467 47.3477 189.148 47.7966C188.112 48.1355 187.618 48.6099 187.715 48.8811Z" fill="#263E4A"/>
<path d="M240.67 69.816C240.97 69.6998 252.705 66.9112 251.737 78.6852C250.768 90.4592 239.149 87.0509 239.149 86.7121C239.149 86.3732 240.67 69.816 240.67 69.816Z" fill="#E8B5AD"/>
<path d="M243.109 82.5467C243.167 82.5467 243.303 82.7113 243.642 82.8953C244.112 83.1452 244.661 83.2008 245.172 83.0502C246.45 82.7016 247.66 80.8135 247.893 78.693C248.007 77.6868 247.894 76.6678 247.563 75.7108C247.483 75.3335 247.313 74.9813 247.067 74.6845C246.82 74.3877 246.506 74.1551 246.15 74.0067C245.919 73.9262 245.667 73.9285 245.437 74.0133C245.207 74.0981 245.014 74.26 244.891 74.4714C244.707 74.7813 244.765 75.0233 244.697 75.0427C244.63 75.0621 244.465 74.82 244.6 74.3456C244.687 74.0587 244.872 73.8118 245.123 73.6484C245.464 73.4283 245.878 73.3518 246.276 73.4354C246.751 73.5719 247.184 73.8277 247.533 74.1785C247.882 74.5292 248.136 74.9634 248.27 75.4397C248.693 76.499 248.847 77.647 248.716 78.7802C248.444 81.1524 247.05 83.2729 245.307 83.6215C244.982 83.6872 244.647 83.6797 244.325 83.5993C244.004 83.5189 243.704 83.3677 243.448 83.1567C243.109 82.8372 243.071 82.5661 243.109 82.5467Z" fill="#80605B"/>
<path d="M204.204 86.9717C204.117 86.6619 206.499 86.2552 208.378 84.2993C209.165 83.4386 209.835 82.4783 210.372 81.443C210.818 80.6296 211.147 80.1261 211.273 80.1842C211.399 80.2423 211.273 80.8136 210.982 81.7141C210.583 82.9215 209.921 84.0258 209.046 84.9481C208.154 85.8832 207.022 86.5534 205.773 86.8846C204.834 87.1266 204.224 87.0782 204.204 86.9717Z" fill="#263E4A"/>
<path d="M186.864 55.785C187.164 56.1723 189.333 54.8167 192.199 55.1072C195.065 55.3977 197.04 57.0437 197.379 56.7145C197.553 56.5693 197.272 55.9012 196.411 55.1266C195.261 54.1278 193.823 53.5207 192.305 53.3934C190.808 53.245 189.304 53.5846 188.016 54.3617C187.086 54.991 186.728 55.6107 186.864 55.785Z" fill="#263E4A"/>
<path d="M186.67 62.3584C186.635 62.966 186.837 63.5634 187.235 64.0243C187.633 64.4851 188.194 64.7731 188.8 64.8274C189.092 64.8655 189.389 64.8455 189.673 64.7687C189.957 64.6919 190.223 64.5597 190.456 64.3798C190.689 64.1999 190.884 63.9758 191.03 63.7203C191.177 63.4648 191.271 63.1829 191.308 62.8909C191.348 62.2847 191.148 61.687 190.751 61.2269C190.355 60.7667 189.793 60.4811 189.187 60.4316C188.895 60.3908 188.598 60.4084 188.313 60.4835C188.028 60.5585 187.76 60.6894 187.526 60.8687C187.292 61.048 187.095 61.2719 186.948 61.5277C186.802 61.7834 186.707 62.0658 186.67 62.3584Z" fill="#263E4A"/>
<path d="M249.973 59.2789C249.112 62.5613 247.069 70.0459 244.164 69.3778C238.354 68.061 238.693 77.3756 235.885 76.2815C233.077 75.1874 232.419 67.7802 232.738 64.827C233.707 55.5995 237.251 48.9767 233.348 38.4421C232.138 36.3517 230.408 34.6091 228.327 33.3827C226.246 32.1564 223.883 31.4878 221.468 31.4416C219.034 31.4432 216.641 32.0667 214.516 33.2529C212.391 34.4391 210.605 36.1487 209.326 38.2194C208.726 34.9951 207.041 30.1538 204.126 28.6627C202.668 27.9017 201.017 27.5878 199.381 27.76C197.745 27.9322 196.196 28.583 194.928 29.6309C193.718 30.7422 192.953 32.2551 192.775 33.8883C192.596 35.5216 193.018 37.1639 193.96 38.5098C193.297 38.7233 192.583 38.719 191.923 38.4978C191.263 38.2765 190.69 37.8499 190.29 37.2801C190.25 38.0379 190.366 38.7958 190.631 39.507C190.896 40.2181 191.304 40.8674 191.83 41.4146C190.635 41.1483 189.577 40.4609 188.847 39.4781L189.816 43.4673C184.974 43.7094 180.046 39.1005 178.594 34.9273C176.396 28.5949 177.829 22.1269 181.256 16.3755C184.684 10.6241 190.939 6.47992 197.717 6.38309C204.494 6.28627 210.101 9.33627 212.821 15.4557C217.101 12.2798 225.883 11.0114 230.773 13.1028C233.218 14.1796 235.347 15.8642 236.957 17.9963C238.567 20.1284 239.605 22.637 239.971 25.2835C242.973 23.9376 246.633 24.8477 249.238 26.8617L249.867 27.3846C251.61 28.9696 252.922 30.9709 253.68 33.2011C254.439 35.4313 254.619 37.8176 254.205 40.1365C253.895 41.9956 253.295 43.9321 252.956 45.4329C251.813 49.8772 249.973 59.2789 249.973 59.2789Z" fill="#263E4A"/>
<path d="M189.459 37.0282C189.459 37.0282 189.304 36.9411 189.062 36.7281C188.704 36.4206 188.38 36.0766 188.094 35.7017C186.986 34.305 186.286 32.6297 186.07 30.8605C185.875 29.555 185.961 28.2228 186.324 26.9535C186.686 25.6842 187.316 24.5072 188.171 23.5017C189.22 22.2631 190.554 21.2984 192.059 20.691C193.563 20.0837 195.194 19.852 196.808 20.016C198.469 20.2241 200.062 20.8068 201.465 21.7201C202.774 22.544 203.947 23.5664 204.941 24.7508C206.63 26.7222 207.875 29.0337 208.592 31.5285C209.074 33.212 209.306 34.9576 209.279 36.7087C209.279 37.3284 209.221 37.8029 209.173 38.1224C209.163 38.2867 209.134 38.4492 209.085 38.6065C209.191 36.2496 208.91 33.8913 208.253 31.6254C207.506 29.1854 206.256 26.9292 204.583 25.0025C202.612 22.585 199.827 20.9702 196.75 20.4614C195.216 20.312 193.669 20.533 192.239 21.1058C190.808 21.6787 189.536 22.5867 188.529 23.7535C187.705 24.7081 187.092 25.8261 186.73 27.0342C186.368 28.2422 186.265 29.5131 186.428 30.7636C186.601 32.4878 187.222 34.1368 188.229 35.5468C188.955 36.5635 189.488 36.9895 189.459 37.0282Z" fill="#455A64"/>
<path d="M187.338 42.1781C187.198 42.012 187.078 41.83 186.98 41.6359C186.757 41.268 186.438 40.6676 186.012 40.0092C184.867 38.0084 183.92 35.9005 183.184 33.7156C182.69 32.1887 182.4 30.6031 182.323 29.0001C182.227 27.146 182.521 25.2925 183.184 23.5586C183.958 21.6368 185.282 19.9862 186.99 18.8141C188.814 17.5633 190.933 16.8091 193.138 16.6258C195.332 16.4568 197.537 16.7572 199.606 17.5069C201.527 18.1998 203.332 19.1791 204.961 20.4117C207.801 22.4188 209.898 25.3091 210.925 28.6322C211.564 30.8859 211.5 33.2809 210.741 35.4971C210.528 36.0879 210.255 36.6556 209.928 37.1916C209.814 37.3798 209.684 37.5579 209.54 37.7241C209.926 36.9872 210.25 36.2196 210.509 35.4294C211.172 33.2451 211.172 30.9133 210.509 28.729C209.461 25.5081 207.39 22.717 204.612 20.7797C201.363 18.2651 197.33 16.9791 193.225 17.1487C191.106 17.331 189.069 18.0545 187.309 19.2498C185.678 20.3651 184.409 21.9337 183.659 23.7619C183.006 25.4317 182.706 27.2185 182.778 29.0098C182.838 30.58 183.102 32.1357 183.562 33.6381C184.264 35.813 185.155 37.9222 186.225 39.9414L187.067 41.6165C187.174 41.7952 187.265 41.9831 187.338 42.1781Z" fill="#455A64"/>
<path d="M245.782 52.0078C245.724 51.9304 246.818 51.1267 248.164 49.442C249.933 47.2663 251.127 44.6803 251.635 41.9221C252.142 39.164 251.948 36.3225 251.069 33.6594C250.401 31.6067 249.665 30.4641 249.752 30.4254C249.839 30.3867 249.984 30.6675 250.304 31.2C250.744 31.9452 251.113 32.7296 251.408 33.5432C252.404 36.2508 252.655 39.1765 252.134 42.0143C251.613 44.852 250.338 47.4976 248.445 49.6743C247.88 50.3288 247.258 50.9315 246.586 51.4753C246.345 51.6906 246.074 51.87 245.782 52.0078Z" fill="#455A64"/>
<path d="M235.392 51.9118C235.392 51.8634 235.954 51.6407 236.844 51.0017C238.085 50.1078 239.053 48.8879 239.643 47.4772L240.088 46.3734L240.011 47.5644C239.904 49.1717 239.778 51.021 239.652 53.035L239.275 52.822C240.879 51.6676 242.239 50.2077 243.278 48.5262C244.316 46.8447 245.013 44.9745 245.326 43.0232C245.588 41.2399 245.536 39.4244 245.171 37.6591C244.783 36.0377 244.205 34.4679 243.448 32.9824C243.533 33.0669 243.608 33.1612 243.671 33.2632C243.86 33.5376 244.035 33.822 244.194 34.1153C244.784 35.2072 245.227 36.3729 245.51 37.5816C246.191 40.4843 245.987 43.5244 244.924 46.3099C243.861 49.0953 241.988 51.4984 239.546 53.2093L239.13 53.4998V52.9963L239.585 47.5353L239.962 47.6225C239.322 49.081 238.269 50.3199 236.932 51.1856C236.57 51.4179 236.188 51.6156 235.789 51.7763C235.663 51.8371 235.529 51.8826 235.392 51.9118Z" fill="#455A64"/>
<path d="M231.674 27.9632C230.984 26.7225 230.06 25.6275 228.953 24.7389C227.733 23.8248 226.312 23.2141 224.809 22.9573C222.96 22.657 221.064 22.8714 219.329 23.577C217.588 24.274 216.038 25.376 214.807 26.7916C213.807 27.9438 213.002 29.2521 212.425 30.6646C211.936 32.0047 211.551 33.3805 211.273 34.7797C211.235 34.3917 211.254 34.0001 211.331 33.6178C211.467 32.5664 211.72 31.5336 212.086 30.5388C212.638 29.0515 213.441 27.6695 214.459 26.4527C215.723 24.9622 217.331 23.8023 219.145 23.0735C220.967 22.3366 222.96 22.1252 224.896 22.4635C226.466 22.765 227.936 23.4503 229.176 24.4581C230.008 25.1313 230.704 25.956 231.229 26.8884C231.367 27.1421 231.49 27.404 231.597 27.6727C231.64 27.7641 231.666 27.8625 231.674 27.9632Z" fill="#455A64"/>
<path d="M228.808 19.3282C227.778 18.8393 226.701 18.4565 225.593 18.1857C222.94 17.6863 220.196 18.1426 217.847 19.4735C215.518 20.883 213.64 22.9289 212.435 25.3702C211.466 27.2292 211.205 28.517 211.118 28.4879C211.114 28.1785 211.163 27.8706 211.263 27.5778C211.477 26.7635 211.762 25.9697 212.115 25.2056C213.27 22.6573 215.175 20.5224 217.576 19.0862C220.039 17.6743 222.944 17.2454 225.71 17.8855C226.537 18.0914 227.33 18.4177 228.062 18.8538C228.332 18.9757 228.583 19.1355 228.808 19.3282Z" fill="#455A64"/>
<path d="M159.035 287.514L267.228 288.986C267.228 288.986 297.486 276.321 305.804 275.982C314.121 275.643 330.62 276.699 338.25 288.986C346.141 301.689 347.245 324.095 322.932 340.371C299.249 356.231 190.968 370.881 176.125 369.535L148.782 332.799C148.782 332.799 148.501 302.696 148.782 301.263C149.062 299.83 153.623 286.933 153.623 286.933L159.035 287.514Z" fill="#263E4A"/>
<path d="M223.812 338.33L279.884 359.157L254.332 429.036C247.806 426.19 247.622 385.136 247.622 385.136L211.147 373.265L223.812 338.33Z" fill="#E05151"/>
<g opacity="0.6">
<path d="M252.492 362.423C252.942 361.825 253.597 361.415 254.332 361.27C255.066 361.126 255.828 361.257 256.471 361.639C257.087 362.063 257.515 362.709 257.666 363.441C257.818 364.173 257.681 364.936 257.285 365.57C256.442 366.809 254.215 367.332 253.063 366.383C251.911 365.434 251.562 363.188 252.676 362.191" fill="white"/>
</g>
<path d="M279.883 359.155L274.219 357.006L251.794 424.977C251.794 424.977 252.007 428.589 254.331 429.034L279.883 359.155Z" fill="#263E4A"/>
<path d="M246.895 386.131C247.243 386.247 248.018 384.601 249.732 383.323C251.446 382.044 253.208 381.677 253.189 381.309C253.169 380.941 251.01 380.737 248.967 382.277C246.924 383.816 246.508 386.053 246.895 386.131Z" fill="#263E4A"/>
<path d="M247.205 394.578C247.505 394.771 248.619 393.513 250.487 392.883C252.356 392.254 254.002 392.467 254.118 392.128C254.234 391.789 252.375 390.86 250.071 391.683C247.767 392.506 246.895 394.452 247.205 394.578Z" fill="#263E4A"/>
<path d="M254.448 401.948C254.641 401.667 253.102 400.563 250.914 400.757C248.725 400.951 247.399 402.277 247.631 402.529C247.864 402.781 249.219 402.151 251.02 402.016C252.821 401.88 254.293 402.277 254.448 401.948Z" fill="#263E4A"/>
<path d="M238.84 382.515C239.198 382.515 239.304 380.743 240.137 378.864C240.97 376.986 242.132 375.698 241.909 375.417C241.686 375.137 239.972 376.134 239.004 378.322C238.036 380.511 238.51 382.583 238.84 382.515Z" fill="#263E4A"/>
<path d="M231.151 377.816C231.296 377.865 231.994 376.596 232.42 374.311C232.651 372.966 232.723 371.597 232.633 370.235C232.572 369.429 232.462 368.627 232.303 367.834C232.223 367.362 232.073 366.906 231.858 366.478C231.7 366.165 231.442 365.913 231.124 365.764C230.806 365.615 230.448 365.576 230.105 365.655C229.805 365.738 229.528 365.891 229.298 366.102C229.067 366.312 228.889 366.574 228.779 366.865C228.616 367.308 228.515 367.77 228.479 368.24C228.386 369.054 228.37 369.874 228.43 370.69C228.536 372.07 228.863 373.423 229.399 374.699C230.309 376.868 231.335 377.884 231.49 377.797C231.645 377.71 230.87 376.5 230.241 374.399C229.872 373.175 229.663 371.909 229.621 370.632C229.598 369.885 229.637 369.136 229.738 368.395C229.815 367.582 230.038 366.953 230.435 366.885C230.59 366.885 230.638 366.885 230.803 367.108C230.948 367.416 231.056 367.741 231.122 368.076C231.291 368.81 231.417 369.554 231.5 370.303C231.639 371.589 231.658 372.886 231.558 374.176C231.403 376.374 230.967 377.749 231.151 377.816Z" fill="#263E4A"/>
<path d="M231.81 377.548C231.907 377.451 230.929 376.328 228.76 375.389C227.492 374.839 226.14 374.512 224.761 374.421C223.939 374.379 223.116 374.418 222.302 374.537C221.772 374.556 221.256 374.713 220.804 374.991C220.353 375.27 219.982 375.66 219.726 376.125C219.618 376.436 219.601 376.773 219.678 377.094C219.755 377.415 219.923 377.707 220.162 377.935C220.504 378.267 220.892 378.547 221.314 378.768C222.052 379.175 222.849 379.465 223.676 379.63C225.054 379.922 226.482 379.862 227.83 379.455C230.144 378.758 231.074 377.519 230.967 377.412C230.861 377.306 229.747 378.177 227.627 378.594C226.401 378.827 225.14 378.794 223.928 378.497C223.231 378.319 222.56 378.048 221.934 377.693C221.227 377.306 220.733 376.812 220.907 376.56C221.082 376.309 221.808 375.824 222.505 375.757C223.234 375.633 223.973 375.575 224.712 375.582C225.983 375.61 227.244 375.812 228.46 376.183C230.541 376.89 231.684 377.722 231.81 377.548Z" fill="#263E4A"/>
<path d="M177.568 329.697L123.345 354.872L154.329 422.534C160.604 419.183 157.563 378.236 157.563 378.236L192.992 363.538L177.568 329.697Z" fill="#E05151"/>
<g opacity="0.6">
<path d="M150.873 355.961C150.378 355.401 149.693 355.042 148.95 354.954C148.207 354.867 147.457 355.057 146.845 355.487C146.265 355.96 145.889 356.639 145.797 357.382C145.705 358.126 145.904 358.876 146.351 359.476C147.32 360.638 149.537 360.987 150.612 359.951C151.687 358.915 151.861 356.649 150.67 355.748" fill="white"/>
</g>
<path d="M123.317 354.857L128.788 352.32L156.489 418.278C156.489 418.278 156.557 421.89 154.282 422.519L123.317 354.857Z" fill="#263E4A"/>
<path d="M158.367 379.16C158.028 379.305 157.118 377.717 155.317 376.575C153.516 375.432 151.725 375.21 151.715 374.842C151.706 374.474 153.846 374.096 156.005 375.519C158.164 376.943 158.697 379.092 158.367 379.16Z" fill="#263E4A"/>
<path d="M158.678 387.608C158.387 387.831 157.177 386.64 155.26 386.175C153.343 385.71 151.726 386.039 151.59 385.71C151.455 385.381 153.227 384.306 155.589 384.945C157.952 385.584 158.988 387.453 158.678 387.608Z" fill="#263E4A"/>
<path d="M152.005 395.525C151.802 395.254 153.235 394.034 155.433 394.053C157.631 394.072 159.064 395.292 158.851 395.563C158.638 395.835 157.234 395.312 155.433 395.321C153.632 395.331 152.209 395.835 152.005 395.525Z" fill="#263E4A"/>
<path d="M166.065 374.921C165.697 374.921 165.464 373.188 164.477 371.387C163.489 369.586 162.24 368.385 162.453 368.085C162.666 367.785 164.467 368.647 165.6 370.796C166.733 372.946 166.394 374.96 166.065 374.921Z" fill="#263E4A"/>
<path d="M173.357 369.596C173.221 369.663 172.389 368.443 171.827 366.197C171.48 364.875 171.298 363.516 171.285 362.15C171.282 361.344 171.331 360.538 171.43 359.739C171.464 359.259 171.576 358.789 171.759 358.344C171.89 358.017 172.128 357.744 172.434 357.568C172.739 357.392 173.095 357.325 173.444 357.376C173.752 357.43 174.042 357.558 174.29 357.748C174.538 357.939 174.736 358.187 174.867 358.47C175.064 358.93 175.191 359.416 175.245 359.913C175.4 360.717 175.481 361.534 175.487 362.353C175.492 363.729 175.283 365.098 174.867 366.41C174.131 368.647 173.144 369.75 173.028 369.663C172.911 369.576 173.531 368.327 173.996 366.178C174.267 364.932 174.375 363.656 174.315 362.382C174.282 361.633 174.185 360.888 174.025 360.155C173.889 359.361 173.618 358.741 173.212 358.703C173.057 358.703 173.008 358.703 172.863 358.954C172.745 359.266 172.667 359.591 172.631 359.923C172.517 360.67 172.45 361.423 172.427 362.179C172.384 363.474 172.465 364.771 172.669 366.052C173.047 368.24 173.541 369.596 173.357 369.596Z" fill="#263E4A"/>
<path d="M172.688 369.422C172.582 369.325 173.463 368.124 175.545 367.03C177.511 366.015 179.719 365.563 181.925 365.723C182.456 365.7 182.984 365.814 183.457 366.055C183.93 366.296 184.333 366.655 184.627 367.098C184.757 367.403 184.798 367.739 184.745 368.066C184.692 368.393 184.547 368.699 184.327 368.947C184.01 369.303 183.645 369.613 183.242 369.867C182.538 370.329 181.767 370.682 180.957 370.913C179.607 371.306 178.18 371.36 176.803 371.068C174.441 370.545 173.414 369.354 173.511 369.267C173.608 369.18 174.789 369.944 176.939 370.235C178.179 370.373 179.434 370.241 180.618 369.848C181.307 369.619 181.959 369.293 182.555 368.879C183.223 368.444 183.688 367.911 183.523 367.679C183.315 367.452 183.06 367.274 182.775 367.157C182.491 367.04 182.184 366.987 181.877 367.001C181.136 366.928 180.391 366.928 179.65 367.001C178.387 367.121 177.148 367.421 175.971 367.892C173.889 368.628 172.814 369.596 172.688 369.422Z" fill="#263E4A"/>
<path d="M153.652 286.947C153.652 286.947 106.924 269.518 89.7474 271.745C80.1326 273.014 65.0956 280.353 63.9434 292.679C62.7911 305.005 65.8121 321.494 82.437 329.521C99.062 337.548 165.426 367.332 181.199 371.912C196.972 376.491 236.245 387.239 236.245 387.239L251.175 344.636C251.175 344.636 169.696 316.421 165.397 313.264C161.098 310.108 150.205 305.818 150.205 305.818L153.652 286.947Z" fill="#263E4A"/>
<path d="M316.096 292.725L315.766 292.648L314.798 292.357C313.975 292.115 312.755 291.757 311.167 291.389C306.688 290.252 302.045 289.908 297.447 290.372C294.276 290.644 291.142 291.241 288.094 292.154C286.402 292.666 284.754 293.314 283.165 294.09L278.082 296.579C271.091 299.919 263.277 303.357 254.97 306.62C238.316 313.291 222.33 316.457 210.933 319.052C205.221 320.311 200.592 321.356 197.378 322.112L193.708 322.983L192.74 323.196L192.411 323.254C192.507 323.201 192.612 323.165 192.72 323.148L193.689 322.886C194.521 322.664 195.741 322.315 197.339 321.918C200.505 321.105 205.085 319.981 210.827 318.703C222.214 316.021 238.151 312.807 254.747 306.116C263.055 302.834 270.859 299.435 277.85 296.114L282.943 293.655C284.556 292.875 286.23 292.227 287.948 291.718C291.025 290.806 294.189 290.225 297.389 289.985C302.041 289.539 306.735 289.94 311.245 291.166C312.833 291.573 314.043 291.96 314.866 292.241L315.786 292.58L316.096 292.725Z" fill="#455A64"/>
<path d="M313.637 286.568C313.637 286.655 312.213 286.393 309.928 286.151C303.963 285.494 297.93 285.804 292.064 287.071C289.808 287.545 288.433 287.942 288.414 287.865C288.719 287.699 289.044 287.572 289.382 287.487C289.992 287.274 290.892 287.003 292.015 286.722C294.95 285.987 297.95 285.539 300.972 285.386C303.989 285.234 307.014 285.371 310.006 285.793C311.158 285.967 312.078 286.141 312.707 286.287C313.026 286.347 313.338 286.441 313.637 286.568Z" fill="#455A64"/>
<path d="M133.997 299.302C133.948 299.369 132.651 298.333 130.414 296.987C124.571 293.354 118.005 291.041 111.175 290.21C108.561 289.88 106.924 289.851 106.924 289.764C107.304 289.696 107.691 289.673 108.077 289.696C108.822 289.696 109.897 289.696 111.214 289.851C118.133 290.509 124.783 292.86 130.579 296.697C131.457 297.267 132.304 297.885 133.116 298.546C133.442 298.758 133.738 299.012 133.997 299.302Z" fill="#455A64"/>
<path d="M157.447 362.816L157.815 362.951L158.87 363.397C159.839 363.784 161.175 364.423 163.005 365.13C166.645 366.573 172.019 368.548 178.923 370.823C192.721 375.326 212.56 381.077 236.302 387.051L236.04 387.197L250.487 347.101L250.622 347.421L232.729 340.072L133.744 299.298C129.716 295.038 125.998 291.281 122.532 288.241C119.585 285.642 116.442 283.276 113.13 281.163C111.046 279.851 108.893 278.652 106.681 277.571L104.948 276.757L104.367 276.467L104.968 276.719L106.72 277.483C108.956 278.53 111.129 279.707 113.227 281.008C116.568 283.099 119.738 285.453 122.706 288.047C126.211 291.068 129.939 294.825 133.986 299.066H133.928L232.923 339.578L250.816 346.927L251.029 347.014L250.951 347.246L236.428 387.322L236.36 387.516L236.157 387.468C212.415 381.445 192.585 375.636 178.797 371.007C171.903 368.703 166.539 366.679 162.908 365.198C161.088 364.481 159.732 363.813 158.803 363.406L157.757 362.932L157.447 362.816Z" fill="#455A64"/>
<path d="M272.941 138.018C272.941 138.018 286.4 145.764 289.13 154.875C290.786 160.404 303.335 231.144 305.32 245.087C307.305 259.03 303.112 269.371 297.167 273.999C291.222 278.628 273.183 284.786 273.183 284.786L247.863 293.006L240.592 274.493L264.701 239.849L262.387 216.446L272.941 138.018Z" fill="#E05151"/>
<path d="M246.498 125.799L236.389 119.99C236.389 119.99 227.181 130.757 214.623 129.44C202.065 128.123 194.609 118.547 194.609 118.547L157.157 126.167C154.649 126.671 150.069 128.258 145.683 134.523C140.793 141.504 117.604 172.479 117.604 172.479H101.415C99.222 172.479 97.0711 173.077 95.194 174.21C93.3169 175.344 91.785 176.968 90.7637 178.908C87.9945 184.185 84.6734 191.234 84.9542 194.158C85.5061 199.106 84.5475 212.671 91.1801 216.902C93.2812 218.248 100.795 222.276 106.672 222.005C115.28 221.598 125.282 217.115 131.043 213.087C135.884 209.669 147.261 197.876 151.628 193.277V193.374L154.436 291.603L252.617 288.815L272.951 138.038C272.951 138.038 247.486 125.799 246.498 125.799Z" fill="#E05151"/>
<path d="M151.27 152.125C151.406 152.125 151.667 164.296 151.841 179.314C152.016 194.331 152.054 206.512 151.909 206.512C151.764 206.512 151.512 194.341 151.338 179.323C151.164 164.306 151.135 152.125 151.27 152.125Z" fill="#263E4A"/>
<path d="M284.831 231.534C284.831 231.534 283.998 231.669 282.517 231.95C280.424 232.367 278.384 233.017 276.436 233.887C273.552 235.188 270.835 236.829 268.341 238.777C265.286 241.168 262.432 243.807 259.811 246.668C257.003 249.698 254.447 252.69 252.065 255.382C249.95 257.752 247.717 260.015 245.374 262.16C243.789 263.611 242.111 264.957 240.349 266.188C239.729 266.624 239.216 266.914 238.877 267.156C238.712 267.274 238.533 267.372 238.345 267.447C238.49 267.305 238.649 267.179 238.819 267.069C239.139 266.827 239.632 266.507 240.233 266.043C241.946 264.765 243.582 263.388 245.132 261.918C247.117 260.078 249.334 257.735 251.716 255.053C254.098 252.371 256.654 249.369 259.462 246.339C262.106 243.463 264.989 240.816 268.08 238.428C270.612 236.479 273.376 234.853 276.31 233.587C278.292 232.737 280.369 232.133 282.497 231.786C283.252 231.64 283.843 231.64 284.24 231.592C284.434 231.549 284.632 231.529 284.831 231.534Z" fill="#263E4A"/>
<path d="M287.058 224.881C287.058 224.968 285.567 225.181 283.185 225.849C277.064 227.543 271.509 230.851 267.103 235.425C265.418 237.178 264.517 238.398 264.45 238.33C264.6 238.008 264.788 237.706 265.011 237.429C265.571 236.638 266.183 235.884 266.841 235.173C271.166 230.392 276.826 227.019 283.089 225.491C284.03 225.26 284.984 225.082 285.945 224.958C286.311 224.881 286.686 224.855 287.058 224.881Z" fill="#263E4A"/>
<g opacity="0.3">
<path d="M104.319 207.634C109.518 209.048 115.754 201.573 120.479 196.896C122.929 194.456 125.485 191.861 126.395 188.521C127.034 185.714 126.745 182.775 125.572 180.146C124.701 177.775 123.54 175.521 122.115 173.436C122.551 177.473 123.548 183.651 122.193 188.724C121.06 192.956 118.378 196.315 115.531 199.511C112.53 202.89 108.966 206.434 104.319 207.634Z" fill="#0A0A0A"/>
</g>
<path d="M126.541 203.352C126.444 203.352 127.044 201.639 127.509 198.821C127.791 197.173 127.95 195.506 127.984 193.834C128.018 191.79 127.882 189.746 127.577 187.725C127.243 185.706 126.744 183.717 126.086 181.78C125.534 180.2 124.867 178.663 124.091 177.18C122.765 174.644 121.671 173.23 121.748 173.172C122.053 173.462 122.323 173.787 122.552 174.14C122.857 174.522 123.138 174.923 123.394 175.341C123.704 175.825 124.072 176.367 124.411 177.006C125.236 178.484 125.942 180.025 126.522 181.615C127.218 183.572 127.736 185.588 128.071 187.638C128.386 189.691 128.512 191.768 128.448 193.844C128.396 195.539 128.199 197.227 127.858 198.889C127.742 199.605 127.558 200.225 127.412 200.825C127.295 201.3 127.153 201.769 126.986 202.229C126.874 202.617 126.725 202.993 126.541 203.352Z" fill="#263E4A"/>
<path d="M198.716 122.34C198.783 122.466 197.631 123.134 196.43 124.218C195.23 125.303 194.416 126.358 194.3 126.271C194.722 125.344 195.333 124.516 196.093 123.839C196.853 123.162 197.746 122.652 198.716 122.34Z" fill="#263E4A"/>
<path d="M208.93 128.275C209.036 128.382 208.049 129.437 207.255 131.006C206.461 132.574 206.161 133.988 206.015 133.911C205.946 132.792 206.223 131.68 206.809 130.725C207.254 129.714 207.993 128.861 208.93 128.275Z" fill="#263E4A"/>
<path d="M226.426 134.436C225.958 133.507 225.582 132.534 225.303 131.531C224.875 130.577 224.551 129.581 224.334 128.559C225.019 129.379 225.521 130.337 225.806 131.367C226.234 132.332 226.446 133.38 226.426 134.436Z" fill="#263E4A"/>
<path d="M237.687 129.108C237.532 129.108 237.154 127.433 236.041 125.622C234.927 123.811 233.61 122.669 233.717 122.553C234.894 123.195 235.855 124.172 236.477 125.361C237.242 126.462 237.663 127.767 237.687 129.108Z" fill="#263E4A"/>
<path d="M270.007 160.928C270.152 160.928 268.487 174.367 266.299 190.895C264.111 207.423 262.222 220.814 262.087 220.795C261.951 220.776 263.607 207.365 265.795 190.827C267.984 174.29 269.872 160.908 270.007 160.928Z" fill="#263E4A"/>
<path d="M122.881 182.652C122.919 183.113 122.919 183.576 122.881 184.037C122.854 184.58 122.786 185.121 122.677 185.654C122.619 185.973 122.571 186.303 122.503 186.622C122.435 186.942 122.329 187.339 122.222 187.726C121.745 189.542 121.096 191.309 120.286 193.003C119.268 195.065 118.059 197.026 116.674 198.861C115.249 200.682 113.625 202.338 111.833 203.799C110.357 204.981 108.729 205.958 106.992 206.704C106.614 206.849 106.266 207.014 105.927 207.14L104.958 207.411L104.106 207.643C103.845 207.701 103.593 207.711 103.37 207.75C102.913 207.822 102.449 207.858 101.986 207.856C103.646 207.527 105.268 207.031 106.827 206.375C108.498 205.606 110.066 204.63 111.494 203.47C113.221 202.024 114.791 200.401 116.18 198.629C117.546 196.823 118.745 194.898 119.763 192.877C120.582 191.215 121.256 189.485 121.777 187.707C122.232 186.042 122.6 184.355 122.881 182.652Z" fill="#263E4A"/>
<g opacity="0.3">
<path d="M266.851 294.944C271.015 292.93 271.964 287.536 272.39 282.927C273.629 269.443 274.872 255.949 276.117 242.445C276.708 236.103 276.989 228.889 272.515 224.319C268.429 220.175 261.932 219.933 256.113 219.952C220.191 220.049 188.461 221.104 152.51 221.201L154.34 284.051L266.851 294.944Z" fill="#0A0A0A"/>
</g>
<path d="M137.046 230.94L140.871 303.831C140.95 305.192 141.549 306.471 142.543 307.404C143.537 308.337 144.852 308.854 146.215 308.846L262.329 309.05C263.695 309.054 265.011 308.535 266.005 307.598C267 306.661 267.597 305.379 267.674 304.015L272.098 232.364C272.253 229.381 270.162 225.421 267.122 225.363H142.497C141.765 225.344 141.037 225.476 140.359 225.751C139.68 226.026 139.066 226.438 138.554 226.961C138.042 227.485 137.644 228.109 137.384 228.793C137.125 229.478 137.01 230.209 137.046 230.94Z" fill="#E0E0E0"/>
<path d="M137.046 230.941C137.046 230.941 137.046 230.844 137.046 230.67C137.021 230.399 137.021 230.127 137.046 229.856C137.204 228.792 137.684 227.802 138.421 227.019C138.962 226.441 139.623 225.988 140.358 225.693C141.257 225.37 142.213 225.238 143.166 225.305H150.224L195.21 225.228L261.932 225.16H266.677C267.517 225.115 268.352 225.328 269.068 225.77C269.775 226.22 270.378 226.814 270.84 227.513C271.79 228.899 272.299 230.539 272.302 232.219C272.205 233.836 272.108 235.472 272.012 237.118C271.605 243.676 271.192 250.367 270.772 257.19C269.94 270.833 269.068 284.95 268.168 299.416L268.003 302.127C267.926 303.027 267.945 303.899 267.78 304.848C267.594 305.775 267.174 306.639 266.561 307.359C265.948 308.079 265.161 308.631 264.275 308.963C263.404 309.272 262.477 309.394 261.555 309.321H253.566H232.72L193.312 309.234L157.651 309.147H149.421H147.455C146.787 309.147 146.129 309.147 145.432 309.079C144.073 308.887 142.834 308.197 141.955 307.142C141.099 306.113 140.638 304.812 140.658 303.473C140.59 302.204 140.532 300.955 140.464 299.716C140.339 297.227 140.213 294.807 140.087 292.435C139.119 273.466 138.354 258.12 137.811 247.508C137.56 242.211 137.356 238.096 137.221 235.288C137.163 233.894 137.114 232.838 137.075 232.112C137.037 231.386 137.075 231.028 137.075 231.028C137.075 231.028 137.075 231.396 137.163 232.112C137.25 232.829 137.269 233.894 137.347 235.278C137.511 238.086 137.744 242.202 138.044 247.498C138.615 258.149 139.448 273.457 140.474 292.415C140.6 294.788 140.736 297.208 140.871 299.697C140.929 300.936 140.997 302.185 141.065 303.453C141.046 304.708 141.479 305.929 142.285 306.891C143.103 307.867 144.256 308.502 145.519 308.672C146.162 308.73 146.809 308.749 147.455 308.73H157.69H193.351L232.759 308.788H253.605H261.593C262.456 308.857 263.323 308.745 264.14 308.459C264.945 308.158 265.66 307.657 266.217 307.003C266.774 306.349 267.156 305.564 267.325 304.722C267.471 303.899 267.471 302.95 267.538 302.069L267.703 299.358C268.603 284.892 269.475 270.775 270.327 257.142C270.746 250.312 271.16 243.618 271.566 237.06C271.673 235.424 271.77 233.797 271.866 232.17C271.86 230.594 271.381 229.056 270.491 227.755C270.109 227.092 269.556 226.544 268.891 226.166C268.225 225.788 267.471 225.594 266.706 225.606H261.971H195.248L150.263 225.538H143.205C142.27 225.465 141.33 225.587 140.445 225.896C139.588 226.226 138.832 226.774 138.252 227.486C137.671 228.197 137.286 229.047 137.134 229.953C137.088 230.281 137.059 230.61 137.046 230.941Z" fill="#263E4A"/>
<path d="M205.434 273.328C209.209 273.328 212.27 270.267 212.27 266.492C212.27 262.717 209.209 259.656 205.434 259.656C201.659 259.656 198.598 262.717 198.598 266.492C198.598 270.267 201.659 273.328 205.434 273.328Z" fill="white"/>
<path d="M212.27 266.496C212.222 266.496 212.27 265.886 211.96 264.85C211.559 263.388 210.68 262.103 209.462 261.2C208.637 260.576 207.674 260.158 206.654 259.98C205.492 259.777 204.296 259.884 203.188 260.289C201.96 260.733 200.894 261.536 200.128 262.594C199.348 263.662 198.905 264.939 198.858 266.261C198.811 267.583 199.161 268.889 199.864 270.01C200.567 271.131 201.589 272.015 202.8 272.549C204.01 273.082 205.353 273.24 206.654 273.003C207.674 272.825 208.637 272.407 209.462 271.783C210.678 270.882 211.557 269.6 211.96 268.142C212.241 267.106 212.222 266.486 212.27 266.496C212.296 266.64 212.296 266.788 212.27 266.932C212.276 267.356 212.227 267.779 212.125 268.19C211.773 269.727 210.901 271.095 209.656 272.063C208.726 272.789 207.627 273.267 206.462 273.453C205.297 273.639 204.105 273.527 202.994 273.129C201.958 272.758 201.022 272.15 200.263 271.353C199.504 270.557 198.941 269.593 198.621 268.54C198.301 267.487 198.232 266.373 198.42 265.288C198.608 264.204 199.047 263.178 199.702 262.294C200.527 261.164 201.675 260.31 202.994 259.844C204.183 259.419 205.464 259.322 206.703 259.563C207.764 259.777 208.759 260.238 209.608 260.909C210.856 261.873 211.73 263.243 212.077 264.782C212.179 265.19 212.228 265.61 212.222 266.031C212.265 266.182 212.282 266.339 212.27 266.496Z" fill="#263E4A"/>
<path d="M140.959 239.01C141.094 239.01 141.675 251.258 142.237 266.373C142.798 281.487 143.147 293.745 143.011 293.745C142.876 293.745 142.324 281.487 141.733 266.382C141.143 251.278 140.823 239.019 140.959 239.01Z" fill="#263E4A"/>
<path d="M106.063 143.903C105.375 143.322 108.358 131.878 108.358 131.878C108.358 131.878 100.476 119.029 100.273 114.885C100.069 110.741 103.381 102.239 103.381 102.239L125.97 96.4297C125.97 96.4297 133.232 109.908 134.684 114.672C136.137 119.435 132.196 135.605 132.196 135.605L128.323 143.903C128.323 143.903 116.82 153.024 106.063 143.903Z" fill="#E8B5AD"/>
<path d="M100.311 117.364C99.4262 115.733 98.6311 114.055 97.9286 112.338C96.5053 108.949 94.7431 105.619 97.9286 103.721C98.4257 103.394 98.9871 103.177 99.575 103.085C100.163 102.993 100.764 103.028 101.337 103.188C101.337 103.188 100.853 100.284 102.557 99.2573C103.053 98.9476 103.615 98.7598 104.197 98.7093C104.779 98.6588 105.365 98.747 105.907 98.9668C105.907 98.9668 105.365 94.9388 107.844 93.2347C108.766 92.6256 109.84 92.2857 110.945 92.2532C112.05 92.2207 113.142 92.4969 114.099 93.0507C114.099 93.0507 112.162 75.4188 111.988 74.4893C111.368 71.0616 112.636 68.0213 116.045 68.8734C117.294 69.1832 117.981 70.5001 119.453 76.2418C120.925 81.9836 123.278 91.7823 123.278 91.7823C123.278 91.7823 127.247 98.6763 129.087 102.433C130.927 106.19 134.674 114.691 134.984 116.957C135.778 122.767 132.36 130.513 132.36 130.513L108.347 131.907L100.311 117.364Z" fill="#E8B5AD"/>
<path d="M101.811 103.943C102.496 104.76 103.118 105.627 103.671 106.538L105.607 109.443C105.999 110.015 106.346 110.617 106.643 111.244C106.981 111.959 107.079 112.764 106.924 113.539C106.851 113.944 106.672 114.322 106.405 114.635C106.138 114.948 105.792 115.185 105.404 115.32C104.679 115.502 103.912 115.405 103.254 115.049C102.689 114.778 102.151 114.454 101.647 114.081C101.182 113.742 100.746 113.413 100.359 113.113C99.5748 112.503 98.9745 111.98 98.5678 111.602C98.1612 111.225 97.9482 111.012 97.9675 110.983C97.9869 110.954 98.9358 111.689 100.572 112.822C101.487 113.511 102.458 114.12 103.477 114.643C104.033 114.935 104.677 115.014 105.288 114.865C105.592 114.755 105.862 114.564 106.068 114.314C106.274 114.064 106.409 113.762 106.459 113.442C106.582 112.787 106.498 112.11 106.217 111.505C105.939 110.901 105.615 110.318 105.249 109.763L103.438 106.858C102.815 105.934 102.271 104.959 101.811 103.943Z" fill="#80605B"/>
<path d="M121.506 106.045C121.3 104.784 121.386 103.492 121.758 102.269C121.975 101.008 122.49 99.8162 123.259 98.793C123.394 98.8607 122.726 100.4 122.29 102.385C121.855 104.37 121.661 106.045 121.506 106.045Z" fill="#80605B"/>
<path d="M131.033 111.197C128.817 109.051 126.025 107.594 122.997 107.004C119.982 106.423 116.897 106.306 113.847 106.655C111.407 106.878 108.608 107.508 107.505 109.696C106.401 111.884 107.737 114.847 109.896 116.135C112.055 117.422 114.737 117.481 117.265 117.258C119.792 117.035 122.309 116.561 124.807 116.948" fill="#E8B5AD"/>
<path d="M124.808 116.95C124.808 116.95 124.13 116.882 122.871 116.95C121.15 117.024 119.434 117.186 117.73 117.434C116.532 117.587 115.324 117.638 114.118 117.589C112.712 117.541 111.333 117.194 110.071 116.572C108.663 115.83 107.59 114.581 107.069 113.076C106.793 112.273 106.733 111.412 106.895 110.578C107.102 109.719 107.564 108.942 108.222 108.351C109.555 107.32 111.16 106.698 112.84 106.56C114.354 106.382 115.877 106.292 117.401 106.289C119.994 106.242 122.576 106.631 125.04 107.441C126.698 107.998 128.247 108.837 129.62 109.92C129.995 110.217 130.348 110.54 130.675 110.888C130.798 110.999 130.906 111.126 130.995 111.266C130.995 111.266 130.491 110.811 129.504 110.094C128.109 109.091 126.563 108.316 124.924 107.799C122.492 107.051 119.954 106.704 117.41 106.773C115.905 106.79 114.402 106.89 112.908 107.073C111.327 107.2 109.817 107.781 108.56 108.748C107.982 109.26 107.573 109.935 107.389 110.685C107.238 111.43 107.288 112.202 107.534 112.922C108.01 114.313 108.996 115.472 110.294 116.165C111.501 116.761 112.821 117.091 114.167 117.133C115.348 117.199 116.533 117.169 117.71 117.046C119.431 116.822 121.165 116.709 122.9 116.707C123.37 116.729 123.839 116.774 124.304 116.843C124.477 116.853 124.646 116.889 124.808 116.95Z" fill="#80605B"/>
<path d="M101.986 104.225C104.513 108.098 106.74 112.281 108.87 116.348C109.379 117.593 110.215 118.677 111.291 119.485C112.201 120.046 114.457 119.03 115.474 118.681L108.531 102.898" fill="#E8B5AD"/>
<path d="M108.531 102.898C108.774 103.269 108.981 103.661 109.151 104.07L110.681 107.381C111.969 110.189 113.731 114.159 115.696 118.584L115.813 118.826L115.551 118.923C114.806 119.185 114.002 119.523 113.13 119.746C112.781 119.833 112.425 119.885 112.065 119.901C111.876 119.91 111.687 119.89 111.504 119.843C111.312 119.796 111.134 119.706 110.981 119.581C110.422 119.179 109.945 118.673 109.577 118.09C108.87 116.967 108.367 115.844 107.795 114.808C106.711 112.707 105.714 110.828 104.842 109.26C103.971 107.691 103.254 106.442 102.741 105.581C102.458 105.147 102.206 104.694 101.986 104.225C102.334 104.613 102.642 105.034 102.906 105.484C103.467 106.307 104.252 107.536 105.152 109.086C106.053 110.635 107.089 112.494 108.212 114.585C108.783 115.621 109.316 116.764 109.993 117.819C110.33 118.345 110.76 118.804 111.262 119.175C111.529 119.314 111.824 119.393 112.125 119.406C112.426 119.419 112.726 119.367 113.005 119.252C113.828 119.049 114.612 118.72 115.387 118.449L115.212 118.817C113.276 114.353 111.552 110.393 110.371 107.546L108.977 104.177C108.791 103.764 108.642 103.337 108.531 102.898Z" fill="#80605B"/>
<path d="M106.663 98.2042C108.89 103.801 111.12 109.394 113.353 114.984C113.76 116.201 114.369 117.34 115.154 118.354C115.551 118.857 116.067 119.254 116.655 119.51C117.243 119.765 117.885 119.87 118.524 119.816C120.267 119.564 121.429 117.715 121.496 115.943C121.443 114.175 121.014 112.439 120.238 110.85C118.237 105.746 116.634 100.496 115.445 95.1445" fill="#E8B5AD"/>
<path d="M115.445 95.1523C115.512 95.3191 115.567 95.4906 115.609 95.6655C115.716 96.0528 115.842 96.5466 116.006 97.1469C116.355 98.4347 116.858 100.294 117.565 102.569C118.272 104.845 119.182 107.527 120.334 110.451C121.048 111.983 121.522 113.616 121.738 115.292C121.802 116.212 121.625 117.133 121.225 117.964C120.816 118.833 120.103 119.522 119.221 119.901C118.762 120.069 118.273 120.135 117.786 120.095C117.3 120.054 116.828 119.909 116.403 119.669C115.608 119.226 114.941 118.586 114.467 117.81C113.666 116.348 112.989 114.823 112.443 113.249C111.3 110.344 110.274 107.691 109.393 105.455C108.512 103.218 107.882 101.485 107.379 100.178L106.846 98.7349C106.777 98.567 106.729 98.3915 106.701 98.212C106.799 98.3642 106.88 98.5265 106.943 98.6962L107.563 100.1C108.095 101.398 108.831 103.17 109.722 105.319C110.613 107.469 111.659 110.16 112.879 113.065C113.424 114.602 114.094 116.092 114.883 117.519C115.322 118.228 115.94 118.809 116.674 119.204C117.037 119.408 117.438 119.531 117.853 119.566C118.267 119.601 118.684 119.547 119.075 119.407C119.848 119.07 120.468 118.46 120.818 117.693C121.182 116.941 121.343 116.106 121.283 115.273C121.068 113.662 120.615 112.092 119.937 110.615C118.804 107.711 117.923 104.951 117.265 102.666C116.606 100.381 116.142 98.4832 115.851 97.1857C115.716 96.5273 115.609 96.0238 115.551 95.6752C115.488 95.5076 115.453 95.3311 115.445 95.1523Z" fill="#80605B"/>
<path d="M107.195 137.54C107.195 137.54 91.8768 182.719 91.2668 184.927C90.6568 187.135 94.2975 203.275 100.949 207.1C107.601 210.925 120.508 195.006 122.115 189.158C123.723 183.31 122.115 173.434 122.115 173.434L132.447 134.52" fill="#E8B5AD"/>
<path d="M122.116 130.52C121.627 130.582 121.131 130.519 120.673 130.337C119.543 129.984 118.504 129.386 117.633 128.584C116.751 127.78 116.062 126.787 115.619 125.679C115.393 125.24 115.286 124.749 115.309 124.256C115.948 125.722 116.85 127.058 117.972 128.197C119.196 129.223 120.602 130.011 122.116 130.52Z" fill="#80605B"/>
<path d="M397.286 349.472C397.286 349.618 311.973 349.734 206.753 349.734C101.532 349.734 16.1997 349.618 16.1997 349.472C16.1997 349.327 101.503 349.221 206.753 349.221C312.002 349.221 397.286 349.337 397.286 349.472Z" fill="#263238"/>
<path d="M147.592 25.6152H38.9243C36.0955 25.6152 33.8022 27.9085 33.8022 30.7373V60.8694C33.8022 63.6983 36.0955 65.9915 38.9243 65.9915H147.592C150.421 65.9915 152.714 63.6983 152.714 60.8694V30.7373C152.714 27.9085 150.421 25.6152 147.592 25.6152Z" fill="#E05151"/>
<path d="M153.478 65.9845H48.9741C47.5349 65.9692 46.1598 65.3874 45.1466 64.3652C44.1335 63.343 43.564 61.9627 43.5615 60.5235V30.9336C43.5641 29.4861 44.1403 28.0985 45.1638 27.075C46.1874 26.0514 47.5749 25.4752 49.0225 25.4727H153.478C154.926 25.4752 156.313 26.0514 157.337 27.075C158.36 28.0985 158.936 29.4861 158.939 30.9336V60.5235C158.936 61.9711 158.36 63.3586 157.337 64.3822C156.313 65.4058 154.926 65.9819 153.478 65.9845ZM48.9741 26.4409C47.7917 26.4562 46.6629 26.9359 45.8313 27.7766C44.9997 28.6172 44.5322 29.7512 44.5298 30.9336V60.5235C44.5298 61.7151 45.0031 62.8578 45.8457 63.7004C46.6882 64.5429 47.8309 65.0162 49.0225 65.0162H153.478C154.67 65.0162 155.812 64.5429 156.655 63.7004C157.497 62.8578 157.971 61.7151 157.971 60.5235V30.9336C157.968 29.7429 157.494 28.6016 156.652 27.7596C155.81 26.9176 154.669 26.4435 153.478 26.4409H48.9741Z" fill="#E05151"/>
<path d="M154.534 65.0908C153.729 64.3553 153.043 63.4995 152.501 62.5539C151.816 61.7042 151.268 60.7538 150.874 59.7363C151.68 60.4729 152.369 61.3284 152.917 62.2732C153.601 63.1217 154.146 64.0725 154.534 65.0908Z" fill="#E05151"/>
<path d="M158.455 33.8841C157.255 32.6655 156.181 31.329 155.25 29.8949C154.185 28.5595 153.248 27.1266 152.452 25.6152C153.651 26.8339 154.725 28.1704 155.657 29.6045C156.726 30.937 157.663 32.3703 158.455 33.8841Z" fill="#E05151"/>
<path d="M158.038 59.751C157.893 59.8575 156.44 57.8145 154.852 55.084C154.049 53.7478 153.342 52.5278 152.848 51.637C152.541 51.1737 152.287 50.6766 152.093 50.1556C152.238 50.0587 153.69 52.1502 155.278 54.8226C156.082 56.1588 156.789 57.3788 157.292 58.2696C157.6 58.7315 157.85 59.2289 158.038 59.751Z" fill="#E05151"/>
<path d="M158.483 51.2934C158.338 51.3999 156.789 49.1438 155.075 46.2681C154.213 44.8254 153.448 43.5183 152.906 42.5597C152.581 42.0599 152.308 41.5278 152.093 40.9718C152.238 40.8749 153.787 43.131 155.511 46.0067C156.372 47.4397 157.128 48.7565 157.67 49.7054C157.998 50.2037 158.271 50.7361 158.483 51.2934Z" fill="#E05151"/>
<path d="M158.475 42.9393C158.329 43.0458 156.771 40.7704 155.047 37.885C154.176 36.4423 153.411 35.1158 152.868 34.1572C152.537 33.6562 152.261 33.1205 152.045 32.5596C152.191 32.4628 153.75 34.7285 155.473 37.6236C156.344 39.0663 157.109 40.3831 157.652 41.3514C157.986 41.8471 158.263 42.38 158.475 42.9393Z" fill="#E05151"/>
<path d="M30.8678 31.8691C28.7852 31.5878 26.729 31.1377 24.7193 30.5233C22.6663 30.0705 20.6524 29.4553 18.6968 28.6836C20.7793 28.965 22.8356 29.4151 24.8452 30.0295C26.8987 30.4804 28.9127 31.0956 30.8678 31.8691Z" fill="#263238"/>
<path d="M32.0389 24.5982C29.7657 22.2289 27.6165 19.7436 25.6 17.1523C23.4518 14.6779 21.435 12.0923 19.5581 9.40625C21.8287 11.7813 23.9778 14.2697 25.997 16.8618C28.1397 19.3375 30.1562 21.9195 32.0389 24.5982Z" fill="#263238"/>
<path d="M41.0151 21.0927C40.3168 19.4689 39.8695 17.7483 39.6886 15.99C39.3386 14.2566 39.2667 12.4786 39.4756 10.7227C39.6208 10.7227 39.7564 13.0658 40.1824 15.9222C40.6085 18.7785 41.1604 21.0249 41.0151 21.0927Z" fill="#263238"/>
</svg>
